<?xml version="1.0" encoding="UTF-8" ?>
<!DOCTYPE svg PUBLIC "-//W3C//DTD SVG 1.1//EN" "http://www.w3.org/Graphics/SVG/1.1/DTD/svg11.dtd">
<svg width="1000pt" height="1000pt" viewBox="0 0 1000 1000" version="1.1" xmlns="http://www.w3.org/2000/svg">
<g id="#000000ff">
<path fill="#000000" opacity="1.00" d=" M 541.98 97.00 C 558.93 87.59 579.14 85.67 598.11 88.21 C 618.74 90.92 638.33 101.40 651.63 117.45 C 657.93 125.27 663.73 133.89 666.19 143.75 C 674.50 130.61 686.98 119.94 701.78 114.89 C 721.39 108.15 743.12 106.06 763.26 111.74 C 780.37 116.49 795.99 127.38 805.26 142.66 C 814.70 157.94 817.90 176.27 817.63 194.02 C 817.16 214.47 813.42 235.10 804.72 253.72 C 792.73 279.35 772.32 300.00 749.95 316.83 C 734.13 328.64 717.19 338.97 699.34 347.41 C 682.96 355.00 665.53 359.92 648.12 364.52 C 650.58 371.19 653.27 377.90 654.24 384.99 C 654.81 388.69 653.22 393.23 649.24 394.21 C 643.44 395.59 637.53 393.63 631.81 392.70 C 629.46 438.55 626.51 484.36 622.81 530.12 C 621.84 544.06 620.69 558.08 622.00 572.04 C 631.82 569.31 643.48 570.61 650.98 578.03 C 659.56 586.64 662.82 599.11 663.53 610.94 C 664.06 623.37 662.26 636.28 656.28 647.35 C 650.89 657.36 641.42 665.32 630.23 667.86 C 632.48 680.42 633.58 693.32 632.00 706.03 C 629.89 723.06 624.17 739.63 615.36 754.36 C 610.04 763.24 604.38 771.95 598.28 780.31 C 597.35 782.09 594.42 782.23 593.65 780.27 C 592.72 778.71 594.14 777.19 594.87 775.90 C 602.57 764.72 610.33 753.49 616.25 741.25 C 624.27 724.08 628.38 704.90 626.95 685.94 C 626.59 679.98 625.81 674.04 624.77 668.16 C 624.06 668.07 622.64 667.88 621.93 667.79 C 612.09 677.43 598.88 682.94 585.44 685.23 C 577.92 686.39 570.16 686.58 562.70 684.90 C 567.86 707.81 569.55 731.96 563.97 754.96 C 555.52 789.89 529.97 819.66 497.81 835.20 C 497.34 843.47 497.02 851.75 496.56 860.03 C 496.40 866.19 496.68 873.01 500.75 878.02 C 504.91 883.03 511.45 884.99 517.53 886.53 C 533.31 890.09 549.65 891.44 564.92 897.03 C 569.74 898.96 575.30 901.68 576.79 907.11 C 577.79 910.81 574.62 914.11 571.31 915.16 C 568.61 916.46 565.00 916.44 563.02 918.90 C 562.86 922.81 564.69 926.99 562.68 930.69 C 561.08 934.35 556.80 935.86 553.05 935.66 C 547.08 935.30 541.74 932.25 535.89 931.25 C 533.18 935.25 530.85 940.06 526.14 942.06 C 518.56 945.58 510.16 942.50 502.71 940.18 C 489.39 935.42 476.24 928.92 466.13 918.84 C 460.72 913.24 456.87 905.86 456.51 897.99 C 456.33 892.58 457.61 887.28 458.12 881.92 C 459.35 870.71 458.40 859.43 457.96 848.21 C 436.99 852.51 414.01 855.81 393.81 846.68 C 393.64 859.17 391.03 871.47 390.72 883.95 C 390.70 887.82 390.61 891.98 392.65 895.44 C 394.58 898.77 397.99 900.87 401.38 902.50 C 410.97 907.03 421.55 908.62 431.75 911.22 C 438.57 912.97 445.46 914.52 452.16 916.73 C 456.18 918.13 460.52 920.27 462.37 924.36 C 464.25 928.50 461.47 933.45 457.56 935.22 C 454.52 936.76 450.94 936.35 447.85 937.63 C 445.31 941.49 445.97 946.64 443.52 950.61 C 441.33 955.13 435.97 957.68 431.09 956.48 C 425.39 955.60 420.11 950.73 414.17 953.09 C 405.88 956.33 398.27 962.20 388.99 962.19 C 380.82 961.81 373.29 957.86 366.69 953.29 C 354.63 944.73 345.88 930.98 345.01 916.04 C 344.50 908.61 346.89 901.45 349.52 894.63 C 352.68 886.49 353.36 877.70 353.97 869.07 C 354.57 859.40 355.09 849.72 355.05 840.03 C 351.26 837.55 347.65 834.74 344.92 831.08 C 324.80 830.78 305.21 823.62 288.72 812.29 C 264.41 795.61 245.13 771.10 236.28 742.85 C 232.97 731.78 230.89 719.84 233.61 708.43 C 235.09 702.31 238.92 696.06 245.31 694.27 C 249.97 692.74 254.75 694.72 258.90 696.77 C 255.55 689.38 252.73 680.67 255.81 672.71 C 258.02 666.67 264.80 662.91 271.10 664.01 C 276.51 664.81 280.71 668.87 286.06 669.92 C 297.42 672.20 309.47 670.03 319.63 664.55 C 334.07 656.99 345.04 644.29 353.77 630.78 C 364.25 614.66 370.82 596.02 372.64 576.88 C 375.05 552.04 370.73 527.19 365.07 503.07 C 360.31 483.01 356.28 462.66 355.47 442.00 C 353.77 412.68 361.35 382.86 377.04 358.01 C 389.37 338.32 407.65 322.34 428.91 312.94 C 442.61 306.97 457.95 304.12 472.81 306.61 C 491.03 309.60 508.18 317.90 522.52 329.43 C 537.94 341.81 550.08 358.70 555.00 378.01 C 560.81 398.11 559.07 419.84 551.66 439.28 C 557.87 445.07 564.84 450.33 572.99 453.01 C 579.07 455.11 586.27 457.36 589.03 463.80 C 591.67 469.30 588.50 475.62 584.01 479.05 C 576.91 484.59 567.82 486.80 559.05 487.96 C 555.43 488.59 551.35 487.75 548.24 490.12 C 538.58 496.26 527.31 499.96 515.82 500.00 C 507.61 518.98 505.38 540.92 511.47 560.84 C 512.48 563.75 514.53 566.12 516.39 568.53 C 525.41 579.84 537.23 589.17 550.98 593.99 C 564.08 598.77 579.16 597.93 591.57 591.52 C 595.57 589.40 600.03 587.66 602.92 583.99 C 606.70 579.68 611.62 576.58 616.68 573.98 C 614.87 557.99 616.50 541.91 617.60 525.94 C 621.00 484.84 623.44 443.67 625.84 402.50 C 626.09 398.81 626.30 395.10 626.00 391.40 C 621.17 390.28 616.24 389.23 611.77 387.02 C 609.36 385.85 607.00 383.86 606.72 381.02 C 606.80 378.28 608.58 376.03 610.22 373.98 C 613.45 370.09 616.93 366.42 620.18 362.55 C 605.18 354.27 591.80 343.38 579.23 331.81 C 557.08 311.46 539.03 287.02 523.78 261.19 C 514.66 245.66 506.79 229.18 502.70 211.56 C 496.43 185.06 499.04 156.37 510.77 131.72 C 517.56 117.51 528.05 104.68 541.98 97.00 M 568.51 93.68 C 555.24 95.65 542.32 101.17 532.52 110.46 C 518.94 123.17 511.06 140.90 507.27 158.87 C 502.81 180.17 504.44 202.64 511.61 223.18 C 518.26 242.45 528.80 260.07 540.00 277.00 C 554.76 299.31 572.46 319.72 593.01 336.89 C 604.81 346.94 617.63 355.89 631.68 362.51 C 632.74 363.12 633.96 362.61 635.07 362.41 C 655.45 357.04 676.08 352.01 695.38 343.37 C 711.75 335.83 727.29 326.55 741.96 316.09 C 763.69 300.43 783.84 281.49 796.74 257.74 C 807.02 238.88 811.46 217.33 812.17 196.00 C 812.68 179.04 810.14 161.42 801.42 146.60 C 792.83 131.70 777.75 121.13 761.26 116.73 C 742.13 111.60 721.59 113.67 703.04 120.11 C 688.61 125.08 676.89 136.03 669.15 148.99 C 667.76 151.26 664.48 154.73 661.90 152.13 C 660.55 148.10 661.24 143.56 659.31 139.65 C 652.02 123.16 638.87 109.28 622.71 101.26 C 606.08 92.94 586.76 91.06 568.51 93.68 M 407.20 332.27 C 384.49 349.99 369.88 376.63 363.77 404.51 C 359.23 424.72 360.33 445.68 363.17 466.05 C 366.45 489.61 373.77 512.39 376.85 535.99 C 379.65 556.56 379.78 577.83 374.21 597.98 C 369.62 615.13 361.13 631.10 350.16 645.02 C 342.07 655.32 332.14 664.42 320.28 670.19 C 309.42 675.59 296.72 677.72 284.79 675.11 C 280.84 674.33 277.40 672.23 273.86 670.44 C 270.15 668.52 264.98 668.80 262.23 672.22 C 259.42 675.62 259.57 680.42 260.35 684.52 C 262.33 694.48 268.24 702.97 273.77 711.25 C 275.26 713.52 271.61 716.29 269.78 714.25 C 264.28 708.17 258.66 700.86 250.13 699.23 C 244.28 698.27 240.17 703.93 239.00 709.00 C 236.30 719.99 238.39 731.54 241.67 742.17 C 250.55 769.69 269.74 793.44 293.80 809.26 C 309.20 819.32 327.36 825.84 345.90 825.52 C 348.07 825.69 350.88 824.42 352.56 826.33 C 353.88 827.91 352.24 829.40 351.47 830.78 C 355.96 834.29 360.64 837.80 366.11 839.62 C 375.52 842.57 385.96 841.09 394.74 836.82 C 401.56 833.23 406.48 827.12 411.75 821.67 C 412.90 819.95 415.52 820.08 416.46 821.96 C 417.06 824.09 415.19 825.52 413.99 826.98 C 408.72 832.64 403.30 838.45 396.31 842.01 C 404.70 845.64 413.87 847.20 422.99 847.04 C 443.17 846.88 463.04 842.26 482.08 835.86 C 514.82 824.88 542.29 798.95 554.75 766.70 C 561.60 749.01 562.99 729.66 561.40 710.88 C 559.29 687.49 552.56 664.73 543.60 643.09 C 537.11 627.30 528.79 612.37 521.03 597.19 C 514.08 583.45 507.30 569.36 504.31 554.16 C 500.47 535.85 503.31 516.59 510.24 499.37 C 496.40 497.37 484.11 487.92 478.53 475.12 C 473.56 472.15 468.16 468.65 466.27 462.86 C 464.49 458.08 466.78 452.64 470.84 449.83 C 474.25 446.98 479.03 446.33 482.20 443.20 C 488.62 433.02 491.46 420.02 501.67 412.63 C 509.00 406.88 519.88 406.47 527.42 412.07 C 528.37 407.63 530.31 402.76 534.69 400.72 C 538.14 399.07 542.10 401.09 544.20 403.94 C 547.57 408.52 548.42 414.56 547.71 420.09 C 547.23 423.62 545.22 426.82 542.18 428.71 C 543.91 430.87 545.67 433.02 547.47 435.12 C 555.93 411.93 554.80 385.40 543.74 363.27 C 535.60 347.27 522.25 334.31 507.01 325.05 C 493.12 316.78 477.26 311.09 460.94 311.11 C 441.19 311.39 422.47 320.18 407.20 332.27 M 611.83 380.94 C 616.45 383.76 621.77 384.98 626.99 386.15 C 632.95 387.40 638.89 388.97 645.00 389.26 C 646.54 389.26 649.29 389.42 648.89 387.11 C 648.62 379.66 645.29 372.74 642.92 365.78 C 639.31 366.66 635.75 367.93 632.02 368.24 C 629.53 367.54 627.30 366.21 625.00 365.07 C 620.68 370.42 615.60 375.16 611.83 380.94 M 511.55 413.71 C 507.96 414.54 504.73 416.55 502.12 419.11 C 494.70 426.55 492.54 437.32 486.80 445.85 C 483.26 451.09 475.75 451.07 472.00 456.06 C 470.09 458.74 471.17 462.48 473.32 464.69 C 477.93 469.60 484.37 472.23 490.58 474.50 C 502.05 478.32 514.00 480.55 526.00 481.89 C 539.41 483.18 553.18 484.34 566.43 481.20 C 571.96 479.78 577.66 477.85 581.87 473.83 C 584.14 471.72 585.58 468.12 583.81 465.26 C 581.45 461.21 576.54 460.02 572.46 458.49 C 561.28 454.96 551.83 447.46 543.94 439.00 C 537.27 431.94 532.68 423.02 525.00 416.91 C 521.29 413.88 516.24 412.55 511.55 413.71 M 486.41 478.67 C 491.13 485.37 497.92 490.72 505.89 492.95 C 517.52 496.36 530.05 493.74 540.67 488.41 C 522.29 487.34 503.84 484.80 486.41 478.67 M 610.36 584.23 C 605.87 587.81 601.52 592.94 602.07 599.07 C 602.15 602.84 604.84 606.27 608.49 607.22 C 615.10 609.06 622.06 606.76 627.90 603.63 C 629.02 602.84 630.99 602.73 631.71 604.14 C 632.96 605.57 631.66 607.55 630.25 608.27 C 624.60 611.64 617.96 613.31 611.39 613.18 C 607.21 615.95 602.72 618.62 599.98 622.97 C 597.78 625.99 596.53 630.56 599.31 633.64 C 602.72 637.59 608.36 636.75 613.01 636.58 C 614.85 636.33 616.66 638.17 616.30 640.02 C 615.17 642.79 612.75 644.93 612.11 647.93 C 610.79 653.73 614.69 659.92 620.25 661.77 C 626.91 664.13 634.26 661.79 639.86 657.92 C 649.12 651.70 654.65 641.18 656.70 630.42 C 659.08 618.20 658.96 605.17 654.55 593.41 C 651.94 586.78 647.56 580.08 640.54 577.62 C 630.22 573.85 618.57 577.46 610.36 584.23 M 517.69 578.23 C 526.50 597.74 537.58 616.12 546.17 635.74 C 552.16 649.43 557.24 663.54 560.96 678.02 C 566.37 681.33 572.98 680.76 579.05 680.54 C 592.45 679.43 605.92 674.78 616.16 665.87 C 607.93 661.53 603.76 650.43 608.75 642.18 C 604.93 642.10 600.93 641.57 597.76 639.27 C 593.57 636.48 591.40 630.97 592.80 626.10 C 594.52 619.88 599.24 614.96 604.47 611.41 C 598.45 608.32 595.81 601.24 596.87 594.78 C 584.85 601.66 570.31 604.26 556.74 601.20 C 541.74 597.82 528.29 589.21 517.69 578.23 M 463.15 846.92 C 463.98 858.61 464.64 870.41 463.53 882.12 C 462.90 889.12 460.69 896.31 462.80 903.27 C 465.16 911.22 471.33 917.31 477.98 921.91 C 488.42 929.05 500.12 934.41 512.41 937.44 C 516.67 938.37 521.65 939.02 525.44 936.33 C 529.35 933.64 529.93 927.28 535.11 926.26 C 542.06 925.60 548.05 930.94 555.04 930.16 C 556.70 930.11 558.21 928.76 558.23 927.05 C 558.31 923.27 556.38 919.12 558.74 915.68 C 560.91 912.34 565.15 911.74 568.61 910.47 C 569.63 909.84 571.96 909.70 571.52 908.01 C 569.83 904.77 566.20 903.34 563.02 902.01 C 554.58 898.92 545.71 897.27 536.90 895.65 C 525.76 893.43 514.02 892.54 503.79 887.21 C 496.93 883.73 492.38 876.63 491.56 869.05 C 490.43 858.61 492.13 848.13 492.22 837.67 C 482.79 841.51 473.01 844.41 463.15 846.92 M 360.39 843.07 C 360.24 856.41 359.71 869.78 358.00 883.01 C 357.13 890.30 354.18 897.05 351.91 903.95 C 348.25 915.35 351.41 928.02 358.31 937.54 C 365.07 946.73 374.95 954.01 386.18 956.52 C 396.74 958.21 404.98 950.02 414.55 947.39 C 419.78 945.84 424.66 948.82 429.43 950.49 C 432.07 951.40 435.61 952.07 437.71 949.70 C 441.54 945.22 439.83 938.26 443.97 933.96 C 446.99 930.88 451.71 931.90 455.39 930.34 C 456.87 929.61 458.18 927.74 457.32 926.10 C 455.34 923.32 451.90 922.27 448.83 921.25 C 441.31 919.04 433.69 917.21 426.08 915.36 C 414.83 912.68 402.92 910.61 393.26 903.86 C 387.21 899.69 384.89 892.05 385.25 884.99 C 385.54 871.56 388.37 858.32 388.48 844.88 C 379.23 847.20 369.15 847.11 360.39 843.07 Z" />
<path fill="#000000" opacity="1.00" d=" M 265.33 337.35 C 270.99 330.54 280.25 326.27 289.13 328.19 C 297.58 329.73 304.86 335.71 308.47 343.45 C 314.15 355.43 314.00 369.28 311.71 382.09 C 309.34 394.84 305.22 407.42 298.50 418.57 C 295.48 422.98 292.29 428.40 286.59 429.47 C 278.94 430.86 271.13 429.22 263.74 427.20 C 251.50 423.46 239.86 417.84 229.01 411.08 C 221.82 406.47 214.55 401.14 210.56 393.36 C 206.59 385.68 206.20 376.01 210.44 368.34 C 213.61 362.37 219.40 357.79 226.06 356.41 C 236.36 354.22 247.11 357.28 255.81 362.90 C 256.96 353.84 259.35 344.49 265.33 337.35 M 280.54 333.63 C 275.78 334.80 271.60 337.82 268.66 341.70 C 263.80 348.11 262.07 356.21 261.10 364.04 C 260.92 366.35 259.90 369.40 257.06 369.33 C 252.43 367.86 248.73 364.30 244.01 362.97 C 236.08 360.44 226.22 359.70 219.48 365.44 C 212.61 371.15 211.11 381.47 214.61 389.44 C 217.73 396.81 224.45 401.72 230.93 405.99 C 241.29 412.58 252.44 418.00 264.14 421.74 C 271.20 423.78 278.69 425.39 286.04 424.12 C 287.97 424.06 289.05 422.35 290.18 421.04 C 296.05 413.88 299.65 405.21 302.59 396.51 C 306.45 384.51 308.70 371.76 307.36 359.14 C 306.56 352.54 304.67 345.79 300.33 340.60 C 295.65 334.94 287.76 331.88 280.54 333.63 Z" />
<path fill="#000000" opacity="1.00" d=" M 448.37 398.53 C 452.44 396.93 457.08 399.02 459.35 402.58 C 463.67 409.20 463.42 418.06 460.18 425.08 C 458.10 429.73 453.45 434.21 447.97 433.22 C 442.31 432.02 439.34 426.10 438.61 420.84 C 437.40 412.56 440.08 402.14 448.37 398.53 Z" />
<path fill="#000000" opacity="1.00" d=" M 725.70 405.66 C 731.87 399.72 742.02 397.95 749.41 402.66 C 756.80 406.91 759.57 415.82 759.92 423.86 C 765.03 420.50 770.77 417.63 777.01 417.50 C 784.01 417.48 791.14 421.28 794.23 427.71 C 798.00 434.68 797.02 443.38 793.03 450.03 C 787.33 459.88 776.82 466.05 765.96 468.63 C 757.81 470.81 749.33 470.67 740.99 471.24 C 735.78 471.99 732.35 467.20 729.63 463.53 C 723.11 453.88 718.83 442.57 717.76 430.96 C 717.24 422.04 718.91 412.04 725.70 405.66 M 736.49 405.69 C 730.44 407.06 725.80 412.22 724.34 418.15 C 720.82 431.03 725.10 444.55 731.15 455.98 C 733.34 459.52 735.48 463.55 739.05 465.83 C 750.37 465.37 762.15 465.45 772.71 460.75 C 780.18 457.48 787.00 451.77 790.00 444.03 C 792.30 438.16 791.44 430.71 786.61 426.36 C 782.22 422.37 775.53 422.13 770.24 424.33 C 766.00 425.82 762.59 428.84 758.80 431.14 C 757.11 432.39 754.43 430.92 754.51 428.86 C 754.37 423.30 754.56 417.40 751.68 412.43 C 748.86 407.11 742.33 404.16 736.49 405.69 Z" />
<path fill="#000000" opacity="1.00" d=" M 507.33 442.40 C 513.52 440.32 519.69 445.16 522.92 450.14 C 524.39 452.02 522.15 454.63 520.03 453.95 C 517.65 452.33 516.19 449.67 513.69 448.21 C 511.69 447.20 509.39 447.16 507.29 446.48 C 505.92 445.58 505.94 443.27 507.33 442.40 Z" />
<path fill="#000000" opacity="1.00" d=" M 427.02 659.03 C 427.43 655.83 432.77 656.79 432.01 659.94 C 429.92 673.03 427.04 686.08 422.41 698.53 C 417.23 712.56 407.88 725.10 395.55 733.64 C 380.70 744.17 362.07 749.25 343.93 747.67 C 334.65 746.79 325.38 743.80 317.94 738.08 C 315.51 736.07 312.77 733.43 313.09 729.99 C 313.41 727.24 316.18 725.92 318.58 725.37 C 331.58 722.40 344.56 717.48 354.80 708.72 C 356.74 706.77 360.08 709.36 358.72 711.76 C 356.98 714.10 354.48 715.72 352.13 717.40 C 341.84 724.10 330.13 728.28 318.20 730.96 C 323.93 737.49 332.60 740.53 340.94 741.97 C 360.52 744.78 381.14 738.88 396.43 726.38 C 406.26 718.48 413.55 707.67 417.78 695.85 C 422.26 683.96 424.52 671.43 427.02 659.03 Z" />
<path fill="#000000" opacity="1.00" d=" M 512.23 905.17 C 514.28 904.25 516.35 906.16 518.26 906.81 C 524.34 910.06 531.17 911.27 537.94 912.01 C 540.79 912.61 539.94 917.30 537.05 916.92 C 528.32 916.90 519.86 913.86 512.30 909.67 C 510.46 908.86 510.30 905.94 512.23 905.17 Z" />
<path fill="#000000" opacity="1.00" d=" M 396.47 920.52 C 398.43 919.35 399.98 921.52 401.36 922.60 C 406.59 927.51 413.12 930.59 419.52 933.64 C 422.35 935.02 419.94 939.69 417.10 938.08 C 409.59 935.14 402.40 930.96 396.58 925.34 C 395.07 924.19 394.50 921.50 396.47 920.52 Z" />
</g>
<g id="#f55255ff">
<path fill="#f55255" opacity="1.00" d=" M 568.51 93.68 C 586.76 91.06 606.08 92.94 622.71 101.26 C 638.87 109.28 652.02 123.16 659.31 139.65 C 661.24 143.56 660.55 148.10 661.90 152.13 C 664.48 154.73 667.76 151.26 669.15 148.99 C 676.89 136.03 688.61 125.08 703.04 120.11 C 721.59 113.67 742.13 111.60 761.26 116.73 C 777.75 121.13 792.83 131.70 801.42 146.60 C 810.14 161.42 812.68 179.04 812.17 196.00 C 811.46 217.33 807.02 238.88 796.74 257.74 C 783.84 281.49 763.69 300.43 741.96 316.09 C 727.29 326.55 711.75 335.83 695.38 343.37 C 676.08 352.01 655.45 357.04 635.07 362.41 C 633.96 362.61 632.74 363.12 631.68 362.51 C 617.63 355.89 604.81 346.94 593.01 336.89 C 572.46 319.72 554.76 299.31 540.00 277.00 C 528.80 260.07 518.26 242.45 511.61 223.18 C 504.44 202.64 502.81 180.17 507.27 158.87 C 511.06 140.90 518.94 123.17 532.52 110.46 C 542.32 101.17 555.24 95.65 568.51 93.68 M 750.31 137.29 C 748.02 138.45 747.91 141.65 749.69 143.33 C 751.98 145.49 755.01 146.61 757.57 148.41 C 768.49 156.17 776.99 167.60 780.18 180.71 C 781.39 184.57 781.38 188.91 783.49 192.44 C 784.94 194.72 789.14 194.05 789.08 191.10 C 788.94 179.18 785.18 167.29 778.61 157.34 C 772.28 147.93 762.99 140.04 751.97 136.87 C 751.55 136.98 750.72 137.19 750.31 137.29 Z" />
<path fill="#f55255" opacity="1.00" d=" M 280.54 333.63 C 287.76 331.88 295.65 334.94 300.33 340.60 C 304.67 345.79 306.56 352.54 307.36 359.14 C 308.70 371.76 306.45 384.51 302.59 396.51 C 299.65 405.21 296.05 413.88 290.18 421.04 C 289.05 422.35 287.97 424.06 286.04 424.12 C 278.69 425.39 271.20 423.78 264.14 421.74 C 252.44 418.00 241.29 412.58 230.93 405.99 C 224.45 401.72 217.73 396.81 214.61 389.44 C 211.11 381.47 212.61 371.15 219.48 365.44 C 226.22 359.70 236.08 360.44 244.01 362.97 C 248.73 364.30 252.43 367.86 257.06 369.33 C 259.90 369.40 260.92 366.35 261.10 364.04 C 262.07 356.21 263.80 348.11 268.66 341.70 C 271.60 337.82 275.78 334.80 280.54 333.63 Z" />
<path fill="#f55255" opacity="1.00" d=" M 611.83 380.94 C 615.60 375.16 620.68 370.42 625.00 365.07 C 627.30 366.21 629.53 367.54 632.02 368.24 C 635.75 367.93 639.31 366.66 642.92 365.78 C 645.29 372.74 648.62 379.66 648.89 387.11 C 649.29 389.42 646.54 389.26 645.00 389.26 C 638.89 388.97 632.95 387.40 626.99 386.15 C 621.77 384.98 616.45 383.76 611.83 380.94 Z" />
<path fill="#f55255" opacity="1.00" d=" M 736.49 405.69 C 742.33 404.16 748.86 407.11 751.68 412.43 C 754.56 417.40 754.37 423.30 754.51 428.86 C 754.43 430.92 757.11 432.39 758.80 431.14 C 762.59 428.84 766.00 425.82 770.24 424.33 C 775.53 422.13 782.22 422.37 786.61 426.36 C 791.44 430.71 792.30 438.16 790.00 444.03 C 787.00 451.77 780.18 457.48 772.71 460.75 C 762.15 465.45 750.37 465.37 739.05 465.83 C 735.48 463.55 733.34 459.52 731.15 455.98 C 725.10 444.55 720.82 431.03 724.34 418.15 C 725.80 412.22 730.44 407.06 736.49 405.69 Z" />
</g>
<g id="#fffdffff">
<path fill="#fffdff" opacity="1.00" d=" M 750.31 137.29 C 750.72 137.19 751.55 136.98 751.97 136.87 C 762.99 140.04 772.28 147.93 778.61 157.34 C 785.18 167.29 788.94 179.18 789.08 191.10 C 789.14 194.05 784.94 194.72 783.49 192.44 C 781.38 188.91 781.39 184.57 780.18 180.71 C 776.99 167.60 768.49 156.17 757.57 148.41 C 755.01 146.61 751.98 145.49 749.69 143.33 C 747.91 141.65 748.02 138.45 750.31 137.29 Z" />
<path fill="#fffdff" opacity="1.00" d=" M 407.20 332.27 C 422.47 320.18 441.19 311.39 460.94 311.11 C 477.26 311.09 493.12 316.78 507.01 325.05 C 522.25 334.31 535.60 347.27 543.74 363.27 C 554.80 385.40 555.93 411.93 547.47 435.12 C 545.67 433.02 543.91 430.87 542.18 428.71 C 545.22 426.82 547.23 423.62 547.71 420.09 C 548.42 414.56 547.57 408.52 544.20 403.94 C 542.10 401.09 538.14 399.07 534.69 400.72 C 530.31 402.76 528.37 407.63 527.42 412.07 C 519.88 406.47 509.00 406.88 501.67 412.63 C 491.46 420.02 488.62 433.02 482.20 443.20 C 479.03 446.33 474.25 446.98 470.84 449.83 C 466.78 452.64 464.49 458.08 466.27 462.86 C 468.16 468.65 473.56 472.15 478.53 475.12 C 484.11 487.92 496.40 497.37 510.24 499.37 C 503.31 516.59 500.47 535.85 504.31 554.16 C 507.30 569.36 514.08 583.45 521.03 597.19 C 528.79 612.37 537.11 627.30 543.60 643.09 C 552.56 664.73 559.29 687.49 561.40 710.88 C 562.99 729.66 561.60 749.01 554.75 766.70 C 542.29 798.95 514.82 824.88 482.08 835.86 C 463.04 842.26 443.17 846.88 422.99 847.04 C 413.87 847.20 404.70 845.64 396.31 842.01 C 403.30 838.45 408.72 832.64 413.99 826.98 C 415.19 825.52 417.06 824.09 416.46 821.96 C 415.52 820.08 412.90 819.95 411.75 821.67 C 406.48 827.12 401.56 833.23 394.74 836.82 C 385.96 841.09 375.52 842.57 366.11 839.62 C 360.64 837.80 355.96 834.29 351.47 830.78 C 352.24 829.40 353.88 827.91 352.56 826.33 C 350.88 824.42 348.07 825.69 345.90 825.52 C 327.36 825.84 309.20 819.32 293.80 809.26 C 269.74 793.44 250.55 769.69 241.67 742.17 C 238.39 731.54 236.30 719.99 239.00 709.00 C 240.17 703.93 244.28 698.27 250.13 699.23 C 258.66 700.86 264.28 708.17 269.78 714.25 C 271.61 716.29 275.26 713.52 273.77 711.25 C 268.24 702.97 262.33 694.48 260.35 684.52 C 259.57 680.42 259.42 675.62 262.23 672.22 C 264.98 668.80 270.15 668.52 273.86 670.44 C 277.40 672.23 280.84 674.33 284.79 675.11 C 296.72 677.72 309.42 675.59 320.28 670.19 C 332.14 664.42 342.07 655.32 350.16 645.02 C 361.13 631.10 369.62 615.13 374.21 597.98 C 379.78 577.83 379.65 556.56 376.85 535.99 C 373.77 512.39 366.45 489.61 363.17 466.05 C 360.33 445.68 359.23 424.72 363.77 404.51 C 369.88 376.63 384.49 349.99 407.20 332.27 M 448.37 398.53 C 440.08 402.14 437.40 412.56 438.61 420.84 C 439.34 426.10 442.31 432.02 447.97 433.22 C 453.45 434.21 458.10 429.73 460.18 425.08 C 463.42 418.06 463.67 409.20 459.35 402.58 C 457.08 399.02 452.44 396.93 448.37 398.53 M 408.29 427.31 C 401.11 428.98 394.78 434.01 391.65 440.71 C 387.98 448.27 388.64 457.69 393.28 464.70 C 398.45 472.91 408.81 477.36 418.34 475.48 C 431.18 473.38 440.77 459.85 438.11 447.03 C 436.11 433.56 421.50 423.81 408.29 427.31 M 427.02 659.03 C 424.52 671.43 422.26 683.96 417.78 695.85 C 413.55 707.67 406.26 718.48 396.43 726.38 C 381.14 738.88 360.52 744.78 340.94 741.97 C 332.60 740.53 323.93 737.49 318.20 730.96 C 330.13 728.28 341.84 724.10 352.13 717.40 C 354.48 715.72 356.98 714.10 358.72 711.76 C 360.08 709.36 356.74 706.77 354.80 708.72 C 344.56 717.48 331.58 722.40 318.58 725.37 C 316.18 725.92 313.41 727.24 313.09 729.99 C 312.77 733.43 315.51 736.07 317.94 738.08 C 325.38 743.80 334.65 746.79 343.93 747.67 C 362.07 749.25 380.70 744.17 395.55 733.64 C 407.88 725.10 417.23 712.56 422.41 698.53 C 427.04 686.08 429.92 673.03 432.01 659.94 C 432.77 656.79 427.43 655.83 427.02 659.03 Z" />
<path fill="#fffdff" opacity="1.00" d=" M 610.36 584.23 C 618.57 577.46 630.22 573.85 640.54 577.62 C 647.56 580.08 651.94 586.78 654.55 593.41 C 658.96 605.17 659.08 618.20 656.70 630.42 C 654.65 641.18 649.12 651.70 639.86 657.92 C 634.26 661.79 626.91 664.13 620.25 661.77 C 614.69 659.92 610.79 653.73 612.11 647.93 C 612.75 644.93 615.17 642.79 616.30 640.02 C 616.66 638.17 614.85 636.33 613.01 636.58 C 608.36 636.75 602.72 637.59 599.31 633.64 C 596.53 630.56 597.78 625.99 599.98 622.97 C 602.72 618.62 607.21 615.95 611.39 613.18 C 617.96 613.31 624.60 611.64 630.25 608.27 C 631.66 607.55 632.96 605.57 631.71 604.14 C 630.99 602.73 629.02 602.84 627.90 603.63 C 622.06 606.76 615.10 609.06 608.49 607.22 C 604.84 606.27 602.15 602.84 602.07 599.07 C 601.52 592.94 605.87 587.81 610.36 584.23 Z" />
<path fill="#fffdff" opacity="1.00" d=" M 517.69 578.23 C 528.29 589.21 541.74 597.82 556.74 601.20 C 570.31 604.26 584.85 601.66 596.87 594.78 C 595.81 601.24 598.45 608.32 604.47 611.41 C 599.24 614.96 594.52 619.88 592.80 626.10 C 591.40 630.97 593.57 636.48 597.76 639.27 C 600.93 641.57 604.93 642.10 608.75 642.18 C 603.76 650.43 607.93 661.53 616.16 665.87 C 605.92 674.78 592.45 679.43 579.05 680.54 C 572.98 680.76 566.37 681.33 560.96 678.02 C 557.24 663.54 552.16 649.43 546.17 635.74 C 537.58 616.12 526.50 597.74 517.69 578.23 Z" />
</g>
<g id="#fab53cff">
<path fill="#fab53c" opacity="1.00" d=" M 511.55 413.71 C 516.24 412.55 521.29 413.88 525.00 416.91 C 532.68 423.02 537.27 431.94 543.94 439.00 C 551.83 447.46 561.28 454.96 572.46 458.49 C 576.54 460.02 581.45 461.21 583.81 465.26 C 585.58 468.12 584.14 471.72 581.87 473.83 C 577.66 477.85 571.96 479.78 566.43 481.20 C 553.18 484.34 539.41 483.18 526.00 481.89 C 514.00 480.55 502.05 478.32 490.58 474.50 C 484.37 472.23 477.93 469.60 473.32 464.69 C 471.17 462.48 470.09 458.74 472.00 456.06 C 475.75 451.07 483.26 451.09 486.80 445.85 C 492.54 437.32 494.70 426.55 502.12 419.11 C 504.73 416.55 507.96 414.54 511.55 413.71 M 507.33 442.40 C 505.94 443.27 505.92 445.58 507.29 446.48 C 509.39 447.16 511.69 447.20 513.69 448.21 C 516.19 449.67 517.65 452.33 520.03 453.95 C 522.15 454.63 524.39 452.02 522.92 450.14 C 519.69 445.16 513.52 440.32 507.33 442.40 Z" />
<path fill="#fab53c" opacity="1.00" d=" M 486.41 478.67 C 503.84 484.80 522.29 487.34 540.67 488.41 C 530.05 493.74 517.52 496.36 505.89 492.95 C 497.92 490.72 491.13 485.37 486.41 478.67 Z" />
<path fill="#fab53c" opacity="1.00" d=" M 463.15 846.92 C 473.01 844.41 482.79 841.51 492.22 837.67 C 492.13 848.13 490.43 858.61 491.56 869.05 C 492.38 876.63 496.93 883.73 503.79 887.21 C 514.02 892.54 525.76 893.43 536.90 895.65 C 545.71 897.27 554.58 898.92 563.02 902.01 C 566.20 903.34 569.83 904.77 571.52 908.01 C 571.96 909.70 569.63 909.84 568.61 910.47 C 565.15 911.74 560.91 912.34 558.74 915.68 C 556.38 919.12 558.31 923.27 558.23 927.05 C 558.21 928.76 556.70 930.11 555.04 930.16 C 548.05 930.94 542.06 925.60 535.11 926.26 C 529.93 927.28 529.35 933.64 525.44 936.33 C 521.65 939.02 516.67 938.37 512.41 937.44 C 500.12 934.41 488.42 929.05 477.98 921.91 C 471.33 917.31 465.16 911.22 462.80 903.27 C 460.69 896.31 462.90 889.12 463.53 882.12 C 464.64 870.41 463.98 858.61 463.15 846.92 M 512.23 905.17 C 510.30 905.94 510.46 908.86 512.30 909.67 C 519.86 913.86 528.32 916.90 537.05 916.92 C 539.94 917.30 540.79 912.61 537.94 912.01 C 531.17 911.27 524.34 910.06 518.26 906.81 C 516.35 906.16 514.28 904.25 512.23 905.17 Z" />
<path fill="#fab53c" opacity="1.00" d=" M 360.39 843.07 C 369.15 847.11 379.23 847.20 388.48 844.88 C 388.37 858.32 385.54 871.56 385.25 884.99 C 384.89 892.05 387.21 899.69 393.26 903.86 C 402.92 910.61 414.83 912.68 426.08 915.36 C 433.69 917.21 441.31 919.04 448.83 921.25 C 451.90 922.27 455.34 923.32 457.32 926.10 C 458.18 927.74 456.87 929.61 455.39 930.34 C 451.71 931.90 446.99 930.88 443.97 933.96 C 439.83 938.26 441.54 945.22 437.71 949.70 C 435.61 952.07 432.07 951.40 429.43 950.49 C 424.66 948.82 419.78 945.84 414.55 947.39 C 404.98 950.02 396.74 958.21 386.18 956.52 C 374.95 954.01 365.07 946.73 358.31 937.54 C 351.41 928.02 348.25 915.35 351.91 903.95 C 354.18 897.05 357.13 890.30 358.00 883.01 C 359.71 869.78 360.24 856.41 360.39 843.07 M 396.47 920.52 C 394.50 921.50 395.07 924.19 396.58 925.34 C 402.40 930.96 409.59 935.14 417.10 938.08 C 419.94 939.69 422.35 935.02 419.52 933.64 C 413.12 930.59 406.59 927.51 401.36 922.60 C 399.98 921.52 398.43 919.35 396.47 920.52 Z" />
</g>
<g id="#fad9cdff">
<path fill="#fad9cd" opacity="1.00" d=" M 408.29 427.31 C 421.50 423.81 436.11 433.56 438.11 447.03 C 440.77 459.85 431.18 473.38 418.34 475.48 C 408.81 477.36 398.45 472.91 393.28 464.70 C 388.64 457.69 387.98 448.27 391.65 440.71 C 394.78 434.01 401.11 428.98 408.29 427.31 Z" />
</g>
</svg>
