<?xml version="1.0" encoding="UTF-8" ?>
<!DOCTYPE svg PUBLIC "-//W3C//DTD SVG 1.1//EN" "http://www.w3.org/Graphics/SVG/1.1/DTD/svg11.dtd">
<svg width="1000pt" height="1000pt" viewBox="0 0 1000 1000" version="1.1" xmlns="http://www.w3.org/2000/svg">
<g id="#000000ff">
<path fill="#000000" opacity="1.00" d=" M 516.87 107.88 C 537.92 98.32 561.08 92.32 584.34 93.92 C 615.94 96.17 646.51 109.06 670.86 129.20 C 684.94 140.89 696.68 155.19 706.52 170.58 C 717.34 187.69 725.87 206.38 730.63 226.10 C 735.43 245.65 735.55 266.04 733.34 285.96 C 729.03 327.58 714.02 367.08 707.08 408.20 C 704.63 424.21 704.59 440.82 708.90 456.52 C 719.10 450.12 728.31 442.29 737.22 434.23 C 746.85 425.33 756.61 416.05 768.88 410.91 C 781.86 405.49 796.18 403.43 810.18 404.52 C 828.62 406.07 845.98 413.13 864.18 415.99 C 877.16 418.03 890.36 416.74 903.24 414.64 C 911.30 413.54 920.00 411.78 927.73 415.28 C 934.47 418.25 938.36 425.82 937.86 433.04 C 937.29 441.71 932.69 449.69 926.52 455.64 C 917.25 464.31 905.22 469.57 892.96 472.41 C 899.97 474.50 907.91 477.61 910.95 484.87 C 913.99 491.60 911.22 499.37 906.61 504.65 C 898.91 513.67 887.27 517.93 876.04 520.62 C 862.22 524.08 847.64 523.94 833.85 520.41 C 842.76 524.27 852.07 527.11 861.02 530.87 C 866.44 533.25 872.29 536.52 874.48 542.39 C 876.35 547.08 873.93 552.23 870.51 555.51 C 864.96 560.86 857.54 563.77 850.17 565.58 C 835.80 569.04 820.79 567.70 806.45 564.82 C 823.66 572.61 841.91 577.92 860.45 581.43 C 867.95 582.98 875.72 583.41 883.02 585.87 C 887.61 587.31 891.57 591.11 892.31 596.01 C 893.51 603.46 890.43 610.71 887.61 617.44 C 894.56 613.43 901.95 609.57 910.07 608.80 C 915.56 608.34 921.12 611.25 923.78 616.09 C 928.05 623.52 927.34 632.60 925.27 640.61 C 921.54 655.15 913.49 668.34 903.26 679.23 C 898.40 684.70 893.03 689.67 888.02 694.99 C 883.30 700.87 879.06 707.31 873.00 711.95 C 865.02 717.99 855.32 721.06 845.79 723.67 C 838.42 725.54 830.80 727.23 823.16 726.49 C 806.85 743.90 788.92 759.86 769.13 773.22 C 753.36 783.86 736.48 793.02 718.48 799.26 C 717.89 818.17 716.61 837.10 717.57 856.02 C 717.96 864.48 718.99 873.20 723.25 880.68 C 728.17 889.44 733.82 898.54 733.62 908.97 C 733.30 920.57 726.84 930.89 719.74 939.64 C 710.26 950.86 699.03 960.64 686.63 968.50 C 677.72 974.09 666.67 978.41 656.21 974.63 C 648.10 972.72 641.70 965.49 632.98 966.19 C 623.05 966.78 613.94 971.92 603.94 972.04 C 598.80 972.15 593.13 969.92 590.84 965.03 C 588.46 960.56 589.14 955.33 589.80 950.53 C 589.93 948.80 590.54 946.32 588.42 945.58 C 582.94 943.18 576.58 942.88 571.58 939.35 C 568.70 937.36 566.64 933.52 567.90 930.04 C 569.21 925.72 573.17 923.01 576.93 920.94 C 586.87 915.71 598.12 913.97 608.95 911.48 C 624.45 907.92 640.41 905.04 654.65 897.64 C 662.97 893.24 666.85 883.79 668.57 875.00 C 672.21 854.56 667.52 833.97 667.14 813.47 C 633.10 821.44 597.43 820.56 563.22 814.07 C 561.20 831.00 559.47 848.63 564.59 865.21 C 566.62 872.20 569.82 879.36 568.33 886.80 C 566.23 897.18 559.60 905.89 552.62 913.56 C 541.01 926.41 525.90 935.82 509.58 941.49 C 500.09 944.74 489.99 947.16 479.91 946.00 C 474.70 945.43 469.55 942.91 466.65 938.42 C 464.21 935.06 461.97 930.09 457.07 930.34 C 448.17 930.88 439.93 935.79 430.86 934.95 C 426.27 934.64 421.87 931.46 420.83 926.85 C 419.41 922.04 422.86 917.67 423.10 912.97 C 423.16 910.73 420.86 909.78 419.18 908.99 C 414.18 906.89 408.81 904.95 405.15 900.75 C 402.92 898.35 401.93 894.62 403.57 891.64 C 406.01 886.89 411.39 884.86 416.16 883.26 C 441.85 876.06 469.35 877.79 494.56 868.52 C 500.61 866.27 507.19 862.75 509.36 856.23 C 511.85 848.40 510.68 840.05 510.47 832.00 C 510.11 820.04 509.12 808.04 510.18 796.09 C 480.08 781.72 454.26 758.64 436.55 730.39 C 413.58 693.88 400.13 651.15 399.69 607.91 C 373.30 629.29 346.86 650.63 319.75 671.09 C 326.36 677.09 331.42 684.97 332.87 693.88 C 335.01 705.87 332.96 718.94 326.17 729.17 C 317.72 741.56 299.99 745.94 286.58 739.41 C 280.07 736.57 274.59 730.98 273.09 723.89 C 270.51 715.09 276.23 704.75 285.21 702.58 C 289.35 701.43 293.40 703.34 297.31 704.46 C 296.92 697.99 293.57 692.23 289.83 687.12 C 279.88 673.79 265.64 664.53 251.09 656.91 C 236.36 649.28 221.90 640.62 210.09 628.84 C 200.80 619.77 193.56 608.34 190.67 595.60 C 188.79 587.07 187.98 578.23 188.92 569.52 C 185.95 567.85 182.78 566.12 181.04 563.06 C 177.87 557.89 178.59 551.53 179.44 545.83 C 169.32 540.92 162.66 529.14 165.29 517.95 C 166.15 513.77 169.28 510.65 172.24 507.81 C 166.68 502.58 163.32 494.61 165.25 486.99 C 165.92 482.69 168.68 479.21 171.64 476.20 C 163.82 474.93 156.00 473.63 148.17 472.35 C 150.00 478.13 151.19 484.71 148.44 490.42 C 145.46 497.21 138.11 500.82 131.08 501.77 C 119.59 503.24 108.10 498.77 98.98 491.99 C 86.37 482.46 77.14 468.91 71.62 454.18 C 70.46 450.86 68.76 447.62 68.47 444.08 C 70.25 439.93 73.87 436.98 77.08 433.94 C 90.46 422.63 106.60 414.25 123.89 411.01 C 130.97 409.57 138.68 410.12 145.01 413.82 C 154.20 419.01 159.18 430.68 156.47 440.90 C 155.79 443.86 154.30 446.54 152.85 449.18 C 163.06 450.94 173.26 452.73 183.48 454.44 C 184.30 445.31 184.90 436.07 187.39 427.20 C 188.13 424.24 189.97 421.76 192.06 419.62 C 191.31 391.22 195.24 361.34 211.23 337.17 C 220.57 323.15 232.37 310.65 246.32 301.15 C 262.58 289.95 281.09 282.52 297.30 271.24 C 308.36 263.52 318.02 253.10 322.47 240.17 C 317.97 240.56 313.22 240.93 309.00 239.00 C 304.84 237.26 301.72 233.40 300.88 228.98 C 299.15 220.70 303.44 211.89 310.44 207.37 C 321.67 200.03 338.30 201.36 347.41 211.54 C 355.81 220.71 357.69 234.16 355.86 246.08 C 354.02 258.88 347.08 270.36 338.31 279.64 C 368.10 322.29 397.77 365.01 427.56 407.66 C 437.34 404.01 447.56 401.27 458.03 400.62 C 475.14 399.71 492.51 403.22 507.76 411.09 C 508.40 393.57 504.62 376.18 498.24 359.94 C 495.49 352.56 492.11 345.42 489.73 337.91 C 484.09 338.47 478.34 338.43 472.81 337.06 C 461.59 334.57 452.37 326.81 441.05 324.63 C 427.07 321.59 412.25 319.94 399.94 312.03 C 395.94 309.65 391.72 306.61 390.44 301.88 C 388.93 297.08 391.30 292.05 394.66 288.66 C 400.48 282.67 408.69 280.15 416.39 277.56 C 427.27 274.11 437.82 269.15 446.48 261.61 C 443.90 246.57 443.51 231.25 443.81 216.03 C 444.31 204.02 445.35 191.94 448.54 180.31 C 452.33 166.47 459.19 153.45 468.62 142.62 C 481.77 127.53 498.78 116.21 516.87 107.88 M 517.44 113.48 C 499.94 121.77 483.49 133.00 471.06 148.00 C 461.80 159.17 455.47 172.67 452.44 186.84 C 447.97 209.99 448.32 233.89 451.18 257.22 C 457.41 251.14 463.51 244.86 470.67 239.85 C 459.20 233.75 458.73 215.40 468.59 207.61 C 472.43 204.53 478.27 204.84 481.84 208.20 C 488.14 214.01 488.88 223.85 485.95 231.53 C 492.03 229.35 498.63 227.85 505.09 229.08 C 512.89 230.46 519.71 235.49 524.12 241.96 C 530.68 251.08 532.44 262.51 537.88 272.17 C 541.16 278.14 547.85 280.35 553.28 283.76 C 558.44 286.90 560.61 293.74 558.23 299.29 C 554.60 308.59 545.42 313.92 536.86 318.04 C 529.25 321.44 522.46 326.37 514.93 329.93 C 508.58 333.02 501.87 335.32 495.00 336.91 C 500.85 352.95 508.35 368.54 511.22 385.51 C 513.86 398.99 513.48 412.84 511.74 426.41 C 517.83 432.46 522.68 439.63 527.35 446.80 C 537.10 461.87 541.33 479.94 552.64 494.09 C 561.29 495.48 569.81 497.54 578.38 499.30 C 597.26 503.30 616.65 505.76 635.96 504.20 C 646.32 503.39 656.15 499.69 665.63 495.66 C 667.05 494.81 669.44 495.26 669.72 497.13 C 670.35 498.62 668.92 499.96 667.64 500.46 C 657.62 504.93 647.07 508.61 636.07 509.51 C 614.82 511.16 593.53 508.13 572.82 503.53 C 555.50 499.65 537.66 496.02 519.86 498.32 C 514.75 499.19 508.98 500.30 505.54 504.54 C 503.52 506.93 506.48 509.45 508.36 510.75 C 511.45 513.34 516.27 513.33 518.51 516.96 C 517.56 517.99 516.77 519.87 515.04 519.53 C 512.11 518.82 509.43 517.40 506.77 516.05 C 504.24 517.27 501.56 518.62 500.20 521.22 C 498.12 524.83 497.13 530.33 500.81 533.29 C 505.43 537.27 511.99 536.68 517.47 538.56 C 519.41 539.92 518.39 543.20 516.01 543.22 C 512.26 542.97 508.62 542.03 504.97 541.24 C 503.19 548.44 508.69 555.01 514.36 558.72 C 524.77 565.47 537.00 568.58 549.01 571.08 C 566.35 574.52 583.92 576.77 601.55 578.09 C 629.69 579.68 657.89 578.89 686.05 578.76 C 687.48 578.65 689.58 579.22 689.59 581.00 C 690.21 582.99 687.79 584.23 686.11 584.05 C 664.72 584.26 643.32 584.54 621.93 584.20 C 637.61 599.71 657.08 610.68 676.77 620.25 C 708.17 635.27 741.70 645.51 775.88 651.86 C 781.10 652.87 786.25 651.10 791.33 650.13 C 806.74 646.52 822.18 643.03 837.57 639.33 C 845.84 637.62 854.21 634.80 862.75 636.00 C 867.70 632.22 871.67 627.40 876.20 623.15 C 880.06 619.53 883.25 615.16 884.87 610.08 C 886.54 605.05 888.64 599.09 885.93 594.08 C 882.58 590.01 876.79 589.83 872.00 588.81 C 834.68 583.34 797.49 570.99 767.38 547.71 C 751.25 535.24 737.58 519.80 726.09 503.00 C 716.87 489.37 708.66 474.80 704.06 458.92 C 698.70 440.79 699.12 421.45 702.49 402.99 C 710.23 361.43 725.31 321.28 728.58 278.91 C 730.41 257.94 729.00 236.48 722.37 216.40 C 713.21 188.32 697.35 162.40 676.49 141.48 C 652.33 117.76 619.85 102.37 586.06 99.48 C 562.41 97.37 538.76 103.54 517.44 113.48 M 311.41 213.35 C 307.07 217.07 304.82 223.30 306.37 228.88 C 307.21 231.94 310.01 234.15 313.07 234.73 C 317.26 235.78 321.48 234.32 325.69 234.28 C 328.36 234.54 328.76 237.80 328.01 239.86 C 324.10 254.07 313.87 265.68 302.20 274.26 C 286.22 285.93 267.67 293.37 251.20 304.27 C 238.50 312.56 227.63 323.45 218.72 335.69 C 212.37 344.31 207.51 353.99 204.21 364.17 C 198.47 381.59 197.14 400.12 197.53 418.35 C 202.91 418.95 208.07 420.60 213.33 421.78 C 221.20 423.50 229.30 422.85 237.26 422.32 C 237.75 398.77 240.86 374.75 251.20 353.32 C 259.06 336.34 271.70 321.78 287.02 311.10 C 305.26 298.28 325.79 287.67 339.73 269.74 C 349.42 257.61 353.79 240.88 349.41 225.78 C 347.20 217.94 341.17 210.82 333.03 208.91 C 325.70 207.23 317.21 208.22 311.41 213.35 M 471.65 245.65 C 461.91 252.84 454.52 262.68 444.70 269.76 C 436.38 275.91 426.69 279.86 416.91 283.02 C 410.81 285.09 404.40 287.07 399.46 291.40 C 397.15 293.49 394.93 296.42 395.44 299.73 C 396.05 303.51 399.69 305.55 402.63 307.43 C 415.11 315.03 429.85 316.88 443.93 319.56 C 456.91 321.08 470.03 319.83 482.90 317.92 C 500.54 315.13 518.28 312.09 535.08 305.83 C 540.03 303.94 545.19 302.48 550.54 302.39 C 553.08 298.89 555.66 293.59 552.24 289.79 C 547.88 285.59 541.43 284.32 537.28 279.80 C 529.07 271.53 528.01 259.23 522.47 249.39 C 518.47 241.16 510.56 234.12 501.03 233.93 C 490.16 233.92 480.16 239.33 471.65 245.65 M 300.47 308.44 C 289.88 315.23 279.50 322.67 271.24 332.26 C 258.08 347.19 250.12 366.10 246.28 385.48 C 243.72 397.65 243.15 410.11 242.68 422.50 C 247.12 424.49 249.32 429.20 249.43 433.88 C 249.87 444.44 248.18 454.95 247.00 465.42 C 275.39 470.24 303.74 475.27 332.14 480.01 C 336.97 477.59 342.32 476.57 347.60 475.61 C 340.62 471.86 334.57 466.18 331.22 458.92 C 328.79 453.72 327.19 447.37 329.98 441.98 C 332.20 437.36 337.43 435.49 342.15 434.66 C 350.99 433.23 360.01 432.95 368.78 431.02 C 387.75 427.06 404.81 417.52 422.37 409.73 C 393.11 367.63 363.76 325.59 334.46 283.52 C 324.11 293.10 312.28 300.83 300.47 308.44 M 513.76 317.60 C 495.55 321.46 477.14 324.91 458.50 325.56 C 465.52 329.14 472.91 332.59 480.94 332.79 C 496.12 333.33 510.59 327.07 523.32 319.32 C 529.72 315.28 536.82 312.55 543.28 308.62 C 533.54 311.93 523.85 315.48 513.76 317.60 M 430.62 412.20 C 445.32 433.35 460.09 454.44 474.77 475.61 C 480.95 470.60 487.16 465.61 492.56 459.73 C 490.97 457.02 489.43 454.28 487.93 451.53 C 481.18 448.63 474.38 445.62 466.98 444.85 C 463.51 445.10 463.48 439.51 466.95 439.71 C 473.42 440.07 479.67 442.17 485.53 444.86 C 485.28 440.49 487.25 436.37 490.41 433.43 C 494.94 429.18 500.27 425.11 506.65 424.42 C 506.89 422.01 507.12 419.61 507.35 417.20 C 484.39 403.77 455.24 402.60 430.62 412.20 M 773.72 414.72 C 763.87 418.31 755.41 424.77 747.77 431.81 C 736.03 442.63 724.12 453.46 710.45 461.83 C 714.51 473.71 720.56 484.78 727.27 495.35 C 746.54 492.32 763.84 481.88 778.49 469.39 C 781.46 467.03 784.06 464.20 787.23 462.09 C 789.55 460.60 792.21 464.28 790.13 466.08 C 773.37 481.90 753.48 495.68 730.51 500.23 C 744.41 520.35 761.48 538.61 782.24 551.74 C 793.81 556.00 805.72 559.64 817.99 561.29 C 830.97 562.98 844.63 562.74 856.93 557.84 C 861.69 555.75 866.82 553.09 869.25 548.25 C 871.11 543.95 867.16 540.14 863.74 538.21 C 855.71 533.71 846.69 531.44 838.22 527.94 C 826.65 523.67 816.31 516.79 806.47 509.49 C 805.21 507.78 806.87 505.05 808.98 505.55 C 813.03 506.85 816.80 508.95 820.82 510.38 C 834.71 515.89 849.80 519.22 864.77 517.18 C 876.52 515.52 888.69 512.64 898.28 505.32 C 903.16 501.43 907.83 495.55 906.61 488.91 C 905.98 484.75 902.39 481.91 898.80 480.25 C 889.23 475.77 878.51 475.25 868.24 473.68 C 865.01 472.78 866.73 467.75 869.89 468.68 C 886.94 469.82 904.56 465.54 918.48 455.46 C 925.47 450.30 931.35 442.78 932.37 433.93 C 933.01 429.08 931.31 423.63 927.01 420.95 C 921.99 417.85 915.77 418.51 910.19 419.12 C 899.17 420.58 888.17 422.70 877.02 422.40 C 856.76 422.42 837.83 414.24 818.08 410.95 C 803.31 408.38 787.83 409.57 773.72 414.72 M 372.87 435.60 C 363.76 437.89 354.35 438.48 345.06 439.65 C 341.68 440.22 337.75 440.62 335.37 443.40 C 332.94 446.68 333.91 451.11 335.20 454.67 C 339.61 466.55 351.90 473.66 364.02 475.19 C 378.03 476.84 392.45 474.15 405.14 468.03 C 408.83 466.47 412.24 464.28 416.02 462.91 C 418.75 462.15 420.19 466.48 417.65 467.63 C 407.75 473.00 397.31 477.87 386.09 479.69 C 376.54 481.43 366.68 481.42 357.19 479.38 C 352.34 480.05 347.56 481.15 342.74 481.99 C 368.75 486.47 394.76 490.93 420.76 495.44 C 424.36 487.57 431.58 481.41 440.00 479.31 C 450.78 476.55 462.15 478.33 472.60 481.62 C 456.90 459.17 441.28 436.66 425.60 414.20 C 408.19 421.71 391.44 431.16 372.87 435.60 M 84.58 434.67 C 80.66 437.78 76.62 440.97 73.97 445.30 C 76.91 453.25 79.90 461.27 84.58 468.40 C 91.31 478.76 100.24 488.19 111.66 493.31 C 119.42 496.73 128.68 498.15 136.68 494.70 C 141.03 492.91 144.47 488.76 144.65 483.94 C 145.13 475.83 140.77 468.38 135.54 462.52 C 133.99 460.81 131.90 458.12 133.93 455.94 C 137.88 453.54 142.69 452.48 145.89 448.90 C 153.59 441.97 153.66 428.82 146.37 421.57 C 141.21 416.09 133.08 414.90 125.95 416.13 C 110.84 418.56 96.76 425.56 84.58 434.67 M 192.37 429.22 C 190.15 437.78 189.59 446.67 188.80 455.46 C 206.42 458.52 224.05 461.54 241.67 464.57 C 242.72 456.40 243.65 448.20 244.12 439.97 C 244.21 436.60 244.37 433.07 243.12 429.87 C 242.24 427.39 239.18 427.62 237.06 427.64 C 229.07 428.13 220.95 428.75 213.04 427.11 C 207.65 426.20 202.50 423.87 196.98 423.84 C 194.09 423.79 193.04 426.95 192.37 429.22 M 502.88 430.84 C 498.68 433.08 494.55 435.94 491.88 439.97 C 489.51 443.63 492.02 447.86 493.75 451.22 C 501.84 465.40 510.24 479.43 519.33 493.00 C 528.02 491.95 536.82 492.24 545.51 493.16 C 537.08 481.47 533.05 467.43 526.05 454.95 C 521.47 446.79 516.06 439.09 509.94 432.02 C 508.30 429.78 505.19 429.46 502.88 430.84 M 139.62 459.07 C 142.42 461.62 143.50 466.83 147.93 466.89 C 263.10 485.78 378.26 504.78 493.42 523.74 C 494.56 520.15 496.50 516.88 499.17 514.21 C 398.09 497.00 297.08 479.43 196.03 462.08 C 180.28 459.18 164.38 457.02 148.73 453.62 C 145.93 455.80 142.87 457.64 139.62 459.07 M 477.60 479.71 C 479.32 481.80 480.40 484.69 483.02 485.86 C 490.35 489.42 497.73 493.13 503.88 498.58 C 506.89 496.56 510.23 495.11 513.71 494.09 C 507.34 484.36 501.20 474.47 495.31 464.44 C 489.92 470.08 483.99 475.22 477.60 479.71 M 174.32 481.20 C 169.32 485.78 168.91 493.93 172.36 499.55 C 175.07 504.13 179.82 506.96 184.46 509.28 C 191.23 512.49 198.58 514.97 206.14 514.95 C 209.21 515.00 212.68 513.86 214.05 510.87 C 216.17 506.27 215.12 500.76 212.66 496.51 C 209.24 490.65 202.90 487.30 196.71 485.09 C 189.50 482.72 181.96 480.97 174.32 481.20 M 200.36 480.74 C 206.50 483.36 212.64 486.88 216.41 492.59 C 220.44 498.61 222.01 506.88 218.60 513.54 C 217.40 516.05 215.03 517.62 212.80 519.11 C 220.10 526.69 220.11 541.05 211.00 547.18 C 203.06 552.22 192.97 550.53 184.49 547.89 C 184.07 552.76 183.10 558.97 187.49 562.41 C 194.00 567.01 202.33 567.60 210.03 568.19 C 216.96 568.31 224.35 568.73 230.79 565.72 C 234.47 564.04 234.30 559.47 234.41 556.06 C 234.35 545.10 234.30 534.11 235.64 523.21 C 237.12 511.28 239.29 499.45 241.24 487.59 C 227.63 485.25 213.95 483.24 200.36 480.74 M 443.72 483.88 C 436.25 484.97 429.81 489.84 426.03 496.28 C 447.53 500.10 469.05 503.72 490.56 507.44 C 486.20 501.48 482.38 495.08 477.69 489.38 C 467.22 484.49 455.23 482.13 443.72 483.88 M 246.47 488.44 C 245.71 492.98 244.91 497.52 244.19 502.08 C 248.64 498.79 252.54 494.77 255.22 489.89 C 252.30 489.39 249.38 488.91 246.47 488.44 M 242.98 509.36 C 239.81 526.09 239.48 543.13 239.58 560.10 C 248.40 561.79 257.18 563.75 266.05 565.21 C 296.10 570.46 326.94 570.76 357.16 566.79 C 374.35 564.63 391.46 560.90 407.41 553.99 C 410.46 546.36 414.16 538.97 418.68 532.11 C 416.18 527.21 414.46 521.74 415.19 516.20 C 363.67 507.73 312.15 499.28 260.65 490.74 C 256.98 498.74 250.16 504.57 242.98 509.36 M 487.71 494.10 C 490.98 498.92 494.46 503.59 497.57 508.51 C 498.11 508.69 499.21 509.05 499.75 509.23 C 499.58 506.94 499.77 504.66 500.26 502.42 C 496.45 499.12 492.17 496.43 487.71 494.10 M 170.52 519.12 C 169.26 524.78 170.99 530.90 174.60 535.37 C 178.82 540.34 185.18 542.87 191.39 544.30 C 196.84 545.37 203.02 545.92 207.96 542.89 C 212.90 539.78 213.52 532.96 212.04 527.81 C 211.20 524.64 208.42 522.73 206.37 520.40 C 195.83 520.06 185.66 516.38 176.68 511.02 C 174.25 513.36 171.28 515.64 170.52 519.12 M 420.25 517.10 C 420.13 522.83 421.88 528.83 426.11 532.86 C 431.03 537.84 437.88 540.39 444.73 541.20 C 460.81 543.19 477.30 538.18 490.23 528.58 C 466.91 524.75 443.60 520.83 420.25 517.10 M 405.11 603.46 C 404.81 629.77 409.45 656.06 418.31 680.81 C 429.71 712.03 446.83 741.89 471.90 764.14 C 494.12 784.43 521.97 797.57 550.78 805.55 C 569.73 810.77 589.38 813.03 608.98 813.65 C 629.37 814.23 649.90 812.37 669.69 807.34 C 651.84 806.21 633.49 800.00 621.03 786.71 C 618.87 784.12 623.32 780.98 625.21 783.74 C 632.90 791.08 642.41 796.47 652.69 799.22 C 668.36 803.50 685.01 802.52 700.71 798.90 C 718.28 794.82 734.96 787.51 750.57 778.56 C 775.58 764.15 797.90 745.42 817.72 724.51 C 808.51 719.91 801.91 711.47 797.30 702.47 C 779.96 700.47 762.80 696.93 746.08 691.89 C 739.04 689.76 731.88 687.96 725.08 685.12 C 701.24 675.53 678.72 662.89 657.47 648.49 C 629.08 629.08 602.64 606.68 579.46 581.24 C 566.91 579.69 554.38 577.78 542.04 574.97 C 531.04 572.38 519.95 568.94 510.55 562.48 C 502.87 557.30 497.54 547.97 498.84 538.56 C 497.21 537.12 495.71 535.56 494.33 533.90 C 463.99 556.31 434.47 579.80 405.11 603.46 M 409.38 565.20 C 406.81 575.45 405.71 586.02 405.27 596.56 C 427.56 578.63 449.97 560.83 472.74 543.51 C 462.53 546.80 451.49 547.91 440.91 545.93 C 433.84 544.72 427.23 541.36 422.08 536.38 C 416.68 545.40 411.93 554.95 409.38 565.20 M 372.70 569.80 C 349.07 574.05 324.96 575.75 300.98 574.54 C 279.89 573.65 259.14 569.63 238.53 565.33 C 237.69 566.45 236.83 567.55 235.97 568.66 C 237.12 582.41 241.72 595.63 248.26 607.71 C 255.43 621.47 265.79 633.45 278.11 642.85 C 289.85 652.18 303.37 658.88 315.46 667.70 C 343.94 645.96 371.91 623.56 399.71 600.96 C 400.05 587.41 401.35 573.78 405.04 560.69 C 394.62 564.88 383.73 567.79 372.70 569.80 M 194.08 571.26 C 193.62 579.67 194.26 588.20 196.38 596.37 C 199.07 606.71 205.00 615.96 212.39 623.58 C 223.78 635.41 237.94 644.06 252.41 651.58 C 266.41 658.88 280.11 667.43 290.52 679.49 C 295.84 685.72 300.72 692.83 302.33 701.00 C 303.01 704.14 302.48 708.71 298.82 709.67 C 294.72 710.36 291.06 707.17 286.97 707.69 C 282.12 708.55 278.52 713.13 277.96 717.89 C 277.47 723.20 279.92 728.68 284.23 731.83 C 293.11 738.55 306.28 738.71 315.43 732.42 C 321.25 728.55 324.84 722.13 326.58 715.50 C 329.03 706.17 329.09 695.86 325.16 686.92 C 321.25 678.28 313.38 672.40 305.66 667.36 C 295.67 661.07 285.42 655.15 276.03 647.97 C 264.85 639.55 255.01 629.26 247.65 617.32 C 239.11 603.39 232.69 587.91 230.84 571.58 C 218.86 574.85 206.08 573.91 194.08 571.26 M 587.24 582.10 C 621.58 617.95 661.55 648.75 706.06 670.91 C 719.15 677.69 733.17 682.30 747.19 686.72 C 762.80 691.44 778.81 694.83 794.99 696.87 C 790.21 684.05 787.74 670.42 781.68 658.08 C 769.90 656.62 758.34 653.93 746.86 651.00 C 718.57 643.60 690.91 633.57 664.91 620.15 C 650.40 612.56 636.27 603.99 623.91 593.19 C 620.28 590.13 617.37 586.23 613.22 583.83 C 604.54 583.70 595.88 582.97 587.24 582.10 M 903.00 615.87 C 889.93 620.71 878.99 629.69 868.17 638.23 C 873.16 641.71 877.32 646.23 881.03 651.02 C 887.58 659.89 893.96 670.01 893.95 681.41 C 906.75 668.66 917.89 653.15 920.98 634.97 C 921.87 628.78 922.06 621.42 917.47 616.55 C 913.55 612.79 907.56 614.30 903.00 615.87 M 836.87 644.92 C 820.22 648.95 803.49 652.62 786.85 656.63 C 790.29 664.14 792.90 672.00 795.08 679.96 C 798.26 690.36 801.10 701.31 808.21 709.84 C 812.83 715.60 819.21 721.15 826.98 721.29 C 835.84 721.06 844.48 718.67 852.88 716.00 C 860.33 713.51 867.84 710.23 873.38 704.47 C 877.65 699.98 881.45 695.04 884.82 689.85 C 887.23 686.08 889.41 681.63 888.38 677.04 C 886.63 668.28 881.69 660.55 876.34 653.56 C 873.09 649.57 869.68 645.56 865.32 642.76 C 861.94 640.55 857.69 640.86 853.88 641.34 C 848.14 642.19 842.51 643.61 836.87 644.92 M 515.36 798.41 C 514.51 813.95 516.13 829.48 516.34 845.01 C 516.24 852.05 515.17 859.76 510.15 865.11 C 504.20 871.36 495.66 874.03 487.59 876.35 C 469.43 881.54 450.43 882.01 431.92 885.32 C 424.85 886.65 417.42 887.55 411.11 891.24 C 409.41 892.25 407.12 894.40 408.62 896.50 C 412.21 901.41 418.65 902.46 423.69 905.29 C 426.78 906.94 428.87 910.44 428.52 913.99 C 428.13 917.45 426.33 920.56 425.89 924.02 C 425.64 926.69 427.80 929.13 430.42 929.46 C 440.24 930.73 449.17 924.26 458.94 925.06 C 464.92 925.73 468.24 931.19 471.28 935.72 C 474.48 940.50 480.82 941.01 486.06 940.91 C 498.29 940.42 510.05 936.21 520.95 930.89 C 535.07 923.91 547.30 913.25 556.42 900.43 C 560.68 894.18 564.49 886.67 562.93 878.89 C 561.39 871.40 558.17 864.35 557.07 856.75 C 554.74 842.19 556.14 827.36 557.94 812.82 C 543.33 809.40 529.06 804.53 515.36 798.41 M 683.58 807.04 C 680.28 809.65 676.07 810.50 672.20 811.88 C 673.06 818.39 672.83 824.99 673.69 831.51 C 675.04 847.13 676.83 863.11 673.29 878.57 C 671.01 887.97 666.17 897.57 657.30 902.26 C 641.60 910.50 623.93 913.49 606.83 917.44 C 596.47 919.84 585.50 921.48 576.48 927.48 C 574.43 928.87 571.52 931.78 573.78 934.24 C 579.45 939.24 588.60 937.52 593.81 943.21 C 597.76 949.01 592.49 956.31 595.49 962.46 C 597.09 966.02 601.46 966.87 604.98 966.65 C 615.20 965.87 624.62 960.56 634.97 960.72 C 644.18 960.99 650.99 968.42 659.85 970.07 C 669.41 972.44 678.59 967.34 686.38 962.37 C 698.29 954.23 709.27 944.51 718.12 933.09 C 724.08 925.03 729.49 915.29 727.95 904.91 C 726.52 893.82 718.29 885.42 715.02 875.00 C 712.58 867.27 712.25 859.09 711.95 851.06 C 711.68 834.37 712.14 817.67 713.18 801.01 C 703.54 803.99 693.62 806.04 683.58 807.04 Z" />
<path fill="#000000" opacity="1.00" d=" M 582.37 218.67 C 588.03 216.74 594.17 219.85 597.40 224.57 C 603.29 233.04 603.46 245.17 597.85 253.83 C 594.98 258.31 589.62 261.60 584.19 260.59 C 578.83 259.65 574.73 255.32 572.61 250.51 C 569.45 243.37 569.39 234.78 572.80 227.71 C 574.72 223.68 578.01 220.06 582.37 218.67 Z" />
<path fill="#000000" opacity="1.00" d=" M 501.44 267.76 C 504.25 267.18 507.09 266.57 509.98 266.51 C 512.42 266.46 513.38 269.96 511.30 271.19 C 507.76 272.38 503.92 272.33 500.36 273.49 C 495.34 274.93 491.03 277.99 487.14 281.38 C 485.01 283.41 481.76 279.91 483.73 277.83 C 488.27 272.64 494.80 269.37 501.44 267.76 Z" />
<path fill="#000000" opacity="1.00" d=" M 498.59 895.53 C 501.53 893.54 504.36 898.59 501.01 900.01 C 488.30 906.88 474.47 912.41 459.91 913.33 C 457.90 913.81 456.06 912.04 456.55 910.03 C 457.75 907.60 460.88 908.21 463.09 907.70 C 475.70 906.43 487.36 901.08 498.59 895.53 Z" />
<path fill="#000000" opacity="1.00" d=" M 663.32 921.15 C 665.00 920.04 667.51 921.96 666.87 923.88 C 666.61 925.37 664.96 926.01 663.92 926.92 C 653.04 934.14 641.05 940.60 627.93 942.25 C 624.89 942.67 624.11 937.65 627.20 937.30 C 640.44 935.10 652.27 928.43 663.32 921.15 Z" />
</g>
<g id="#ffffffff">
<path fill="#ffffff" opacity="1.00" d=" M 517.44 113.48 C 538.76 103.54 562.41 97.37 586.06 99.48 C 619.85 102.37 652.33 117.76 676.49 141.48 C 697.35 162.40 713.21 188.32 722.37 216.40 C 729.00 236.48 730.41 257.94 728.58 278.91 C 725.31 321.28 710.23 361.43 702.49 402.99 C 699.12 421.45 698.70 440.79 704.06 458.92 C 708.66 474.80 716.87 489.37 726.09 503.00 C 737.58 519.80 751.25 535.24 767.38 547.71 C 797.49 570.99 834.68 583.34 872.00 588.81 C 876.79 589.83 882.58 590.01 885.93 594.08 C 888.64 599.09 886.54 605.05 884.87 610.08 C 883.25 615.16 880.06 619.53 876.20 623.15 C 871.67 627.40 867.70 632.22 862.75 636.00 C 854.21 634.80 845.84 637.62 837.57 639.33 C 822.18 643.03 806.74 646.52 791.33 650.13 C 786.25 651.10 781.10 652.87 775.88 651.86 C 741.70 645.51 708.17 635.27 676.77 620.25 C 657.08 610.68 637.61 599.71 621.93 584.20 C 643.32 584.54 664.72 584.26 686.11 584.05 C 687.79 584.23 690.21 582.99 689.59 581.00 C 689.58 579.22 687.48 578.65 686.05 578.76 C 657.89 578.89 629.69 579.68 601.55 578.09 C 583.92 576.77 566.35 574.52 549.01 571.08 C 537.00 568.58 524.77 565.47 514.36 558.72 C 508.69 555.01 503.19 548.44 504.97 541.24 C 508.62 542.03 512.26 542.97 516.01 543.22 C 518.39 543.20 519.41 539.92 517.47 538.56 C 511.99 536.68 505.43 537.27 500.81 533.29 C 497.13 530.33 498.12 524.83 500.20 521.22 C 501.56 518.62 504.24 517.27 506.77 516.05 C 509.43 517.40 512.11 518.82 515.04 519.53 C 516.77 519.87 517.56 517.99 518.51 516.96 C 516.27 513.33 511.45 513.34 508.36 510.75 C 506.48 509.45 503.52 506.93 505.54 504.54 C 508.98 500.30 514.75 499.19 519.86 498.32 C 537.66 496.02 555.50 499.65 572.82 503.53 C 593.53 508.13 614.82 511.16 636.07 509.51 C 647.07 508.61 657.62 504.93 667.64 500.46 C 668.92 499.96 670.35 498.62 669.72 497.13 C 669.44 495.26 667.05 494.81 665.63 495.66 C 656.15 499.69 646.32 503.39 635.96 504.20 C 616.65 505.76 597.26 503.30 578.38 499.30 C 569.81 497.54 561.29 495.48 552.64 494.09 C 541.33 479.94 537.10 461.87 527.35 446.80 C 522.68 439.63 517.83 432.46 511.74 426.41 C 513.48 412.84 513.86 398.99 511.22 385.51 C 508.35 368.54 500.85 352.95 495.00 336.91 C 501.87 335.32 508.58 333.02 514.93 329.93 C 522.46 326.37 529.25 321.44 536.86 318.04 C 545.42 313.92 554.60 308.59 558.23 299.29 C 560.61 293.74 558.44 286.90 553.28 283.76 C 547.85 280.35 541.16 278.14 537.88 272.17 C 532.44 262.51 530.68 251.08 524.12 241.96 C 519.71 235.49 512.89 230.46 505.09 229.08 C 498.63 227.85 492.03 229.35 485.95 231.53 C 488.88 223.85 488.14 214.01 481.84 208.20 C 478.27 204.84 472.43 204.53 468.59 207.61 C 458.73 215.40 459.20 233.75 470.67 239.85 C 463.51 244.86 457.41 251.14 451.18 257.22 C 448.32 233.89 447.97 209.99 452.44 186.84 C 455.47 172.67 461.80 159.17 471.06 148.00 C 483.49 133.00 499.94 121.77 517.44 113.48 M 582.37 218.67 C 578.01 220.06 574.72 223.68 572.80 227.71 C 569.39 234.78 569.45 243.37 572.61 250.51 C 574.73 255.32 578.83 259.65 584.19 260.59 C 589.62 261.60 594.98 258.31 597.85 253.83 C 603.46 245.17 603.29 233.04 597.40 224.57 C 594.17 219.85 588.03 216.74 582.37 218.67 M 625.43 255.49 C 616.25 255.93 607.39 260.53 601.74 267.77 C 595.71 275.52 593.62 286.18 596.29 295.64 C 598.59 304.16 604.66 311.57 612.56 315.52 C 621.45 320.11 632.55 320.08 641.41 315.41 C 654.30 309.04 661.46 293.22 657.61 279.34 C 654.21 265.12 640.02 254.61 625.43 255.49 Z" />
<path fill="#ffffff" opacity="1.00" d=" M 477.60 479.71 C 483.99 475.22 489.92 470.08 495.31 464.44 C 501.20 474.47 507.34 484.36 513.71 494.09 C 510.23 495.11 506.89 496.56 503.88 498.58 C 497.73 493.13 490.35 489.42 483.02 485.86 C 480.40 484.69 479.32 481.80 477.60 479.71 Z" />
<path fill="#ffffff" opacity="1.00" d=" M 174.32 481.20 C 181.96 480.97 189.50 482.72 196.71 485.09 C 202.90 487.30 209.24 490.65 212.66 496.51 C 215.12 500.76 216.17 506.27 214.05 510.87 C 212.68 513.86 209.21 515.00 206.14 514.95 C 198.58 514.97 191.23 512.49 184.46 509.28 C 179.82 506.96 175.07 504.13 172.36 499.55 C 168.91 493.93 169.32 485.78 174.32 481.20 Z" />
<path fill="#ffffff" opacity="1.00" d=" M 246.47 488.44 C 249.38 488.91 252.30 489.39 255.22 489.89 C 252.54 494.77 248.64 498.79 244.19 502.08 C 244.91 497.52 245.71 492.98 246.47 488.44 Z" />
<path fill="#ffffff" opacity="1.00" d=" M 242.98 509.36 C 250.16 504.57 256.98 498.74 260.65 490.74 C 312.15 499.28 363.67 507.73 415.19 516.20 C 414.46 521.74 416.18 527.21 418.68 532.11 C 414.16 538.97 410.46 546.36 407.41 553.99 C 391.46 560.90 374.35 564.63 357.16 566.79 C 326.94 570.76 296.10 570.46 266.05 565.21 C 257.18 563.75 248.40 561.79 239.58 560.10 C 239.48 543.13 239.81 526.09 242.98 509.36 Z" />
<path fill="#ffffff" opacity="1.00" d=" M 170.52 519.12 C 171.28 515.64 174.25 513.36 176.68 511.02 C 185.66 516.38 195.83 520.06 206.37 520.40 C 208.42 522.73 211.20 524.64 212.04 527.81 C 213.52 532.96 212.90 539.78 207.96 542.89 C 203.02 545.92 196.84 545.37 191.39 544.30 C 185.18 542.87 178.82 540.34 174.60 535.37 C 170.99 530.90 169.26 524.78 170.52 519.12 Z" />
<path fill="#ffffff" opacity="1.00" d=" M 405.11 603.46 C 434.47 579.80 463.99 556.31 494.33 533.90 C 495.71 535.56 497.21 537.12 498.84 538.56 C 497.54 547.97 502.87 557.30 510.55 562.48 C 519.95 568.94 531.04 572.38 542.04 574.97 C 554.38 577.78 566.91 579.69 579.46 581.24 C 602.64 606.68 629.08 629.08 657.47 648.49 C 678.72 662.89 701.24 675.53 725.08 685.12 C 731.88 687.96 739.04 689.76 746.08 691.89 C 762.80 696.93 779.96 700.47 797.30 702.47 C 801.91 711.47 808.51 719.91 817.72 724.51 C 797.90 745.42 775.58 764.15 750.57 778.56 C 734.96 787.51 718.28 794.82 700.71 798.90 C 685.01 802.52 668.36 803.50 652.69 799.22 C 642.41 796.47 632.90 791.08 625.21 783.74 C 623.32 780.98 618.87 784.12 621.03 786.71 C 633.49 800.00 651.84 806.21 669.69 807.34 C 649.90 812.37 629.37 814.23 608.98 813.65 C 589.38 813.03 569.73 810.77 550.78 805.55 C 521.97 797.57 494.12 784.43 471.90 764.14 C 446.83 741.89 429.71 712.03 418.31 680.81 C 409.45 656.06 404.81 629.77 405.11 603.46 Z" />
<path fill="#ffffff" opacity="1.00" d=" M 409.38 565.20 C 411.93 554.95 416.68 545.40 422.08 536.38 C 427.23 541.36 433.84 544.72 440.91 545.93 C 451.49 547.91 462.53 546.80 472.74 543.51 C 449.97 560.83 427.56 578.63 405.27 596.56 C 405.71 586.02 406.81 575.45 409.38 565.20 Z" />
<path fill="#ffffff" opacity="1.00" d=" M 903.00 615.87 C 907.56 614.30 913.55 612.79 917.47 616.55 C 922.06 621.42 921.87 628.78 920.98 634.97 C 917.89 653.15 906.75 668.66 893.95 681.41 C 893.96 670.01 887.58 659.89 881.03 651.02 C 877.32 646.23 873.16 641.71 868.17 638.23 C 878.99 629.69 889.93 620.71 903.00 615.87 Z" />
</g>
<g id="#ad6539ff">
<path fill="#ad6539" opacity="1.00" d=" M 311.41 213.35 C 317.21 208.22 325.70 207.23 333.03 208.91 C 341.17 210.82 347.20 217.94 349.41 225.78 C 353.79 240.88 349.42 257.61 339.73 269.74 C 325.79 287.67 305.26 298.28 287.02 311.10 C 271.70 321.78 259.06 336.34 251.20 353.32 C 240.86 374.75 237.75 398.77 237.26 422.32 C 229.30 422.85 221.20 423.50 213.33 421.78 C 208.07 420.60 202.91 418.95 197.53 418.35 C 197.14 400.12 198.47 381.59 204.21 364.17 C 207.51 353.99 212.37 344.31 218.72 335.69 C 227.63 323.45 238.50 312.56 251.20 304.27 C 267.67 293.37 286.22 285.93 302.20 274.26 C 313.87 265.68 324.10 254.07 328.01 239.86 C 328.76 237.80 328.36 234.54 325.69 234.28 C 321.48 234.32 317.26 235.78 313.07 234.73 C 310.01 234.15 307.21 231.94 306.37 228.88 C 304.82 223.30 307.07 217.07 311.41 213.35 Z" />
<path fill="#ad6539" opacity="1.00" d=" M 194.08 571.26 C 206.08 573.91 218.86 574.85 230.84 571.58 C 232.69 587.91 239.11 603.39 247.65 617.32 C 255.01 629.26 264.85 639.55 276.03 647.97 C 285.42 655.15 295.67 661.07 305.66 667.36 C 313.38 672.40 321.25 678.28 325.16 686.92 C 329.09 695.86 329.03 706.17 326.58 715.50 C 324.84 722.13 321.25 728.55 315.43 732.42 C 306.28 738.71 293.11 738.55 284.23 731.83 C 279.92 728.68 277.47 723.20 277.96 717.89 C 278.52 713.13 282.12 708.55 286.97 707.69 C 291.06 707.17 294.72 710.36 298.82 709.67 C 302.48 708.71 303.01 704.14 302.33 701.00 C 300.72 692.83 295.84 685.72 290.52 679.49 C 280.11 667.43 266.41 658.88 252.41 651.58 C 237.94 644.06 223.78 635.41 212.39 623.58 C 205.00 615.96 199.07 606.71 196.38 596.37 C 194.26 588.20 193.62 579.67 194.08 571.26 Z" />
</g>
<g id="#f1b856ff">
<path fill="#f1b856" opacity="1.00" d=" M 471.65 245.65 C 480.16 239.33 490.16 233.92 501.03 233.93 C 510.56 234.12 518.47 241.16 522.47 249.39 C 528.01 259.23 529.07 271.53 537.28 279.80 C 541.43 284.32 547.88 285.59 552.24 289.79 C 555.66 293.59 553.08 298.89 550.54 302.39 C 545.19 302.48 540.03 303.94 535.08 305.83 C 518.28 312.09 500.54 315.13 482.90 317.92 C 470.03 319.83 456.91 321.08 443.93 319.56 C 429.85 316.88 415.11 315.03 402.63 307.43 C 399.69 305.55 396.05 303.51 395.44 299.73 C 394.93 296.42 397.15 293.49 399.46 291.40 C 404.40 287.07 410.81 285.09 416.91 283.02 C 426.69 279.86 436.38 275.91 444.70 269.76 C 454.52 262.68 461.91 252.84 471.65 245.65 M 501.44 267.76 C 494.80 269.37 488.27 272.64 483.73 277.83 C 481.76 279.91 485.01 283.41 487.14 281.38 C 491.03 277.99 495.34 274.93 500.36 273.49 C 503.92 272.33 507.76 272.38 511.30 271.19 C 513.38 269.96 512.42 266.46 509.98 266.51 C 507.09 266.57 504.25 267.18 501.44 267.76 Z" />
<path fill="#f1b856" opacity="1.00" d=" M 513.76 317.60 C 523.85 315.48 533.54 311.93 543.28 308.62 C 536.82 312.55 529.72 315.28 523.32 319.32 C 510.59 327.07 496.12 333.33 480.94 332.79 C 472.91 332.59 465.52 329.14 458.50 325.56 C 477.14 324.91 495.55 321.46 513.76 317.60 Z" />
<path fill="#f1b856" opacity="1.00" d=" M 139.62 459.07 C 142.87 457.64 145.93 455.80 148.73 453.62 C 164.38 457.02 180.28 459.18 196.03 462.08 C 297.08 479.43 398.09 497.00 499.17 514.21 C 496.50 516.88 494.56 520.15 493.42 523.74 C 378.26 504.78 263.10 485.78 147.93 466.89 C 143.50 466.83 142.42 461.62 139.62 459.07 Z" />
<path fill="#f1b856" opacity="1.00" d=" M 515.36 798.41 C 529.06 804.53 543.33 809.40 557.94 812.82 C 556.14 827.36 554.74 842.19 557.07 856.75 C 558.17 864.35 561.39 871.40 562.93 878.89 C 564.49 886.67 560.68 894.18 556.42 900.43 C 547.30 913.25 535.07 923.91 520.95 930.89 C 510.05 936.21 498.29 940.42 486.06 940.91 C 480.82 941.01 474.48 940.50 471.28 935.72 C 468.24 931.19 464.92 925.73 458.94 925.06 C 449.17 924.26 440.24 930.73 430.42 929.46 C 427.80 929.13 425.64 926.69 425.89 924.02 C 426.33 920.56 428.13 917.45 428.52 913.99 C 428.87 910.44 426.78 906.94 423.69 905.29 C 418.65 902.46 412.21 901.41 408.62 896.50 C 407.12 894.40 409.41 892.25 411.11 891.24 C 417.42 887.55 424.85 886.65 431.92 885.32 C 450.43 882.01 469.43 881.54 487.59 876.35 C 495.66 874.03 504.20 871.36 510.15 865.11 C 515.17 859.76 516.24 852.05 516.34 845.01 C 516.13 829.48 514.51 813.95 515.36 798.41 M 498.59 895.53 C 487.36 901.08 475.70 906.43 463.09 907.70 C 460.88 908.21 457.75 907.60 456.55 910.03 C 456.06 912.04 457.90 913.81 459.91 913.33 C 474.47 912.41 488.30 906.88 501.01 900.01 C 504.36 898.59 501.53 893.54 498.59 895.53 Z" />
<path fill="#f1b856" opacity="1.00" d=" M 683.58 807.04 C 693.62 806.04 703.54 803.99 713.18 801.01 C 712.14 817.67 711.68 834.37 711.95 851.06 C 712.25 859.09 712.58 867.27 715.02 875.00 C 718.29 885.42 726.52 893.82 727.95 904.91 C 729.49 915.29 724.08 925.03 718.12 933.09 C 709.27 944.51 698.29 954.23 686.38 962.37 C 678.59 967.34 669.41 972.44 659.85 970.07 C 650.99 968.42 644.18 960.99 634.97 960.72 C 624.62 960.56 615.20 965.87 604.98 966.65 C 601.46 966.87 597.09 966.02 595.49 962.46 C 592.49 956.31 597.76 949.01 593.81 943.21 C 588.60 937.52 579.45 939.24 573.78 934.24 C 571.52 931.78 574.43 928.87 576.48 927.48 C 585.50 921.48 596.47 919.84 606.83 917.44 C 623.93 913.49 641.60 910.50 657.30 902.26 C 666.17 897.57 671.01 887.97 673.29 878.57 C 676.83 863.11 675.04 847.13 673.69 831.51 C 672.83 824.99 673.06 818.39 672.20 811.88 C 676.07 810.50 680.28 809.65 683.58 807.04 M 663.32 921.15 C 652.27 928.43 640.44 935.10 627.20 937.30 C 624.11 937.65 624.89 942.67 627.93 942.25 C 641.05 940.60 653.04 934.14 663.92 926.92 C 664.96 926.01 666.61 925.37 666.87 923.88 C 667.51 921.96 665.00 920.04 663.32 921.15 Z" />
</g>
<g id="#f9d7d4ff">
<path fill="#f9d7d4" opacity="1.00" d=" M 625.43 255.49 C 640.02 254.61 654.21 265.12 657.61 279.34 C 661.46 293.22 654.30 309.04 641.41 315.41 C 632.55 320.08 621.45 320.11 612.56 315.52 C 604.66 311.57 598.59 304.16 596.29 295.64 C 593.62 286.18 595.71 275.52 601.74 267.77 C 607.39 260.53 616.25 255.93 625.43 255.49 Z" />
</g>
<g id="#dfeefdff">
<path fill="#dfeefd" opacity="1.00" d=" M 430.62 412.20 C 455.24 402.60 484.39 403.77 507.35 417.20 C 507.12 419.61 506.89 422.01 506.65 424.42 C 500.27 425.11 494.94 429.18 490.41 433.43 C 487.25 436.37 485.28 440.49 485.53 444.86 C 479.67 442.17 473.42 440.07 466.95 439.71 C 463.48 439.51 463.51 445.10 466.98 444.85 C 474.38 445.62 481.18 448.63 487.93 451.53 C 489.43 454.28 490.97 457.02 492.56 459.73 C 487.16 465.61 480.95 470.60 474.77 475.61 C 460.09 454.44 445.32 433.35 430.62 412.20 Z" />
<path fill="#dfeefd" opacity="1.00" d=" M 773.72 414.72 C 787.83 409.57 803.31 408.38 818.08 410.95 C 837.83 414.24 856.76 422.42 877.02 422.40 C 888.17 422.70 899.17 420.58 910.19 419.12 C 915.77 418.51 921.99 417.85 927.01 420.95 C 931.31 423.63 933.01 429.08 932.37 433.93 C 931.35 442.78 925.47 450.30 918.48 455.46 C 904.56 465.54 886.94 469.82 869.89 468.68 C 866.73 467.75 865.01 472.78 868.24 473.68 C 878.51 475.25 889.23 475.77 898.80 480.25 C 902.39 481.91 905.98 484.75 906.61 488.91 C 907.83 495.55 903.16 501.43 898.28 505.32 C 888.69 512.64 876.52 515.52 864.77 517.18 C 849.80 519.22 834.71 515.89 820.82 510.38 C 816.80 508.95 813.03 506.85 808.98 505.55 C 806.87 505.05 805.21 507.78 806.47 509.49 C 816.31 516.79 826.65 523.67 838.22 527.94 C 846.69 531.44 855.71 533.71 863.74 538.21 C 867.16 540.14 871.11 543.95 869.25 548.25 C 866.82 553.09 861.69 555.75 856.93 557.84 C 844.63 562.74 830.97 562.98 817.99 561.29 C 805.72 559.64 793.81 556.00 782.24 551.74 C 761.48 538.61 744.41 520.35 730.51 500.23 C 753.48 495.68 773.37 481.90 790.13 466.08 C 792.21 464.28 789.55 460.60 787.23 462.09 C 784.06 464.20 781.46 467.03 778.49 469.39 C 763.84 481.88 746.54 492.32 727.27 495.35 C 720.56 484.78 714.51 473.71 710.45 461.83 C 724.12 453.46 736.03 442.63 747.77 431.81 C 755.41 424.77 763.87 418.31 773.72 414.72 Z" />
<path fill="#dfeefd" opacity="1.00" d=" M 372.87 435.60 C 391.44 431.16 408.19 421.71 425.60 414.20 C 441.28 436.66 456.90 459.17 472.60 481.62 C 462.15 478.33 450.78 476.55 440.00 479.31 C 431.58 481.41 424.36 487.57 420.76 495.44 C 394.76 490.93 368.75 486.47 342.74 481.99 C 347.56 481.15 352.34 480.05 357.19 479.38 C 366.68 481.42 376.54 481.43 386.09 479.69 C 397.31 477.87 407.75 473.00 417.65 467.63 C 420.19 466.48 418.75 462.15 416.02 462.91 C 412.24 464.28 408.83 466.47 405.14 468.03 C 392.45 474.15 378.03 476.84 364.02 475.19 C 351.90 473.66 339.61 466.55 335.20 454.67 C 333.91 451.11 332.94 446.68 335.37 443.40 C 337.75 440.62 341.68 440.22 345.06 439.65 C 354.35 438.48 363.76 437.89 372.87 435.60 Z" />
</g>
<g id="#e45e5bff">
<path fill="#e45e5b" opacity="1.00" d=" M 84.58 434.67 C 96.76 425.56 110.84 418.56 125.95 416.13 C 133.08 414.90 141.21 416.09 146.37 421.57 C 153.66 428.82 153.59 441.97 145.89 448.90 C 142.69 452.48 137.88 453.54 133.93 455.94 C 131.90 458.12 133.99 460.81 135.54 462.52 C 140.77 468.38 145.13 475.83 144.65 483.94 C 144.47 488.76 141.03 492.91 136.68 494.70 C 128.68 498.15 119.42 496.73 111.66 493.31 C 100.24 488.19 91.31 478.76 84.58 468.40 C 79.90 461.27 76.91 453.25 73.97 445.30 C 76.62 440.97 80.66 437.78 84.58 434.67 Z" />
<path fill="#e45e5b" opacity="1.00" d=" M 502.88 430.84 C 505.19 429.46 508.30 429.78 509.94 432.02 C 516.06 439.09 521.47 446.79 526.05 454.95 C 533.05 467.43 537.08 481.47 545.51 493.16 C 536.82 492.24 528.02 491.95 519.33 493.00 C 510.24 479.43 501.84 465.40 493.75 451.22 C 492.02 447.86 489.51 443.63 491.88 439.97 C 494.55 435.94 498.68 433.08 502.88 430.84 Z" />
<path fill="#e45e5b" opacity="1.00" d=" M 443.72 483.88 C 455.23 482.13 467.22 484.49 477.69 489.38 C 482.38 495.08 486.20 501.48 490.56 507.44 C 469.05 503.72 447.53 500.10 426.03 496.28 C 429.81 489.84 436.25 484.97 443.72 483.88 Z" />
<path fill="#e45e5b" opacity="1.00" d=" M 487.71 494.10 C 492.17 496.43 496.45 499.12 500.26 502.42 C 499.77 504.66 499.58 506.94 499.75 509.23 C 499.21 509.05 498.11 508.69 497.57 508.51 C 494.46 503.59 490.98 498.92 487.71 494.10 Z" />
<path fill="#e45e5b" opacity="1.00" d=" M 420.25 517.10 C 443.60 520.83 466.91 524.75 490.23 528.58 C 477.30 538.18 460.81 543.19 444.73 541.20 C 437.88 540.39 431.03 537.84 426.11 532.86 C 421.88 528.83 420.13 522.83 420.25 517.10 Z" />
<path fill="#e45e5b" opacity="1.00" d=" M 587.24 582.10 C 595.88 582.97 604.54 583.70 613.22 583.83 C 617.37 586.23 620.28 590.13 623.91 593.19 C 636.27 603.99 650.40 612.56 664.91 620.15 C 690.91 633.57 718.57 643.60 746.86 651.00 C 758.34 653.93 769.90 656.62 781.68 658.08 C 787.74 670.42 790.21 684.05 794.99 696.87 C 778.81 694.83 762.80 691.44 747.19 686.72 C 733.17 682.30 719.15 677.69 706.06 670.91 C 661.55 648.75 621.58 617.95 587.24 582.10 Z" />
<path fill="#e45e5b" opacity="1.00" d=" M 836.87 644.92 C 842.51 643.61 848.14 642.19 853.88 641.34 C 857.69 640.86 861.94 640.55 865.32 642.76 C 869.68 645.56 873.09 649.57 876.34 653.56 C 881.69 660.55 886.63 668.28 888.38 677.04 C 889.41 681.63 887.23 686.08 884.82 689.85 C 881.45 695.04 877.65 699.98 873.38 704.47 C 867.84 710.23 860.33 713.51 852.88 716.00 C 844.48 718.67 835.84 721.06 826.98 721.29 C 819.21 721.15 812.83 715.60 808.21 709.84 C 801.10 701.31 798.26 690.36 795.08 679.96 C 792.90 672.00 790.29 664.14 786.85 656.63 C 803.49 652.62 820.22 648.95 836.87 644.92 Z" />
</g>
<g id="#d39584ff">
<path fill="#d39584" opacity="1.00" d=" M 192.37 429.22 C 193.04 426.95 194.09 423.79 196.98 423.84 C 202.50 423.87 207.65 426.20 213.04 427.11 C 220.95 428.75 229.07 428.13 237.06 427.64 C 239.18 427.62 242.24 427.39 243.12 429.87 C 244.37 433.07 244.21 436.60 244.12 439.97 C 243.65 448.20 242.72 456.40 241.67 464.57 C 224.05 461.54 206.42 458.52 188.80 455.46 C 189.59 446.67 190.15 437.78 192.37 429.22 Z" />
<path fill="#d39584" opacity="1.00" d=" M 200.36 480.74 C 213.95 483.24 227.63 485.25 241.24 487.59 C 239.29 499.45 237.12 511.28 235.64 523.21 C 234.30 534.11 234.35 545.10 234.41 556.06 C 234.30 559.47 234.47 564.04 230.79 565.72 C 224.35 568.73 216.96 568.31 210.03 568.19 C 202.33 567.60 194.00 567.01 187.49 562.41 C 183.10 558.97 184.07 552.76 184.49 547.89 C 192.97 550.53 203.06 552.22 211.00 547.18 C 220.11 541.05 220.10 526.69 212.80 519.11 C 215.03 517.62 217.40 516.05 218.60 513.54 C 222.01 506.88 220.44 498.61 216.41 492.59 C 212.64 486.88 206.50 483.36 200.36 480.74 Z" />
</g>
</svg>
