<?xml version="1.0" encoding="UTF-8" ?>
<!DOCTYPE svg PUBLIC "-//W3C//DTD SVG 1.1//EN" "http://www.w3.org/Graphics/SVG/1.1/DTD/svg11.dtd">
<svg width="1000pt" height="1000pt" viewBox="0 0 1000 1000" version="1.1" xmlns="http://www.w3.org/2000/svg" shape-rendering="geometricPrecision">
<g id="#000000ff">
<path fill="#000000" opacity="1.00" fill-rule="evenodd" stroke="#000000" stroke-width="0.75" stroke-linejoin="round" stroke-linecap="round" paint-order="stroke fill" d="M 396.00 921.50 C 396.19 920.53 397.74 920.07 399.63 921.17 C 401.52 922.27 407.17 927.78 410.46 929.91 C 413.75 932.04 418.08 933.09 419.35 933.97 C 420.62 934.85 420.28 935.83 419.95 936.48 C 419.62 937.13 419.11 938.28 417.39 937.90 C 415.67 937.52 411.63 935.77 408.48 933.95 C 405.33 932.13 400.58 929.08 398.50 927.00 C 396.42 924.92 395.81 922.47 396.00 921.50 Z" />
<path fill="#000000" opacity="1.00" fill-rule="evenodd" stroke="#000000" stroke-width="0.75" stroke-linejoin="round" stroke-linecap="round" paint-order="stroke fill" d="M 282.00 328.50 C 285.83 328.19 290.64 328.44 294.46 330.12 C 298.28 331.80 302.18 335.14 304.92 338.56 C 307.67 341.98 309.60 345.45 310.93 350.62 C 312.26 355.79 313.25 362.43 312.90 369.59 C 312.55 376.75 311.50 385.12 308.86 393.55 C 306.22 401.98 300.62 414.30 297.04 420.18 C 293.46 426.06 291.53 427.41 287.40 428.85 C 283.27 430.29 279.55 430.48 272.25 428.82 C 264.95 427.16 252.34 423.04 243.59 418.91 C 234.84 414.78 225.33 408.62 219.75 404.04 C 214.17 399.46 212.06 396.19 210.13 391.44 C 208.19 386.69 207.48 380.21 208.14 375.57 C 208.80 370.93 211.35 366.68 214.08 363.60 C 216.81 360.52 220.77 358.34 224.53 357.10 C 228.29 355.86 231.49 355.25 236.62 356.14 C 241.75 357.03 250.76 365.20 255.32 362.47 C 259.88 359.74 261.28 344.86 263.98 339.78 C 266.68 334.70 268.50 333.88 271.50 332.00 C 274.50 330.12 278.17 328.81 282.00 328.50 Z M 279.00 333.50 C 281.66 333.01 286.39 332.50 289.46 333.08 C 292.53 333.66 295.35 335.57 297.44 337.01 C 299.53 338.45 300.29 338.28 302.03 341.70 C 303.77 345.12 306.90 351.76 307.89 357.55 C 308.88 363.34 308.45 370.75 307.95 376.43 C 307.45 382.12 307.04 385.19 304.88 391.66 C 302.72 398.13 298.27 409.73 295.01 415.25 C 291.75 420.77 290.26 423.54 285.32 424.80 C 280.38 426.06 272.99 424.97 265.39 422.84 C 257.79 420.71 246.34 415.34 239.71 412.03 C 233.08 408.72 229.52 406.08 225.58 402.99 C 221.65 399.90 218.34 396.89 216.10 393.47 C 213.86 390.05 212.28 386.45 212.12 382.47 C 211.96 378.49 212.75 373.13 215.15 369.58 C 217.55 366.03 222.46 362.56 226.53 361.15 C 230.60 359.74 234.31 359.93 239.60 361.14 C 244.89 362.35 253.90 371.16 258.30 368.43 C 262.70 365.70 263.47 350.18 266.00 344.78 C 268.53 339.38 271.33 337.88 273.50 336.00 C 275.67 334.12 276.34 333.99 279.00 333.50 Z" />
<path fill="#000000" opacity="1.00" fill-rule="evenodd" stroke="#000000" stroke-width="0.75" stroke-linejoin="round" stroke-linecap="round" paint-order="stroke fill" d="M 571.00 88.50 C 578.49 88.19 592.05 87.57 601.42 89.15 C 610.79 90.73 621.05 95.30 627.24 97.96 C 633.43 100.62 634.29 101.55 638.56 105.13 C 642.83 108.71 649.30 115.34 652.87 119.42 C 656.44 123.50 657.82 125.59 659.97 129.58 C 662.12 133.57 661.18 144.59 665.79 143.36 C 670.40 142.13 679.16 127.56 687.62 122.19 C 696.08 116.82 706.59 113.34 716.53 111.16 C 726.47 108.98 739.41 108.94 747.24 109.09 C 755.07 109.24 757.97 110.39 763.52 112.07 C 769.07 113.75 774.48 115.23 780.54 119.17 C 786.60 123.11 794.36 128.34 799.90 135.70 C 805.44 143.06 810.97 155.82 813.81 163.31 C 816.65 170.80 816.43 173.75 816.95 180.62 C 817.47 187.49 817.62 196.34 816.93 204.52 C 816.24 212.70 815.82 219.72 812.82 229.68 C 809.82 239.64 804.09 254.67 798.95 264.29 C 793.82 273.91 787.60 280.77 782.01 287.39 C 776.42 294.01 771.55 298.55 765.44 303.99 C 759.33 309.43 753.65 314.23 745.33 320.05 C 737.01 325.87 725.49 333.43 715.50 338.91 C 705.51 344.39 696.42 348.74 685.38 352.95 C 674.34 357.16 654.49 358.95 649.24 364.17 C 643.99 369.39 653.47 379.58 653.87 384.28 C 654.27 388.98 655.45 390.56 651.67 392.36 C 647.89 394.17 633.71 382.97 631.19 395.11 C 628.67 407.25 622.23 520.50 621.17 539.42 C 620.11 558.34 617.87 565.40 621.38 571.00 C 624.89 576.60 638.10 572.25 642.23 573.03 C 646.36 573.81 646.24 574.15 648.53 576.10 C 650.82 578.05 653.60 579.69 655.99 584.74 C 658.38 589.79 661.72 599.81 662.88 606.43 C 664.04 613.04 663.45 619.08 662.95 624.43 C 662.46 629.78 661.73 633.70 659.91 638.52 C 658.09 643.34 654.60 649.63 652.01 653.37 C 649.42 657.11 648.00 658.54 644.38 660.98 C 640.76 663.42 632.37 660.83 630.29 668.03 C 628.21 675.23 632.29 694.77 631.89 704.20 C 631.49 713.63 630.24 717.02 627.89 724.59 C 625.54 732.16 622.84 740.31 617.82 749.61 C 612.81 758.91 599.66 778.21 597.80 780.39 C 595.94 782.57 593.16 779.61 594.41 777.04 C 595.66 774.47 608.76 757.09 613.84 747.53 C 618.92 737.97 622.51 727.53 624.86 719.66 C 627.21 711.79 627.73 708.57 627.91 700.29 C 628.09 692.01 626.58 673.16 625.96 670.00 C 625.34 666.84 624.13 666.06 621.37 667.22 C 618.61 668.38 614.51 674.17 609.38 676.95 C 604.25 679.73 596.07 682.41 590.59 683.91 C 585.11 685.41 581.20 685.78 576.49 685.94 C 571.78 686.10 564.08 681.76 562.32 684.88 C 560.56 688.00 565.18 696.58 565.95 704.66 C 566.72 712.74 567.26 725.06 566.93 733.36 C 566.60 741.66 565.45 747.92 563.95 754.45 C 562.45 760.98 560.74 766.21 557.91 772.53 C 555.08 778.85 550.68 786.71 547.00 792.39 C 543.32 798.07 541.37 801.03 535.80 806.60 C 530.23 812.17 520.03 820.94 513.61 825.82 C 507.19 830.71 500.19 828.86 497.27 835.91 C 494.35 842.96 495.38 860.78 496.11 868.12 C 496.84 875.46 498.32 876.76 501.65 879.92 C 504.98 883.07 506.78 884.49 516.11 887.05 C 525.44 889.61 555.43 894.38 563.84 896.97 C 572.25 899.56 573.81 903.03 575.80 905.46 C 577.78 907.89 578.01 909.18 575.75 911.53 C 573.49 913.88 564.40 916.55 562.26 919.53 C 560.12 922.51 563.73 926.87 562.89 929.42 C 562.05 931.97 561.74 934.53 557.21 934.83 C 552.69 935.13 540.68 930.25 535.74 931.25 C 530.80 932.25 529.80 938.92 527.55 940.86 C 525.30 942.80 525.65 943.05 522.24 942.91 C 518.83 942.77 510.40 942.75 502.34 939.79 C 494.28 936.83 479.25 928.31 473.88 925.15 C 468.51 921.99 468.61 921.79 465.99 918.39 C 463.37 914.99 459.23 914.11 458.15 904.72 C 457.07 895.33 462.43 857.88 458.02 849.08 C 453.61 840.28 438.94 851.46 431.67 851.93 C 424.41 852.40 420.74 852.73 414.43 851.89 C 408.12 851.05 397.86 840.55 393.81 846.88 C 389.76 853.21 390.08 884.12 390.13 889.86 C 390.18 895.60 390.75 895.65 394.22 898.51 C 397.69 901.37 401.33 903.96 410.95 907.03 C 420.56 910.10 445.85 915.04 451.91 916.92 C 457.97 918.80 459.21 920.29 460.87 922.54 C 462.53 924.79 462.48 928.37 461.90 930.44 C 461.32 932.51 459.85 933.77 457.39 934.96 C 454.93 936.15 449.22 935.69 447.15 937.61 C 445.07 939.53 446.23 943.61 444.94 946.49 C 443.65 949.37 441.99 953.30 439.42 954.87 C 436.85 956.44 432.66 956.38 429.52 955.91 C 426.38 955.44 423.09 952.70 420.55 952.07 C 418.01 951.45 417.83 950.91 414.27 952.16 C 410.71 953.41 400.90 959.39 395.60 960.84 C 390.30 962.29 387.29 962.18 382.45 960.86 C 377.61 959.54 371.29 956.33 366.56 952.92 C 361.83 949.51 357.48 945.46 354.08 940.40 C 350.68 935.34 347.46 928.21 346.14 922.53 C 344.82 916.85 344.85 913.52 346.14 906.31 C 347.43 899.10 352.30 890.17 353.90 879.29 C 355.50 868.40 357.37 849.19 355.76 841.00 C 354.15 832.81 350.30 832.48 344.26 830.13 C 338.22 827.78 327.47 829.07 319.53 826.88 C 311.59 824.69 303.13 820.47 296.62 816.98 C 290.11 813.49 285.92 810.35 280.49 805.92 C 275.06 801.49 269.27 796.33 264.03 790.42 C 258.79 784.51 253.39 777.60 249.07 770.45 C 244.75 763.31 240.76 754.71 238.10 747.55 C 235.44 740.39 233.77 734.14 233.10 727.50 C 232.43 720.86 233.23 712.37 234.05 707.71 C 234.87 703.05 236.30 701.67 238.04 699.56 C 239.78 697.45 242.41 695.98 244.49 695.06 C 246.57 694.14 248.16 693.86 250.54 694.06 L 258.78 696.25 L 255.07 684.57 C 254.46 681.27 254.03 679.53 255.11 676.46 C 256.19 673.39 259.10 668.20 261.53 666.15 C 263.95 664.10 265.50 663.37 269.66 664.16 C 273.83 664.95 280.70 669.77 286.52 670.88 C 292.34 671.99 297.62 672.65 304.60 670.81 C 311.58 668.97 321.19 664.93 328.42 659.85 C 335.65 654.77 341.89 648.39 347.96 640.33 C 354.03 632.27 360.69 621.14 364.84 611.50 C 368.99 601.86 371.37 592.44 372.88 582.46 C 374.39 572.48 374.27 561.06 373.93 551.61 C 373.59 542.16 373.59 541.03 370.81 525.76 C 368.03 510.49 359.69 477.46 357.23 459.99 C 354.77 442.52 355.90 429.85 356.05 420.94 C 356.20 412.03 356.27 413.48 358.12 406.24 C 359.97 399.00 362.95 386.96 367.12 377.52 C 371.29 368.08 376.70 358.00 383.11 349.60 C 389.52 341.20 397.50 333.37 405.56 327.13 C 413.62 320.89 423.01 315.66 431.48 312.16 C 439.95 308.66 449.18 306.96 456.38 306.12 C 463.58 305.28 467.15 305.47 474.66 307.14 C 482.17 308.81 492.83 311.81 501.46 316.14 C 510.09 320.47 518.86 326.09 526.42 333.15 C 533.98 340.20 541.89 350.23 546.80 358.47 C 551.71 366.71 554.04 373.75 555.88 382.59 C 557.72 391.42 558.59 402.05 557.84 411.48 C 557.09 420.91 550.24 432.78 551.36 439.19 C 552.48 445.60 559.42 446.97 564.58 449.94 C 569.74 452.91 578.25 454.58 582.30 457.01 C 586.35 459.44 587.95 461.63 588.87 464.54 C 589.79 467.45 589.73 471.41 587.83 474.47 C 585.93 477.53 581.35 480.84 577.46 482.92 C 573.57 485.00 568.98 486.08 564.48 486.95 C 559.98 487.82 555.62 486.48 550.45 488.14 C 545.28 489.80 539.34 494.80 533.47 496.90 C 527.60 499.00 519.29 497.16 515.22 500.75 C 511.15 504.34 510.42 512.95 509.07 518.45 C 507.72 523.95 506.75 526.44 507.11 533.75 C 507.47 541.06 507.70 554.33 511.24 562.33 C 514.78 570.34 523.78 577.33 528.37 581.78 C 532.96 586.23 532.76 586.37 538.78 589.03 C 544.79 591.69 556.16 596.99 564.46 597.77 C 572.76 598.55 579.91 597.66 588.58 593.73 C 597.25 589.80 611.74 584.17 616.50 574.16 C 621.26 564.15 615.81 557.93 617.17 533.68 C 618.53 509.43 627.01 405.76 626.54 394.89 C 626.07 384.02 613.94 388.60 610.73 386.00 C 607.52 383.40 605.70 383.23 607.31 379.32 C 608.91 375.41 621.82 367.77 620.36 362.54 C 618.90 357.31 605.71 353.43 598.53 347.94 C 591.35 342.45 586.50 339.22 577.26 329.62 C 568.02 320.02 553.73 305.11 543.08 290.32 C 532.43 275.53 520.01 253.82 513.35 240.88 C 506.69 227.94 505.33 220.46 503.12 212.68 C 500.91 204.90 500.26 203.17 500.09 194.19 C 499.91 185.21 500.74 168.06 502.07 158.78 C 503.40 149.50 505.38 145.07 508.07 138.52 C 510.76 131.97 512.83 126.17 518.22 119.46 C 523.61 112.75 534.01 102.99 540.39 98.25 C 546.77 93.51 551.40 92.63 556.50 91.00 C 561.60 89.38 563.51 88.81 571.00 88.50 Z M 451.00 311.50 C 458.13 311.35 473.50 311.82 481.25 313.08 C 489.00 314.34 491.96 316.39 497.52 319.07 C 503.07 321.75 508.20 324.11 514.58 329.18 C 520.96 334.25 530.44 342.94 535.82 349.47 C 541.20 356.00 544.35 363.17 546.88 368.38 C 549.41 373.59 549.82 374.39 550.98 380.75 C 552.14 387.11 554.41 397.60 553.83 406.54 C 553.25 415.48 549.46 430.58 547.52 434.40 C 545.58 438.22 542.28 431.47 542.18 429.47 C 542.08 427.47 546.13 425.57 546.91 422.41 C 547.69 419.25 547.96 414.08 546.89 410.54 C 545.82 407.00 542.58 402.73 540.51 401.17 C 538.44 399.61 536.66 399.43 534.48 401.19 C 532.30 402.95 530.55 410.59 527.41 411.74 C 524.26 412.89 518.62 408.52 515.61 408.09 C 512.60 407.66 512.67 407.29 509.35 409.17 C 506.03 411.05 499.44 414.06 495.04 419.74 C 490.64 425.42 487.56 437.49 482.93 443.27 C 478.30 449.05 470.07 451.39 467.26 454.43 C 464.45 457.47 465.76 459.30 466.07 461.48 C 466.38 463.66 466.98 465.35 469.12 467.52 C 471.26 469.69 476.56 472.02 478.89 474.52 C 481.22 477.02 480.81 479.62 483.10 482.53 C 485.40 485.44 488.09 489.07 492.66 491.96 C 497.23 494.85 508.79 493.81 510.54 499.88 C 512.29 505.95 504.23 519.64 503.16 528.41 C 502.09 537.18 502.73 544.54 504.10 552.48 C 505.47 560.42 505.59 563.10 511.37 576.06 C 517.15 589.02 531.68 614.65 538.77 630.22 C 545.86 645.79 550.03 656.62 553.88 669.48 C 557.73 682.35 560.53 695.59 561.86 707.41 C 563.19 719.23 563.03 730.26 561.88 740.41 C 560.73 750.56 557.49 760.92 554.98 768.29 C 552.47 775.66 551.00 778.27 546.84 784.61 C 542.68 790.95 535.48 800.44 530.03 806.35 C 524.58 812.26 522.70 814.84 514.14 820.08 C 505.58 825.32 489.11 833.67 478.66 837.81 C 468.21 841.95 460.81 843.26 451.46 844.93 C 442.11 846.60 431.65 848.29 422.54 847.85 L 396.81 842.28 L 415.62 824.75 C 417.04 823.04 416.12 820.16 414.23 821.32 C 412.34 822.48 402.38 832.56 397.59 835.83 C 392.80 839.10 389.51 839.91 385.50 840.93 C 381.49 841.95 377.05 842.12 373.55 841.95 C 370.05 841.78 367.64 841.25 364.48 839.93 C 361.32 838.61 356.85 835.62 354.61 834.04 C 352.38 832.46 351.68 831.82 351.07 830.48 C 350.46 829.14 353.55 826.70 350.97 826.03 C 348.39 825.36 331.53 825.80 321.48 822.79 C 311.43 819.78 299.26 813.37 290.68 807.96 C 282.10 802.55 276.76 797.73 270.01 790.33 C 263.26 782.93 255.16 772.02 250.18 763.55 C 245.20 755.08 242.30 747.47 240.12 739.50 C 237.94 731.53 237.11 721.55 237.10 715.73 C 237.09 709.91 238.63 707.37 240.04 704.60 C 241.44 701.83 243.46 700.03 245.53 699.10 C 247.60 698.17 250.30 698.54 252.48 699.05 C 254.66 699.56 255.62 699.71 258.60 702.16 C 261.58 704.61 268.47 712.53 270.35 713.76 C 272.23 714.99 274.48 714.17 273.69 712.07 C 272.90 709.97 262.24 691.43 260.23 686.81 C 258.22 682.19 258.54 681.27 259.10 678.49 C 259.66 675.71 261.32 671.69 263.58 670.13 C 265.84 668.57 268.18 668.18 272.66 669.14 C 277.14 670.10 284.83 674.89 290.46 675.86 C 296.09 676.83 301.76 675.77 306.43 674.95 C 311.10 674.13 314.47 672.80 318.50 670.95 C 322.53 669.10 325.69 667.76 330.60 663.83 C 335.51 659.90 342.57 653.80 347.96 647.40 C 353.35 641.00 358.61 633.54 362.93 625.41 C 367.25 617.28 371.38 606.65 373.88 598.61 C 376.38 590.57 377.43 587.42 377.91 577.17 C 378.40 566.92 379.08 553.83 376.79 537.13 C 374.50 520.43 366.95 492.56 364.16 476.99 C 361.37 461.43 360.75 452.51 360.07 443.74 C 359.39 434.97 359.39 431.77 360.07 424.39 C 360.75 417.00 361.61 408.40 364.12 399.43 C 366.63 390.46 370.47 379.53 375.11 370.57 C 379.75 361.61 386.57 352.26 391.97 345.68 C 397.37 339.10 402.40 335.19 407.49 331.08 C 412.58 326.97 417.35 323.90 422.52 321.05 C 427.69 318.20 433.75 315.59 438.50 314.00 C 443.25 312.41 443.88 311.65 451.00 311.50 Z M 575.00 92.50 C 582.62 92.34 597.12 93.11 604.21 94.04 C 611.30 94.97 612.67 95.91 617.55 98.09 C 622.43 100.27 628.27 103.21 633.49 107.10 C 638.71 110.99 645.10 117.32 648.85 121.42 C 652.60 125.52 653.51 126.58 656.01 131.70 C 658.50 136.82 658.28 153.04 663.82 152.15 C 669.36 151.26 682.94 131.73 689.25 126.37 C 695.56 121.01 695.83 122.05 701.69 120.00 C 707.55 117.95 717.61 115.25 724.41 114.09 C 731.21 112.94 736.35 112.74 742.52 113.07 C 748.69 113.40 755.47 114.40 761.46 116.07 C 767.46 117.74 772.91 119.69 778.49 123.11 C 784.07 126.53 790.19 131.05 794.92 136.61 C 799.65 142.17 804.04 149.99 806.88 156.48 C 809.72 162.97 810.92 168.58 811.93 175.57 C 812.94 182.56 813.12 191.42 812.95 198.43 C 812.78 205.44 812.41 210.13 810.91 217.62 C 809.41 225.11 806.63 235.91 803.97 243.38 C 801.31 250.85 798.46 256.44 794.95 262.46 C 791.44 268.48 787.83 273.60 782.90 279.53 C 777.97 285.46 772.44 291.63 765.37 298.03 C 758.30 304.43 749.12 311.80 740.47 317.95 C 731.82 324.10 723.00 329.77 713.45 334.95 C 703.90 340.13 696.08 344.38 683.18 349.00 C 670.28 353.62 646.53 361.36 636.06 362.65 C 625.59 363.94 625.43 360.05 619.45 356.88 C 613.47 353.71 609.57 351.69 600.18 343.61 C 590.79 335.53 574.29 321.05 563.13 308.40 C 551.97 295.75 541.07 279.66 533.23 267.68 C 525.39 255.70 520.63 246.85 516.12 236.50 C 511.61 226.15 508.14 215.40 506.14 205.55 C 504.14 195.71 503.47 187.43 504.14 177.43 C 504.81 167.43 506.68 155.52 510.16 145.57 C 513.64 135.62 519.65 124.96 525.04 117.72 C 530.42 110.48 536.89 105.94 542.47 102.15 C 548.05 98.36 553.08 96.61 558.50 95.00 C 563.92 93.39 567.38 92.66 575.00 92.50 Z M 360.00 843.50 C 362.11 837.41 365.87 845.48 370.64 845.95 C 375.41 846.42 386.03 838.68 388.62 846.33 C 391.21 853.99 385.43 883.39 386.18 891.88 C 386.93 900.37 389.27 900.59 393.70 903.94 C 398.13 907.29 403.89 909.33 412.78 912.00 C 421.67 914.67 440.81 918.17 447.05 919.94 C 453.29 921.71 455.04 923.07 456.85 924.49 C 458.67 925.91 458.18 927.39 457.94 928.47 C 457.70 929.55 457.13 930.38 455.40 930.97 C 453.67 931.57 449.62 931.26 447.56 932.04 C 445.50 932.82 444.29 933.10 443.03 935.65 C 441.76 938.20 441.27 944.67 439.97 947.37 C 438.68 950.07 439.02 951.85 435.26 951.83 C 431.50 951.81 424.31 946.43 417.39 947.26 C 410.47 948.09 399.16 955.26 393.76 956.83 C 388.36 958.40 388.57 958.17 384.38 956.86 C 380.19 955.55 372.99 952.03 368.60 948.96 C 364.21 945.89 360.98 942.52 358.06 938.44 C 355.14 934.36 352.42 929.48 351.10 924.46 C 349.78 919.44 349.01 915.31 350.16 908.32 C 351.31 901.33 356.36 893.30 358.00 882.50 C 359.64 871.70 357.89 849.59 360.00 843.50 Z M 508.00 442.50 C 509.33 442.02 513.99 442.47 516.46 444.12 C 518.93 445.77 522.20 450.81 522.84 452.38 C 523.48 453.95 521.83 454.59 520.44 453.87 C 519.05 453.15 516.49 449.23 514.50 448.09 C 512.51 446.94 509.58 447.93 508.50 447.00 C 507.42 446.07 506.67 442.98 508.00 442.50 Z" />
</g>
<g id="#fffdffff">
<path fill="#fffdff" opacity="1.00" fill-rule="evenodd" d="M 625.00 577.50 C 629.30 576.51 635.03 576.63 638.30 577.09 C 641.56 577.55 642.00 577.66 644.59 580.25 C 647.18 582.84 651.65 587.74 653.86 592.62 C 656.07 597.50 657.37 603.58 657.87 609.55 C 658.37 615.52 658.04 622.48 656.87 628.45 C 655.70 634.42 653.74 640.49 650.86 645.38 C 647.98 650.27 642.98 655.04 639.57 657.78 C 636.16 660.52 634.03 661.50 630.39 661.84 C 626.75 662.18 620.72 661.57 617.70 659.83 C 614.68 658.09 612.43 654.89 612.28 651.38 C 612.13 647.87 616.51 640.98 616.80 638.78 C 617.09 636.58 616.45 636.55 614.28 636.07 C 612.11 635.59 606.32 636.80 603.64 635.86 C 600.96 634.92 598.78 632.52 598.20 630.46 C 597.62 628.40 598.51 625.90 600.14 623.49 C 601.76 621.08 602.75 618.62 607.95 615.97 C 613.15 613.32 629.03 608.88 631.34 607.61 C 633.65 606.34 633.17 603.34 631.20 603.22 C 629.23 603.10 623.29 606.29 619.53 606.90 C 615.77 607.51 611.37 607.64 608.64 606.88 C 605.91 606.12 603.91 604.88 603.17 602.33 C 602.43 599.78 602.64 594.79 604.20 591.57 C 605.76 588.35 609.03 585.35 612.50 583.00 C 615.97 580.65 620.70 578.49 625.00 577.50 Z" />
<path fill="#fffdff" opacity="1.00" fill-rule="evenodd" d="M 521.00 583.50 L 546.22 598.70 C 552.99 601.93 555.91 602.34 561.61 602.87 C 567.31 603.40 574.80 602.96 580.39 601.87 C 585.98 600.78 592.36 596.08 595.15 596.35 C 597.94 596.62 595.87 600.99 597.12 603.51 C 598.37 606.03 602.96 608.81 602.63 611.50 C 602.30 614.19 596.87 616.15 595.13 619.63 C 593.39 623.11 591.80 628.98 592.22 632.36 C 592.64 635.74 595.06 638.00 597.63 639.89 C 600.20 641.77 606.23 641.39 607.67 643.67 C 609.11 645.95 605.16 649.80 606.29 653.58 C 607.42 657.36 614.94 662.97 614.46 666.36 C 613.98 669.75 607.77 671.84 603.41 673.93 C 599.05 676.02 594.40 677.89 588.32 678.89 C 582.24 679.89 570.71 680.17 566.95 679.92 C 563.19 679.67 562.88 680.55 561.33 677.12 C 559.78 673.69 556.72 658.10 550.00 642.50 L 521.00 583.50 Z" />
<path fill="#fffdff" opacity="1.00" fill-rule="evenodd" d="M 451.00 312.50 C 457.51 312.22 468.33 311.17 477.57 313.30 C 486.81 315.43 497.11 319.41 506.46 325.30 C 515.81 331.19 526.63 340.08 533.67 348.62 C 540.71 357.16 545.53 366.92 548.71 376.55 C 551.89 386.18 552.88 397.06 552.76 406.42 C 552.64 415.78 549.32 429.50 548.00 432.69 C 546.68 435.88 543.28 431.14 543.26 429.42 C 543.24 427.70 547.11 425.52 547.87 422.37 C 548.63 419.22 549.03 414.22 547.80 410.54 C 546.57 406.86 543.03 401.85 540.49 400.30 C 537.95 398.75 534.88 399.51 532.55 401.24 C 530.22 402.97 528.54 409.52 526.50 410.66 C 524.46 411.80 523.62 408.34 520.29 408.10 C 516.96 407.87 510.92 407.30 506.54 409.25 C 502.17 411.20 497.99 414.47 494.04 419.80 C 490.10 425.13 487.31 435.77 482.87 441.21 C 478.43 446.65 470.23 448.98 467.37 452.45 C 464.51 455.92 462.77 456.99 465.70 462.04 C 468.63 467.09 482.27 484.12 489.37 490.45 C 496.47 496.78 506.16 493.70 508.30 500.04 C 510.44 506.38 502.93 519.08 502.24 528.47 C 501.55 537.86 502.41 547.51 504.16 556.40 C 505.91 565.29 506.20 567.11 512.74 581.81 C 519.28 596.51 539.80 635.66 547.32 653.45 C 554.84 671.24 555.42 676.76 557.84 688.55 C 560.26 700.33 561.50 714.34 561.84 724.16 C 562.18 733.98 561.22 740.06 559.89 747.45 C 558.56 754.85 556.86 761.35 553.84 768.53 C 550.82 775.71 547.29 783.01 541.75 790.54 C 536.21 798.07 527.02 807.80 520.62 813.70 C 514.22 819.60 509.93 822.24 503.37 825.95 C 496.81 829.66 489.94 832.96 481.29 835.95 C 472.65 838.94 461.39 842.05 451.50 843.87 C 441.61 845.69 428.97 846.55 421.97 846.89 C 414.97 847.23 413.37 846.86 409.51 845.91 C 405.65 844.96 397.64 844.68 398.80 841.17 C 399.96 837.66 414.67 827.10 416.46 824.83 C 418.25 822.56 416.17 820.86 415.46 820.12 C 414.75 819.38 413.71 819.14 412.19 820.39 C 410.67 821.64 402.03 831.49 397.58 834.74 C 393.13 837.99 389.54 838.89 385.50 839.89 C 381.46 840.89 378.42 841.91 373.32 840.76 C 368.22 839.61 358.68 835.61 354.92 833.00 C 351.17 830.39 355.84 826.84 350.79 825.13 C 345.74 823.42 332.03 825.14 321.37 821.61 C 310.71 818.08 296.22 810.29 286.85 803.93 C 277.48 797.57 271.29 790.53 265.17 783.46 C 259.06 776.39 254.16 768.84 250.16 761.50 C 246.16 754.16 243.16 747.05 241.16 739.45 C 239.16 731.85 238.31 721.37 238.13 715.89 C 237.95 710.41 238.84 709.18 240.09 706.57 C 241.34 703.96 242.90 700.93 245.64 700.22 C 248.38 699.51 252.61 699.88 256.55 702.29 C 260.49 704.69 267.11 713.20 269.28 714.65 C 271.45 716.10 274.20 716.17 273.51 713.65 C 272.82 711.13 261.78 686.55 260.39 682.18 C 259.00 677.81 260.23 676.58 261.09 674.57 C 261.95 672.56 263.62 670.85 265.57 670.12 C 267.52 669.39 268.64 669.07 272.79 670.18 C 276.94 671.29 284.85 675.83 290.45 676.79 C 296.05 677.75 301.70 676.74 306.39 675.92 C 311.08 675.10 314.05 674.06 318.58 671.87 C 323.11 669.68 328.32 667.04 333.54 662.80 C 338.76 658.56 345.00 652.36 349.91 646.43 C 354.82 640.50 358.82 635.20 362.97 627.24 C 367.12 619.28 372.14 607.21 374.79 598.68 C 377.44 590.15 378.40 586.43 378.87 576.05 C 379.34 565.67 380.36 556.11 377.61 536.40 C 374.86 516.69 365.14 476.41 362.39 457.79 C 359.64 439.17 360.69 434.37 361.13 424.68 C 361.57 415.00 363.35 406.94 365.05 399.68 C 366.75 392.42 367.13 389.46 371.34 381.13 C 375.54 372.80 382.30 359.12 390.28 349.67 C 398.26 340.22 411.18 330.21 419.22 324.43 C 427.26 318.65 433.20 316.99 438.50 315.00 C 443.80 313.01 444.49 312.78 451.00 312.50 Z M 407.00 427.50 C 411.56 425.77 416.77 426.50 420.36 427.12 C 423.95 427.75 425.64 428.37 428.54 431.25 C 431.44 434.13 436.06 440.66 437.78 444.38 C 439.50 448.10 439.35 450.21 438.87 453.55 C 438.39 456.89 436.81 461.35 434.91 464.41 C 433.01 467.47 430.19 470.00 427.46 471.91 C 424.72 473.82 421.50 475.23 418.50 475.89 C 415.50 476.55 412.76 476.70 409.45 475.87 C 406.14 475.04 401.51 473.00 398.62 470.93 C 395.73 468.86 393.66 466.23 392.09 463.46 C 390.52 460.69 389.03 458.62 389.18 454.29 C 389.33 449.96 390.03 441.97 393.00 437.50 C 395.97 433.03 402.44 429.23 407.00 427.50 Z M 427.00 657.50 C 427.90 654.99 430.47 656.58 431.42 657.08 C 432.37 657.58 433.13 658.34 432.70 660.48 C 432.27 662.62 426.71 688.90 422.92 699.03 C 419.13 709.16 414.39 715.44 409.99 721.25 C 405.59 727.06 401.10 730.43 396.49 733.88 C 391.88 737.33 388.16 739.62 382.32 741.95 C 376.48 744.28 368.56 746.85 361.47 747.84 C 354.38 748.84 345.30 748.42 339.79 747.92 C 334.28 747.42 332.51 746.76 328.43 744.86 C 324.35 742.96 317.85 739.21 315.30 736.51 C 312.75 733.81 313.01 730.41 313.12 728.64 C 313.23 726.87 313.76 726.78 315.96 725.91 C 318.16 725.04 329.11 722.77 335.47 719.84 C 341.83 716.91 351.81 709.50 354.11 708.32 C 356.41 707.14 357.64 707.41 358.41 708.12 C 359.18 708.83 360.31 710.59 358.74 712.58 C 357.17 714.58 355.35 717.05 348.96 720.09 C 342.57 723.13 323.82 728.59 320.42 730.84 C 317.02 733.09 321.29 734.20 324.81 736.03 C 328.33 737.86 335.74 740.87 341.53 741.84 C 347.32 742.81 353.39 742.69 359.53 741.87 C 365.67 741.05 372.88 739.08 378.37 736.92 C 383.86 734.75 387.90 732.31 392.49 728.88 C 397.08 725.45 401.85 721.56 405.93 716.33 C 410.01 711.10 413.49 707.31 417.00 697.50 C 420.51 687.69 426.10 660.01 427.00 657.50 Z" />
</g>
<g id="#f55255ff">
<path fill="#f55255" opacity="1.00" fill-rule="evenodd" d="M 624.00 366.50 L 640.23 370.02 L 641.17 383.43 L 614.50 382.00 Z" />
<path fill="#f55255" opacity="1.00" fill-rule="evenodd" d="M 740.38 409.76 C 741.49 410.18 742.66 410.81 743.76 411.46 C 744.86 412.11 745.95 412.88 746.96 413.68 C 747.98 414.48 748.94 415.34 749.85 416.24 C 750.76 417.14 751.61 418.14 752.44 419.09 C 753.28 420.04 754.04 421.09 754.86 421.94 C 755.68 422.79 756.49 423.59 757.37 424.21 C 758.25 424.82 759.16 425.30 760.12 425.63 C 761.08 425.96 762.09 426.11 763.11 426.19 C 764.13 426.27 765.21 426.17 766.27 426.13 C 767.33 426.09 768.40 425.99 769.46 425.95 C 770.52 425.91 771.57 425.88 772.61 425.89 C 773.65 425.89 774.69 425.91 775.70 425.98 C 776.71 426.05 777.72 426.13 778.65 426.31 C 779.58 426.49 780.47 426.72 781.29 427.05 C 782.11 427.38 782.87 427.80 783.55 428.29 C 784.23 428.79 784.85 429.37 785.39 430.02 C 785.93 430.67 786.41 431.41 786.77 432.20 C 787.13 432.99 787.41 433.84 787.57 434.73 C 787.73 435.62 787.79 436.56 787.73 437.55 C 787.67 438.54 787.52 439.59 787.24 440.65 C 786.96 441.71 786.58 442.84 786.06 443.93 C 785.54 445.02 784.90 446.12 784.12 447.18 C 783.34 448.24 782.43 449.29 781.39 450.31 C 780.35 451.33 779.16 452.35 777.87 453.29 C 776.58 454.23 775.13 455.18 773.62 455.96 C 772.11 456.74 770.48 457.44 768.79 457.99 C 767.10 458.54 765.31 458.97 763.45 459.25 C 761.59 459.53 759.61 459.70 757.63 459.68 C 755.65 459.66 753.55 459.53 751.59 459.13 C 749.63 458.73 747.68 458.14 745.87 457.29 C 744.06 456.44 742.35 455.34 740.74 454.01 C 739.13 452.68 737.62 451.04 736.23 449.32 C 734.84 447.60 733.54 445.56 732.40 443.67 C 731.26 441.78 730.25 439.80 729.40 437.96 C 728.55 436.12 727.85 434.34 727.30 432.64 C 726.75 430.94 726.34 429.31 726.08 427.76 C 725.82 426.21 725.72 424.73 725.72 423.33 C 725.72 421.93 725.85 420.62 726.10 419.38 C 726.35 418.14 726.72 416.97 727.20 415.90 C 727.68 414.83 728.29 413.82 728.98 412.94 C 729.67 412.06 730.50 411.24 731.35 410.62 C 732.20 410.00 733.14 409.52 734.10 409.24 C 735.06 408.96 736.07 408.87 737.12 408.96 C 738.17 409.05 739.27 409.34 740.38 409.76 Z" />
<path fill="#f55255" opacity="1.00" fill-rule="evenodd" d="M 290.14 339.55 C 291.44 340.53 292.80 341.76 293.98 343.14 C 295.16 344.52 296.27 346.09 297.22 347.82 C 298.17 349.55 299.00 351.44 299.68 353.49 C 300.36 355.54 300.92 357.79 301.32 360.13 C 301.72 362.47 302.00 365.00 302.10 367.53 C 302.21 370.06 302.16 372.69 301.95 375.32 C 301.74 377.95 301.36 380.63 300.82 383.31 C 300.28 386.00 299.59 388.77 298.74 391.43 C 297.89 394.09 296.87 396.83 295.75 399.24 C 294.63 401.65 293.38 403.93 292.02 405.88 C 290.66 407.83 289.19 409.52 287.60 410.92 C 286.01 412.32 284.32 413.44 282.50 414.30 C 280.68 415.17 278.77 415.75 276.70 416.11 C 274.63 416.47 272.44 416.57 270.10 416.45 C 267.77 416.33 265.29 415.97 262.69 415.39 C 260.09 414.81 257.28 413.96 254.51 412.99 C 251.74 412.02 248.75 410.77 246.05 409.59 C 243.36 408.41 240.71 407.12 238.34 405.90 C 235.97 404.68 233.81 403.48 231.86 402.29 C 229.91 401.10 228.19 399.93 226.66 398.77 C 225.13 397.61 223.82 396.48 222.66 395.35 C 221.50 394.22 220.51 393.09 219.67 391.97 C 218.83 390.85 218.14 389.74 217.60 388.63 C 217.06 387.52 216.68 386.41 216.45 385.31 C 216.22 384.21 216.14 383.11 216.21 382.04 C 216.28 380.97 216.51 379.91 216.89 378.88 C 217.27 377.85 217.81 376.83 218.49 375.84 C 219.18 374.85 220.02 373.88 221.00 372.95 C 221.98 372.02 223.13 371.10 224.39 370.28 C 225.65 369.46 227.06 368.69 228.58 368.02 C 230.11 367.35 231.77 366.76 233.54 366.25 C 235.31 365.74 237.26 365.37 239.21 364.95 C 241.16 364.53 243.31 364.25 245.26 363.72 C 247.21 363.19 249.16 362.60 250.94 361.77 C 252.72 360.94 254.38 359.92 255.91 358.72 C 257.44 357.52 258.82 356.06 260.14 354.57 C 261.46 353.08 262.62 351.32 263.83 349.78 C 265.04 348.24 266.19 346.68 267.38 345.32 C 268.57 343.96 269.77 342.72 270.98 341.64 C 272.19 340.56 273.41 339.59 274.65 338.81 C 275.89 338.03 277.13 337.38 278.40 336.98 C 279.66 336.58 280.95 336.38 282.24 336.43 C 283.53 336.48 284.84 336.76 286.16 337.28 C 287.48 337.80 288.84 338.57 290.14 339.55 Z" />
<path fill="#f55255" opacity="1.00" fill-rule="evenodd" d="M 583.22 94.56 C 585.54 94.61 587.83 94.79 590.11 95.04 C 592.39 95.29 594.65 95.64 596.91 96.08 C 599.16 96.52 601.41 97.04 603.64 97.65 C 605.87 98.26 608.10 98.95 610.31 99.73 C 612.51 100.51 614.72 101.38 616.87 102.35 C 619.02 103.32 621.13 104.40 623.20 105.58 C 625.27 106.76 627.29 108.05 629.26 109.44 C 631.23 110.83 633.16 112.35 635.04 113.91 C 636.92 115.47 638.75 117.17 640.53 118.79 C 642.31 120.42 644.04 122.07 645.71 123.66 C 647.38 125.25 649.00 126.81 650.57 128.32 C 652.14 129.82 653.62 131.35 655.13 132.69 C 656.64 134.03 658.06 135.40 659.62 136.37 C 661.18 137.34 662.77 138.12 664.49 138.51 C 666.21 138.90 668.03 138.97 669.96 138.71 C 671.89 138.46 673.93 137.79 676.05 136.98 C 678.17 136.17 680.42 134.95 682.70 133.85 C 684.98 132.75 687.34 131.51 689.75 130.39 C 692.16 129.27 694.63 128.16 697.15 127.11 C 699.67 126.06 702.24 125.04 704.87 124.11 C 707.50 123.18 710.19 122.27 712.91 121.53 C 715.63 120.79 718.40 120.14 721.21 119.66 C 724.02 119.18 726.88 118.84 729.78 118.65 C 732.67 118.46 735.63 118.41 738.58 118.52 C 741.53 118.63 744.54 118.88 747.47 119.31 C 750.40 119.74 753.31 120.33 756.14 121.10 C 758.97 121.87 761.75 122.81 764.46 123.93 C 767.17 125.05 769.83 126.35 772.39 127.81 C 774.95 129.27 777.47 130.91 779.82 132.71 C 782.17 134.52 784.42 136.49 786.51 138.64 C 788.60 140.78 790.54 143.10 792.34 145.58 C 794.14 148.06 795.80 150.72 797.30 153.50 C 798.80 156.28 800.17 159.26 801.36 162.27 C 802.55 165.28 803.58 168.41 804.44 171.57 C 805.30 174.73 805.99 177.97 806.51 181.26 C 807.03 184.55 807.39 187.92 807.59 191.31 C 807.79 194.70 807.81 198.16 807.69 201.58 C 807.57 205.00 807.30 208.44 806.89 211.82 C 806.48 215.20 805.93 218.56 805.23 221.89 C 804.53 225.22 803.71 228.50 802.71 231.78 C 801.71 235.06 800.58 238.31 799.23 241.57 C 797.88 244.83 796.36 248.09 794.62 251.37 C 792.88 254.65 790.94 257.94 788.80 261.24 C 786.65 264.54 784.32 267.87 781.75 271.19 C 779.18 274.51 776.42 277.86 773.39 281.18 C 770.36 284.50 767.11 287.83 763.59 291.13 C 760.07 294.43 756.29 297.72 752.27 300.99 C 748.25 304.26 743.94 307.55 739.46 310.74 C 734.99 313.93 730.22 317.13 725.42 320.11 C 720.62 323.09 715.65 325.97 710.66 328.61 C 705.67 331.25 700.59 333.71 695.46 335.96 C 690.33 338.21 685.07 340.30 679.89 342.12 C 674.71 343.94 669.39 345.60 664.39 346.86 C 659.39 348.12 654.50 349.10 649.91 349.68 C 645.32 350.26 640.97 350.49 636.86 350.36 C 632.75 350.23 628.95 349.71 625.28 348.89 C 621.61 348.06 618.25 346.85 614.86 345.41 C 611.47 343.97 608.21 342.23 604.93 340.25 C 601.65 338.27 598.42 336.04 595.20 333.56 C 591.98 331.08 588.79 328.34 585.61 325.35 C 582.43 322.36 579.28 319.12 576.10 315.61 C 572.92 312.10 569.75 308.32 566.55 304.27 C 563.35 300.22 560.13 295.90 556.90 291.33 C 553.67 286.76 550.37 281.86 547.18 276.85 C 543.99 271.84 540.73 266.48 537.79 261.28 C 534.85 256.08 532.04 250.78 529.54 245.63 C 527.04 240.47 524.79 235.36 522.81 230.35 C 520.83 225.34 519.12 220.37 517.64 215.55 C 516.16 210.73 514.97 205.95 513.96 201.43 C 512.95 196.91 512.17 192.55 511.58 188.44 C 510.99 184.33 510.61 180.45 510.42 176.79 C 510.23 173.13 510.28 169.72 510.46 166.48 C 510.64 163.24 511.05 160.26 511.52 157.37 C 511.99 154.48 512.61 151.76 513.28 149.14 C 513.95 146.52 514.71 144.02 515.56 141.63 C 516.40 139.24 517.35 136.98 518.35 134.82 C 519.35 132.66 520.45 130.63 521.56 128.67 C 522.67 126.71 523.84 124.85 525.03 123.07 C 526.22 121.29 527.44 119.58 528.69 117.97 C 529.94 116.36 531.20 114.83 532.55 113.38 C 533.90 111.93 535.24 110.57 536.77 109.28 C 538.30 107.99 539.92 106.77 541.71 105.62 C 543.50 104.47 545.44 103.39 547.53 102.39 C 549.62 101.39 551.89 100.45 554.22 99.60 C 556.55 98.75 559.08 97.97 561.53 97.31 C 563.98 96.66 566.49 96.10 568.93 95.67 C 571.37 95.24 573.79 94.94 576.17 94.75 C 578.55 94.56 580.90 94.51 583.22 94.56 Z M 756.03 140.48 C 757.11 140.95 758.37 141.55 759.57 142.25 C 760.77 142.95 762.04 143.77 763.25 144.69 C 764.46 145.61 765.67 146.63 766.85 147.75 C 768.03 148.87 769.21 150.15 770.31 151.39 C 771.41 152.63 772.52 154.04 773.46 155.21 C 774.40 156.38 775.22 157.34 775.96 158.39 C 776.70 159.44 777.08 159.47 777.91 161.52 C 778.74 163.57 779.43 165.49 781.03 170.90 L 787.50 194.00 L 768.72 166.33 C 763.91 159.46 761.13 156.01 758.66 152.80 C 756.19 149.59 755.15 148.66 753.90 147.10 C 752.65 145.54 751.82 144.48 751.15 143.47 C 750.48 142.46 750.08 141.66 749.88 141.03 C 749.68 140.40 749.76 139.97 749.96 139.66 C 750.16 139.35 750.55 139.20 751.08 139.16 C 751.61 139.12 752.30 139.22 753.12 139.44 C 753.94 139.66 754.95 140.01 756.03 140.48 Z" />
</g>
<g id="#fab53cff">
<path fill="#fab53c" opacity="1.00" fill-rule="evenodd" d="M 488.00 480.50 L 538.00 488.50 L 510.50 494.00 Z" />
<path fill="#fab53c" opacity="1.00" fill-rule="evenodd" d="M 516.22 417.37 C 517.52 417.81 518.87 418.38 520.34 419.13 C 521.81 419.88 523.36 420.80 525.02 421.89 C 526.68 422.98 528.45 424.25 530.31 425.68 C 532.17 427.11 534.17 428.76 536.20 430.47 C 538.23 432.18 540.39 434.12 542.50 435.93 C 544.61 437.74 546.76 439.59 548.86 441.32 C 550.96 443.05 553.05 444.73 555.09 446.33 C 557.13 447.93 559.19 449.44 561.13 450.90 C 563.07 452.35 565.03 453.74 566.74 455.06 C 568.45 456.38 570.04 457.63 571.39 458.83 C 572.74 460.03 573.89 461.17 574.83 462.25 C 575.77 463.33 576.50 464.34 577.03 465.30 C 577.56 466.26 577.88 467.17 578.01 468.04 C 578.14 468.92 578.07 469.75 577.80 470.55 C 577.53 471.35 577.07 472.12 576.41 472.86 C 575.75 473.60 574.90 474.31 573.86 474.97 C 572.82 475.63 571.58 476.27 570.16 476.82 C 568.74 477.37 567.12 477.87 565.33 478.28 C 563.54 478.69 561.57 479.02 559.41 479.28 C 557.25 479.54 554.90 479.73 552.39 479.82 C 549.88 479.91 547.17 479.93 544.35 479.83 C 541.53 479.73 538.55 479.53 535.46 479.21 C 532.37 478.88 529.13 478.44 525.80 477.88 C 522.47 477.32 518.92 476.63 515.47 475.87 C 512.02 475.11 508.34 474.20 505.10 473.31 C 501.86 472.42 498.74 471.46 496.05 470.51 C 493.36 469.56 490.99 468.58 488.97 467.60 C 486.95 466.62 485.28 465.62 483.91 464.61 C 482.54 463.60 481.54 462.57 480.75 461.54 C 479.96 460.51 479.46 459.47 479.18 458.42 C 478.90 457.37 478.86 456.31 479.05 455.24 C 479.24 454.17 479.71 453.12 480.31 452.01 C 480.91 450.90 481.80 449.80 482.66 448.59 C 483.53 447.38 484.52 446.10 485.50 444.72 C 486.48 443.34 487.50 441.86 488.53 440.29 C 489.56 438.73 490.63 437.01 491.70 435.33 C 492.77 433.64 493.87 431.80 494.93 430.18 C 495.99 428.56 497.04 426.97 498.05 425.59 C 499.06 424.21 500.03 422.98 500.97 421.92 C 501.91 420.86 502.80 419.96 503.70 419.21 C 504.60 418.46 505.44 417.88 506.37 417.43 C 507.30 416.99 508.24 416.69 509.27 416.54 C 510.30 416.39 511.39 416.38 512.55 416.52 C 513.71 416.66 514.92 416.94 516.22 417.37 Z" />
<path fill="#fab53c" opacity="1.00" fill-rule="evenodd" d="M 369.52 848.79 C 371.00 848.98 372.78 849.69 374.28 850.60 C 375.78 851.51 377.29 852.78 378.54 854.24 C 379.79 855.70 380.87 857.43 381.77 859.38 C 382.67 861.33 383.33 863.59 383.95 865.92 C 384.57 868.25 384.94 870.90 385.50 873.34 C 386.06 875.78 386.59 878.28 387.30 880.58 C 388.01 882.88 388.82 885.07 389.77 887.13 C 390.72 889.19 391.75 891.09 392.98 892.93 C 394.21 894.77 395.52 896.46 397.13 898.15 C 398.74 899.84 400.54 901.47 402.63 903.09 C 404.72 904.72 407.08 906.31 409.66 907.90 C 412.24 909.49 415.22 911.06 418.13 912.60 C 421.04 914.14 424.35 915.66 427.10 917.12 C 429.85 918.58 432.51 919.99 434.62 921.34 C 436.73 922.69 438.44 923.97 439.74 925.20 C 441.04 926.43 441.86 927.58 442.41 928.70 C 442.96 929.82 443.03 930.87 443.04 931.91 C 443.06 932.95 442.81 933.95 442.50 934.94 C 442.19 935.94 441.75 936.92 441.21 937.88 C 440.66 938.84 440.00 939.80 439.23 940.70 C 438.46 941.60 437.57 942.50 436.58 943.29 C 435.59 944.08 434.48 944.82 433.28 945.44 C 432.08 946.06 430.77 946.59 429.36 947.02 C 427.95 947.45 426.43 947.77 424.82 948.04 C 423.21 948.31 421.49 948.45 419.70 948.63 C 417.91 948.81 416.04 948.94 414.10 949.10 C 412.16 949.26 410.14 949.42 408.06 949.57 C 405.98 949.73 403.80 949.92 401.61 950.03 C 399.42 950.14 397.12 950.30 394.91 950.23 C 392.70 950.16 390.48 950.01 388.34 949.64 C 386.20 949.27 384.11 948.73 382.07 948.00 C 380.03 947.27 378.03 946.35 376.13 945.28 C 374.23 944.21 372.35 942.94 370.65 941.56 C 368.95 940.18 367.36 938.64 365.93 936.98 C 364.50 935.32 363.23 933.53 362.10 931.61 C 360.97 929.69 360.00 927.62 359.17 925.48 C 358.34 923.34 357.67 921.04 357.13 918.78 C 356.59 916.52 356.19 914.20 355.93 911.92 C 355.67 909.64 355.56 907.36 355.57 905.09 C 355.58 902.82 355.77 900.58 356.01 898.30 C 356.25 896.01 356.66 893.76 357.01 891.38 C 357.36 889.00 357.75 886.57 358.08 884.01 C 358.41 881.45 358.71 878.77 358.98 876.02 C 359.25 873.27 359.44 870.30 359.72 867.51 C 360.00 864.72 360.19 861.69 360.64 859.27 C 361.09 856.85 361.63 854.63 362.42 853.00 C 363.21 851.37 364.21 850.18 365.39 849.48 C 366.57 848.78 368.04 848.60 369.52 848.79 Z" />
<path fill="#fab53c" opacity="1.00" fill-rule="evenodd" d="M 491.13 850.16 C 491.69 852.03 491.86 854.41 492.32 856.58 C 492.78 858.75 493.20 861.05 493.88 863.16 C 494.56 865.27 495.38 867.31 496.40 869.23 C 497.42 871.15 498.57 872.96 500.02 874.71 C 501.47 876.47 503.03 878.09 505.09 879.76 C 507.14 881.43 509.51 883.06 512.35 884.71 C 515.19 886.37 518.48 888.02 522.14 889.69 C 525.80 891.36 530.12 893.07 534.30 894.72 C 538.48 896.37 543.36 898.07 547.23 899.61 C 551.10 901.15 554.80 902.64 557.53 903.99 C 560.26 905.34 562.31 906.57 563.62 907.69 C 564.93 908.81 565.34 909.78 565.40 910.70 C 565.46 911.62 564.61 912.40 563.96 913.21 C 563.31 914.02 562.32 914.78 561.52 915.58 C 560.72 916.38 559.92 917.18 559.16 917.99 C 558.40 918.80 557.70 919.64 556.98 920.44 C 556.26 921.24 555.61 922.07 554.83 922.80 C 554.06 923.53 553.25 924.22 552.33 924.80 C 551.41 925.38 550.42 925.88 549.33 926.30 C 548.24 926.72 547.04 927.02 545.81 927.31 C 544.58 927.59 543.24 927.76 541.97 928.01 C 540.71 928.26 539.42 928.48 538.22 928.79 C 537.02 929.10 535.86 929.45 534.75 929.85 C 533.64 930.25 532.60 930.72 531.57 931.19 C 530.54 931.66 529.59 932.20 528.59 932.65 C 527.60 933.10 526.62 933.54 525.60 933.90 C 524.59 934.26 523.56 934.56 522.50 934.79 C 521.44 935.02 520.39 935.20 519.27 935.29 C 518.15 935.38 517.02 935.41 515.77 935.32 C 514.51 935.23 513.20 935.06 511.74 934.77 C 510.28 934.48 508.71 934.07 507.03 933.56 C 505.35 933.05 503.53 932.41 501.68 931.70 C 499.83 930.99 497.82 930.14 495.92 929.28 C 494.02 928.42 492.11 927.49 490.30 926.54 C 488.49 925.59 486.74 924.60 485.07 923.57 C 483.40 922.54 481.79 921.48 480.28 920.37 C 478.77 919.26 477.31 918.12 475.99 916.92 C 474.67 915.72 473.43 914.47 472.33 913.15 C 471.23 911.83 470.25 910.46 469.38 909.02 C 468.51 907.58 467.77 906.11 467.12 904.48 C 466.47 902.86 465.96 901.22 465.49 899.27 C 465.02 897.32 464.65 895.19 464.33 892.77 C 464.01 890.35 463.75 887.65 463.56 884.72 C 463.37 881.79 463.20 878.46 463.21 875.18 C 463.21 871.90 463.23 868.21 463.59 865.04 C 463.95 861.87 464.49 858.76 465.37 856.16 C 466.25 853.55 467.43 851.28 468.87 849.41 C 470.31 847.54 472.15 846.04 474.01 844.92 C 475.87 843.80 478.15 843.05 480.03 842.70 C 481.91 842.35 483.79 842.40 485.28 842.84 C 486.77 843.28 488.01 844.13 488.99 845.35 C 489.97 846.57 490.57 848.29 491.13 850.16 Z M 511.00 905.50 L 540.00 915.50 L 522.50 915.00 Z" />
</g>
<g id="#fad9cdff">
<path fill="#fad9cd" opacity="1.00" fill-rule="evenodd" d="M 414.49 429.64 C 415.89 429.84 417.32 430.23 418.66 430.69 C 420.00 431.15 421.31 431.74 422.53 432.41 C 423.75 433.08 424.91 433.85 425.99 434.70 C 427.07 435.55 428.08 436.50 429.00 437.51 C 429.92 438.52 430.78 439.64 431.50 440.77 C 432.22 441.90 432.83 443.08 433.31 444.28 C 433.79 445.48 434.15 446.71 434.38 447.96 C 434.61 449.21 434.71 450.50 434.69 451.78 C 434.67 453.06 434.51 454.38 434.24 455.63 C 433.97 456.88 433.57 458.11 433.06 459.27 C 432.55 460.43 431.90 461.53 431.15 462.58 C 430.39 463.63 429.51 464.64 428.53 465.55 C 427.55 466.46 426.44 467.33 425.29 468.05 C 424.15 468.77 422.92 469.40 421.66 469.88 C 420.40 470.36 419.08 470.70 417.72 470.91 C 416.37 471.12 414.94 471.20 413.53 471.15 C 412.12 471.10 410.63 470.91 409.25 470.61 C 407.87 470.31 406.51 469.89 405.26 469.36 C 404.01 468.83 402.82 468.19 401.73 467.44 C 400.64 466.69 399.63 465.81 398.71 464.85 C 397.79 463.89 396.94 462.81 396.21 461.69 C 395.47 460.57 394.84 459.38 394.30 458.16 C 393.76 456.94 393.32 455.66 393.00 454.35 C 392.68 453.04 392.45 451.66 392.35 450.29 C 392.25 448.92 392.24 447.48 392.41 446.12 C 392.58 444.76 392.90 443.41 393.39 442.13 C 393.88 440.85 394.55 439.62 395.37 438.45 C 396.19 437.28 397.21 436.16 398.33 435.14 C 399.44 434.12 400.76 433.14 402.06 432.35 C 403.36 431.56 404.74 430.89 406.11 430.42 C 407.48 429.95 408.87 429.64 410.27 429.51 C 411.67 429.38 413.09 429.44 414.49 429.64 Z" />
</g>
</svg>
