<?xml version="1.0" encoding="UTF-8" ?>
<!DOCTYPE svg PUBLIC "-//W3C//DTD SVG 1.1//EN" "http://www.w3.org/Graphics/SVG/1.1/DTD/svg11.dtd">
<svg width="1000pt" height="1000pt" viewBox="0 0 1000 1000" version="1.1" xmlns="http://www.w3.org/2000/svg" shape-rendering="geometricPrecision">
<g id="#010000ff">
<path fill="#010000" opacity="1.00" fill-rule="evenodd" stroke="#010000" stroke-width="0.75" stroke-linejoin="round" stroke-linecap="round" paint-order="stroke fill" d="M 396.16 921.25 C 396.38 920.88 396.77 921.05 397.16 921.06 C 397.55 921.06 398.14 921.19 398.50 921.28 C 398.86 921.37 399.03 921.46 399.32 921.60 C 399.61 921.75 399.92 921.93 400.24 922.15 C 400.56 922.37 400.74 922.50 401.24 922.91 C 401.74 923.32 402.77 924.23 403.23 924.61 C 403.69 924.99 403.77 925.05 404.01 925.22 C 404.25 925.39 404.34 925.46 404.64 925.64 C 404.94 925.82 405.47 926.12 405.79 926.31 C 406.11 926.50 406.10 926.50 406.56 926.81 C 407.02 927.12 408.07 927.86 408.56 928.20 C 409.05 928.55 409.21 928.68 409.49 928.88 C 409.77 929.08 409.82 929.14 410.22 929.38 C 410.62 929.62 411.48 930.05 411.90 930.29 C 412.32 930.53 412.50 930.68 412.75 930.84 C 413.00 931.00 413.16 931.08 413.42 931.23 C 413.68 931.38 413.78 931.44 414.33 931.72 C 414.88 932.00 416.20 932.65 416.80 932.97 C 417.40 933.29 417.60 933.42 417.92 933.64 C 418.25 933.86 418.52 934.07 418.75 934.29 C 418.98 934.50 419.14 934.63 419.29 934.93 C 419.44 935.23 419.63 935.74 419.66 936.09 C 419.69 936.44 419.59 936.75 419.46 937.01 C 419.33 937.27 419.11 937.49 418.87 937.65 C 418.63 937.81 418.31 937.96 418.04 937.97 C 417.77 937.98 417.52 937.82 417.22 937.70 C 416.92 937.58 416.56 937.33 416.26 937.23 C 415.96 937.13 415.69 937.15 415.41 937.09 C 415.13 937.03 414.84 936.96 414.56 936.84 C 414.28 936.72 414.10 936.58 413.75 936.39 C 413.40 936.20 413.00 935.99 412.46 935.73 C 411.92 935.48 411.00 935.08 410.52 934.86 C 410.04 934.64 409.87 934.56 409.57 934.41 C 409.27 934.26 409.00 934.11 408.75 933.96 C 408.50 933.81 408.35 933.72 408.04 933.51 C 407.73 933.30 407.41 933.03 406.90 932.71 C 406.39 932.39 405.44 931.89 404.97 931.58 C 404.50 931.27 404.38 931.07 404.10 930.84 C 403.82 930.61 403.55 930.38 403.30 930.22 C 403.05 930.06 402.86 930.02 402.59 929.85 C 402.32 929.68 402.03 929.50 401.69 929.22 C 401.35 928.94 400.89 928.49 400.52 928.17 C 400.15 927.85 399.77 927.54 399.46 927.32 C 399.15 927.11 398.96 927.06 398.68 926.88 C 398.40 926.70 398.12 926.53 397.80 926.26 C 397.48 925.99 396.99 925.53 396.74 925.26 C 396.49 924.99 396.45 924.97 396.30 924.64 C 396.15 924.31 395.88 923.85 395.86 923.28 C 395.84 922.71 395.94 921.62 396.16 921.25 Z" />
<path fill="#010000" opacity="1.00" fill-rule="evenodd" stroke="#010000" stroke-width="0.75" stroke-linejoin="round" stroke-linecap="round" paint-order="stroke fill" d="M 282.00 328.50 C 285.83 328.19 290.64 328.44 294.46 330.12 C 298.28 331.80 302.18 335.14 304.92 338.56 C 307.67 341.98 309.60 345.45 310.93 350.62 C 312.26 355.79 313.25 362.43 312.90 369.59 C 312.55 376.75 311.50 385.12 308.86 393.55 C 306.22 401.98 300.62 414.30 297.04 420.18 C 293.46 426.06 291.53 427.41 287.40 428.85 C 283.27 430.29 279.55 430.48 272.25 428.82 C 264.95 427.16 252.34 423.04 243.59 418.91 C 234.84 414.78 225.33 408.62 219.75 404.04 C 214.17 399.46 212.06 396.19 210.13 391.44 C 208.19 386.69 207.48 380.21 208.14 375.57 C 208.80 370.93 211.35 366.68 214.08 363.60 C 216.81 360.52 220.77 358.35 224.53 357.10 C 228.29 355.85 231.36 355.35 236.64 356.12 C 241.91 356.89 252.61 362.34 256.18 361.73 C 259.75 361.12 256.77 356.13 258.08 352.44 C 259.39 348.75 261.79 343.01 264.03 339.60 C 266.27 336.19 268.50 333.85 271.50 332.00 C 274.50 330.15 278.17 328.81 282.00 328.50 Z M 279.00 333.50 C 281.66 333.01 286.39 332.50 289.46 333.08 C 292.53 333.66 295.35 335.57 297.44 337.01 C 299.53 338.45 300.29 338.28 302.03 341.70 C 303.77 345.12 306.90 351.76 307.89 357.55 C 308.88 363.34 308.45 370.75 307.95 376.43 C 307.45 382.12 307.04 385.19 304.88 391.66 C 302.72 398.13 298.27 409.73 295.01 415.25 C 291.75 420.77 290.26 423.54 285.32 424.80 C 280.38 426.06 272.99 424.97 265.39 422.84 C 257.79 420.71 246.34 415.34 239.71 412.03 C 233.08 408.72 229.52 406.08 225.58 402.99 C 221.65 399.90 218.34 396.89 216.10 393.47 C 213.86 390.05 212.28 386.45 212.12 382.47 C 211.96 378.49 212.75 373.13 215.15 369.58 C 217.55 366.03 222.46 362.56 226.53 361.15 C 230.60 359.74 234.31 359.93 239.60 361.14 C 244.89 362.35 253.90 371.16 258.30 368.43 C 262.70 365.70 263.47 350.18 266.00 344.78 C 268.53 339.38 271.33 337.88 273.50 336.00 C 275.67 334.12 276.34 333.99 279.00 333.50 Z" />
<path fill="#010000" opacity="1.00" fill-rule="evenodd" stroke="#010000" stroke-width="0.75" stroke-linejoin="round" stroke-linecap="round" paint-order="stroke fill" d="M 571.00 88.50 C 578.49 88.19 592.05 87.57 601.42 89.15 C 610.79 90.73 621.05 95.30 627.24 97.96 C 633.43 100.62 634.27 101.51 638.56 105.13 C 642.85 108.75 648.45 113.48 652.97 119.66 C 657.49 125.84 659.89 141.80 665.67 142.22 C 671.44 142.64 679.14 127.35 687.62 122.17 C 696.10 116.99 706.59 113.34 716.53 111.16 C 726.47 108.98 739.41 108.94 747.24 109.09 C 755.07 109.24 757.97 110.39 763.52 112.07 C 769.07 113.75 774.48 115.23 780.54 119.17 C 786.60 123.11 794.36 128.34 799.90 135.70 C 805.44 143.06 810.97 155.82 813.81 163.31 C 816.65 170.80 816.43 173.75 816.95 180.62 C 817.47 187.49 817.62 196.34 816.93 204.52 C 816.24 212.70 815.82 219.72 812.82 229.68 C 809.82 239.64 804.09 254.67 798.95 264.29 C 793.82 273.91 787.60 280.77 782.01 287.39 C 776.42 294.01 771.55 298.55 765.44 303.99 C 759.33 309.43 753.65 314.23 745.33 320.05 C 737.01 325.87 725.49 333.43 715.50 338.91 C 705.51 344.39 696.42 348.74 685.38 352.95 C 674.34 357.16 654.49 358.95 649.24 364.17 C 643.99 369.39 653.47 379.58 653.87 384.28 C 654.27 388.98 655.45 390.56 651.67 392.36 C 647.89 394.17 633.71 382.97 631.19 395.11 C 628.67 407.25 622.23 520.50 621.17 539.42 C 620.11 558.34 617.87 565.40 621.38 571.00 C 624.89 576.60 638.10 572.25 642.23 573.03 C 646.36 573.81 646.24 574.15 648.53 576.10 C 650.82 578.05 653.60 579.69 655.99 584.74 C 658.38 589.79 661.72 599.81 662.88 606.43 C 664.04 613.04 663.45 619.08 662.95 624.43 C 662.46 629.78 661.73 633.70 659.91 638.52 C 658.09 643.34 654.60 649.63 652.01 653.37 C 649.42 657.11 648.00 658.54 644.38 660.98 C 640.76 663.42 632.37 660.83 630.29 668.03 C 628.21 675.23 632.29 694.77 631.89 704.20 C 631.49 713.63 630.24 717.02 627.89 724.59 C 625.54 732.16 622.84 740.31 617.82 749.61 C 612.81 758.91 599.66 778.21 597.80 780.39 C 595.94 782.57 593.16 779.61 594.41 777.04 C 595.66 774.47 608.76 757.09 613.84 747.53 C 618.92 737.97 622.51 727.53 624.86 719.66 C 627.21 711.79 627.73 708.57 627.91 700.29 C 628.09 692.01 626.58 673.16 625.96 670.00 C 625.34 666.84 624.12 666.07 621.37 667.22 C 618.62 668.38 613.94 674.31 609.45 676.93 C 604.96 679.55 599.93 681.45 594.45 682.95 C 588.97 684.45 581.77 685.43 576.58 685.94 C 571.39 686.45 564.92 681.29 563.31 686.02 C 561.70 690.75 566.32 706.40 566.93 714.32 C 567.54 722.24 567.45 726.84 566.95 733.53 C 566.45 740.22 565.46 747.95 563.95 754.45 C 562.44 760.95 560.74 766.21 557.91 772.53 C 555.08 778.85 550.68 786.71 547.00 792.39 C 543.32 798.07 541.37 801.03 535.80 806.60 C 530.23 812.17 520.03 820.94 513.61 825.82 C 507.19 830.71 500.19 828.86 497.27 835.91 C 494.35 842.96 495.38 860.78 496.11 868.12 C 496.84 875.46 498.32 876.76 501.65 879.92 C 504.98 883.07 506.78 884.49 516.11 887.05 C 525.44 889.61 555.43 894.38 563.84 896.97 C 572.25 899.56 573.81 903.03 575.80 905.46 C 577.78 907.89 578.01 909.18 575.75 911.53 C 573.49 913.88 564.40 916.55 562.26 919.53 C 560.12 922.51 563.73 926.87 562.89 929.42 C 562.05 931.97 561.74 934.53 557.21 934.83 C 552.69 935.13 540.68 930.25 535.74 931.25 C 530.80 932.25 529.80 938.92 527.55 940.86 C 525.30 942.80 525.65 943.05 522.24 942.91 C 518.83 942.77 510.40 942.75 502.34 939.79 C 494.28 936.83 479.25 928.31 473.88 925.15 C 468.51 921.99 468.61 921.79 465.99 918.39 C 463.37 914.99 459.23 914.11 458.15 904.72 C 457.07 895.33 462.43 857.88 458.02 849.08 C 453.61 840.28 438.94 851.46 431.67 851.93 C 424.41 852.40 420.74 852.59 414.43 851.91 C 408.12 851.23 397.86 841.52 393.81 847.85 C 389.76 854.18 390.08 884.15 390.13 889.88 C 390.18 895.61 390.75 895.65 394.22 898.51 C 397.69 901.37 401.33 903.96 410.95 907.03 C 420.56 910.10 445.85 915.04 451.91 916.92 C 457.97 918.80 459.21 920.29 460.87 922.54 C 462.53 924.79 462.48 928.37 461.90 930.44 C 461.32 932.51 459.85 933.77 457.39 934.96 C 454.93 936.15 449.22 935.69 447.15 937.61 C 445.07 939.53 446.23 943.61 444.94 946.49 C 443.65 949.37 441.99 953.30 439.42 954.87 C 436.85 956.44 432.66 956.38 429.52 955.91 C 426.38 955.44 423.09 952.70 420.55 952.07 C 418.01 951.45 417.83 950.91 414.27 952.16 C 410.71 953.41 400.90 959.39 395.60 960.84 C 390.30 962.29 387.29 962.18 382.45 960.86 C 377.61 959.54 371.29 956.33 366.56 952.92 C 361.83 949.51 357.48 945.46 354.08 940.40 C 350.68 935.34 347.46 928.21 346.14 922.53 C 344.82 916.85 344.85 913.52 346.14 906.31 C 347.43 899.10 352.30 890.17 353.90 879.29 C 355.50 868.40 357.37 849.19 355.76 841.00 C 354.15 832.81 350.30 832.48 344.26 830.13 C 338.22 827.78 327.47 829.07 319.53 826.88 C 311.59 824.69 303.13 820.47 296.62 816.98 C 290.11 813.49 285.92 810.35 280.49 805.92 C 275.06 801.49 269.27 796.33 264.03 790.42 C 258.79 784.51 253.39 777.60 249.07 770.45 C 244.75 763.31 240.76 754.71 238.10 747.55 C 235.44 740.39 233.77 734.15 233.10 727.50 C 232.43 720.85 232.87 712.73 234.10 707.67 C 235.33 702.61 238.27 699.39 240.51 697.13 C 242.75 694.87 244.69 694.41 247.56 694.08 C 250.44 693.75 256.49 698.04 257.76 695.14 C 259.03 692.24 254.54 681.48 255.17 676.65 C 255.80 671.82 259.11 668.23 261.53 666.15 C 263.94 664.07 265.50 663.37 269.66 664.16 C 273.83 664.95 280.70 669.77 286.52 670.88 C 292.34 671.99 297.62 672.65 304.60 670.81 C 311.58 668.97 321.19 664.93 328.42 659.85 C 335.65 654.77 341.89 648.39 347.96 640.33 C 354.03 632.27 360.69 621.14 364.84 611.50 C 368.99 601.86 371.37 592.44 372.88 582.46 C 374.39 572.48 374.27 561.06 373.93 551.61 C 373.59 542.16 373.59 541.03 370.81 525.76 C 368.03 510.49 359.69 477.46 357.23 459.99 C 354.77 442.52 355.90 429.85 356.05 420.94 C 356.20 412.03 356.27 413.48 358.12 406.24 C 359.97 399.00 362.95 386.96 367.12 377.52 C 371.29 368.08 376.70 358.00 383.11 349.60 C 389.52 341.20 397.50 333.37 405.56 327.13 C 413.62 320.89 423.01 315.66 431.48 312.16 C 439.95 308.66 449.18 306.96 456.38 306.12 C 463.58 305.28 467.15 305.47 474.66 307.14 C 482.17 308.81 492.83 311.81 501.46 316.14 C 510.09 320.47 518.86 326.09 526.42 333.15 C 533.98 340.20 541.89 350.23 546.80 358.47 C 551.71 366.71 554.04 373.75 555.88 382.59 C 557.72 391.43 558.45 401.90 557.86 411.50 C 557.27 421.10 551.20 433.75 552.32 440.16 C 553.44 446.57 559.60 447.15 564.60 449.96 C 569.60 452.77 578.25 454.58 582.30 457.01 C 586.34 459.44 587.95 461.63 588.87 464.54 C 589.79 467.45 589.73 471.41 587.83 474.47 C 585.93 477.53 581.35 480.84 577.46 482.92 C 573.57 485.00 568.98 486.08 564.48 486.95 C 559.98 487.82 555.62 486.48 550.45 488.14 C 545.28 489.80 539.34 494.80 533.47 496.90 C 527.60 499.00 519.29 497.16 515.22 500.75 C 511.15 504.34 510.42 512.95 509.07 518.45 C 507.72 523.95 506.75 526.44 507.11 533.75 C 507.47 541.06 507.70 554.33 511.24 562.33 C 514.78 570.34 523.78 577.33 528.37 581.78 C 532.96 586.23 532.76 586.37 538.78 589.03 C 544.79 591.69 556.16 596.99 564.46 597.77 C 572.76 598.55 579.91 597.66 588.58 593.73 C 597.25 589.80 611.74 584.17 616.50 574.16 C 621.26 564.15 615.81 557.93 617.17 533.68 C 618.53 509.43 627.01 405.76 626.54 394.89 C 626.07 384.02 613.94 388.59 610.73 386.00 C 607.52 383.41 605.93 382.90 607.27 379.35 C 608.61 375.80 617.70 366.43 618.79 364.71 C 619.88 362.99 620.21 362.62 618.64 361.32 C 617.07 360.02 605.39 353.20 598.49 347.92 C 591.59 342.64 586.50 339.22 577.26 329.62 C 568.02 320.02 553.73 305.11 543.08 290.32 C 532.43 275.53 520.01 253.82 513.35 240.88 C 506.69 227.94 505.33 220.46 503.12 212.68 C 500.91 204.90 500.26 203.17 500.09 194.19 C 499.91 185.21 500.74 168.06 502.07 158.78 C 503.40 149.50 505.38 145.07 508.07 138.52 C 510.76 131.97 512.83 126.17 518.22 119.46 C 523.61 112.75 534.01 102.99 540.39 98.25 C 546.77 93.51 551.40 92.63 556.50 91.00 C 561.60 89.38 563.51 88.81 571.00 88.50 Z M 451.00 311.50 C 458.13 311.35 473.50 311.82 481.25 313.08 C 489.00 314.34 491.96 316.39 497.52 319.07 C 503.07 321.75 508.20 324.11 514.58 329.18 C 520.96 334.25 530.44 342.94 535.82 349.47 C 541.20 356.00 544.35 363.17 546.88 368.38 C 549.41 373.59 549.82 374.39 550.98 380.75 C 552.14 387.11 554.26 397.73 553.85 406.53 C 553.44 415.32 549.07 431.76 548.54 433.52 C 548.01 435.28 546.41 434.46 545.51 433.94 C 544.61 433.42 542.87 432.34 543.11 430.42 C 543.35 428.50 546.30 425.74 546.93 422.43 C 547.56 419.12 547.96 414.08 546.89 410.54 C 545.82 407.00 542.58 402.73 540.51 401.17 C 538.44 399.61 536.66 399.57 534.48 401.17 C 532.30 402.77 530.55 409.62 527.41 410.77 C 524.26 411.92 518.62 408.34 515.61 408.07 C 512.60 407.80 512.67 407.29 509.35 409.17 C 506.03 411.05 499.44 414.06 495.04 419.74 C 490.64 425.42 487.56 437.49 482.93 443.27 C 478.30 449.05 470.07 451.39 467.26 454.43 C 464.45 457.47 465.76 459.30 466.07 461.48 C 466.38 463.66 466.98 465.35 469.12 467.52 C 471.26 469.69 476.56 472.02 478.89 474.52 C 481.22 477.02 480.81 479.62 483.10 482.53 C 485.39 485.44 488.23 489.07 492.64 491.96 C 497.05 494.85 507.82 493.81 509.57 499.88 C 511.32 505.95 504.05 519.64 503.14 528.41 C 502.23 537.18 502.73 544.54 504.10 552.48 C 505.47 560.42 505.59 563.10 511.37 576.06 C 517.15 589.02 531.68 614.65 538.77 630.22 C 545.86 645.79 550.03 656.62 553.88 669.48 C 557.73 682.35 560.53 695.59 561.86 707.41 C 563.19 719.23 563.03 730.26 561.88 740.41 C 560.73 750.56 557.49 760.92 554.98 768.29 C 552.47 775.66 551.00 778.27 546.84 784.61 C 542.68 790.95 535.45 800.45 530.03 806.35 C 524.61 812.25 521.07 815.42 514.33 820.01 C 507.59 824.60 497.24 830.38 489.57 833.88 C 481.90 837.38 476.85 838.81 468.34 840.98 C 459.83 843.15 448.12 845.89 438.53 846.89 C 428.94 847.88 417.28 847.43 410.80 846.95 C 404.32 846.47 401.75 845.10 399.67 843.99 C 397.59 842.88 396.83 842.10 398.34 840.28 C 399.85 838.46 414.24 826.42 415.66 824.72 C 417.08 823.02 416.12 820.16 414.23 821.32 C 412.34 822.48 402.38 832.56 397.59 835.83 C 392.80 839.10 389.51 839.91 385.50 840.93 C 381.49 841.95 377.05 842.12 373.55 841.95 C 370.05 841.78 367.63 841.26 364.48 839.93 C 361.33 838.60 356.84 836.26 354.62 833.96 C 352.40 831.66 355.34 827.63 351.17 826.12 C 347.00 824.62 336.07 825.99 329.59 824.93 C 323.11 823.87 320.09 823.60 312.27 819.77 C 304.45 815.94 290.87 808.18 282.68 801.97 C 274.49 795.76 268.55 788.94 263.11 782.51 C 257.67 776.08 253.88 770.58 250.05 763.41 C 246.22 756.24 242.28 747.45 240.12 739.50 C 237.96 731.55 237.11 721.55 237.10 715.73 C 237.09 709.91 238.63 707.37 240.04 704.60 C 241.44 701.83 243.46 700.03 245.53 699.10 C 247.60 698.17 250.30 698.54 252.48 699.05 C 254.66 699.56 255.62 699.71 258.60 702.16 C 261.58 704.61 268.47 712.53 270.35 713.76 C 272.23 714.99 274.48 714.17 273.69 712.07 C 272.90 709.97 262.24 691.43 260.23 686.81 C 258.22 682.19 258.54 681.27 259.10 678.49 C 259.66 675.71 261.32 671.69 263.58 670.13 C 265.84 668.57 268.18 668.18 272.66 669.14 C 277.14 670.10 284.83 674.89 290.46 675.86 C 296.09 676.83 301.76 675.77 306.43 674.95 C 311.10 674.13 314.47 672.80 318.50 670.95 C 322.53 669.10 325.69 667.76 330.60 663.83 C 335.51 659.90 342.57 653.80 347.96 647.40 C 353.35 641.00 358.61 633.54 362.93 625.41 C 367.25 617.28 371.38 606.65 373.88 598.61 C 376.38 590.57 377.43 587.42 377.91 577.17 C 378.40 566.92 379.08 553.83 376.79 537.13 C 374.50 520.43 366.95 492.56 364.16 476.99 C 361.37 461.43 360.75 452.51 360.07 443.74 C 359.39 434.97 359.39 431.77 360.07 424.39 C 360.75 417.00 361.61 408.40 364.12 399.43 C 366.63 390.46 370.47 379.53 375.11 370.57 C 379.75 361.61 386.57 352.26 391.97 345.68 C 397.37 339.10 402.40 335.19 407.49 331.08 C 412.58 326.97 417.35 323.90 422.52 321.05 C 427.69 318.20 433.75 315.59 438.50 314.00 C 443.25 312.41 443.88 311.65 451.00 311.50 Z M 575.00 92.50 C 582.62 92.34 597.12 93.11 604.21 94.04 C 611.30 94.97 612.67 95.91 617.55 98.09 C 622.43 100.27 628.27 103.21 633.49 107.10 C 638.71 110.99 645.10 117.32 648.85 121.42 C 652.60 125.52 653.51 126.58 656.01 131.70 C 658.50 136.82 658.28 153.04 663.82 152.15 C 669.36 151.26 682.94 131.73 689.25 126.37 C 695.56 121.01 695.83 122.05 701.69 120.00 C 707.55 117.95 717.61 115.25 724.41 114.09 C 731.21 112.94 736.35 112.74 742.52 113.07 C 748.69 113.40 755.47 114.40 761.46 116.07 C 767.46 117.74 772.91 119.69 778.49 123.11 C 784.07 126.53 790.19 131.05 794.92 136.61 C 799.65 142.17 804.04 149.99 806.88 156.48 C 809.72 162.97 810.92 168.58 811.93 175.57 C 812.94 182.56 813.12 191.42 812.95 198.43 C 812.78 205.44 812.41 210.13 810.91 217.62 C 809.41 225.11 806.63 235.91 803.97 243.38 C 801.31 250.85 798.46 256.44 794.95 262.46 C 791.44 268.48 787.83 273.60 782.90 279.53 C 777.97 285.46 772.44 291.63 765.37 298.03 C 758.30 304.43 749.12 311.80 740.47 317.95 C 731.82 324.10 723.00 329.77 713.45 334.95 C 703.90 340.13 696.08 344.38 683.18 349.00 C 670.28 353.62 646.53 361.36 636.06 362.65 C 625.59 363.94 625.43 360.05 619.45 356.88 C 613.47 353.71 609.57 351.69 600.18 343.61 C 590.79 335.53 574.29 321.05 563.13 308.40 C 551.97 295.75 541.07 279.66 533.23 267.68 C 525.39 255.70 520.63 246.85 516.12 236.50 C 511.61 226.15 508.14 215.40 506.14 205.55 C 504.14 195.71 503.47 187.43 504.14 177.43 C 504.81 167.43 506.68 155.52 510.16 145.57 C 513.64 135.62 519.65 124.96 525.04 117.72 C 530.42 110.48 536.89 105.94 542.47 102.15 C 548.05 98.36 553.08 96.61 558.50 95.00 C 563.92 93.39 567.38 92.66 575.00 92.50 Z M 360.00 843.50 C 362.11 837.41 365.87 845.48 370.64 845.95 C 375.41 846.42 386.03 838.68 388.62 846.33 C 391.21 853.99 385.43 883.39 386.18 891.88 C 386.93 900.37 389.27 900.59 393.70 903.94 C 398.13 907.29 403.89 909.33 412.78 912.00 C 421.67 914.67 440.81 918.17 447.05 919.94 C 453.29 921.71 455.04 923.07 456.85 924.49 C 458.67 925.91 458.18 927.39 457.94 928.47 C 457.70 929.55 457.13 930.38 455.40 930.97 C 453.67 931.57 449.62 931.26 447.56 932.04 C 445.50 932.82 444.29 933.10 443.03 935.65 C 441.76 938.20 441.27 944.67 439.97 947.37 C 438.68 950.07 439.02 951.85 435.26 951.83 C 431.50 951.81 424.31 946.43 417.39 947.26 C 410.47 948.09 399.16 955.26 393.76 956.83 C 388.36 958.40 388.57 958.17 384.38 956.86 C 380.19 955.55 372.99 952.03 368.60 948.96 C 364.21 945.89 360.98 942.52 358.06 938.44 C 355.14 934.36 352.42 929.48 351.10 924.46 C 349.78 919.44 349.01 915.31 350.16 908.32 C 351.31 901.33 356.36 893.30 358.00 882.50 C 359.64 871.70 357.89 849.59 360.00 843.50 Z M 508.00 442.50 C 508.42 442.25 508.92 442.08 509.50 442.00 C 510.08 441.92 511.00 441.83 511.50 442.00 C 512.00 442.17 512.00 442.83 512.50 443.00 C 513.00 443.17 514.00 442.83 514.50 443.00 C 515.00 443.17 515.17 443.83 515.50 444.00 C 515.83 444.17 516.04 443.61 516.50 444.00 C 516.96 444.39 521.88 449.28 522.50 450.00 C 523.12 450.72 522.92 451.08 523.00 451.50 C 523.08 451.92 523.25 452.25 523.00 452.50 C 522.75 452.75 521.92 452.75 521.50 453.00 C 521.08 453.25 521.19 454.49 520.50 454.00 C 519.81 453.51 514.96 448.39 514.50 448.00 C 514.04 447.61 513.83 448.17 513.50 448.00 C 513.17 447.83 513.33 447.17 512.50 447.00 C 511.67 446.83 509.33 447.17 508.50 447.00 C 507.67 446.83 507.75 446.42 507.50 446.00 C 507.25 445.58 507.08 444.92 507.00 444.50 C 506.92 444.08 506.83 443.83 507.00 443.50 C 507.17 443.17 507.58 442.75 508.00 442.50 Z" />
</g>
<g id="#fffdffff">
<path fill="#fffdff" opacity="1.00" fill-rule="evenodd" d="M 625.00 577.50 C 629.30 576.51 635.03 576.63 638.30 577.09 C 641.56 577.55 642.00 577.66 644.59 580.25 C 647.18 582.84 651.65 587.74 653.86 592.62 C 656.07 597.50 657.37 603.58 657.87 609.55 C 658.37 615.52 658.04 622.48 656.87 628.45 C 655.70 634.42 653.74 640.49 650.86 645.38 C 647.98 650.27 642.98 655.04 639.57 657.78 C 636.16 660.52 634.03 661.50 630.39 661.84 C 626.75 662.18 620.72 661.57 617.70 659.83 C 614.68 658.09 612.43 654.89 612.28 651.38 C 612.13 647.87 616.51 640.98 616.80 638.78 C 617.09 636.58 616.45 636.55 614.28 636.07 C 612.11 635.59 606.32 636.80 603.64 635.86 C 600.96 634.92 598.78 632.52 598.20 630.46 C 597.62 628.40 598.51 625.90 600.14 623.49 C 601.76 621.08 602.75 618.62 607.95 615.97 C 613.15 613.32 629.03 608.88 631.34 607.61 C 633.65 606.34 633.17 603.34 631.20 603.22 C 629.23 603.10 623.29 606.29 619.53 606.90 C 615.77 607.51 611.37 607.64 608.64 606.88 C 605.91 606.12 603.91 604.88 603.17 602.33 C 602.43 599.78 602.64 594.79 604.20 591.57 C 605.76 588.35 609.03 585.35 612.50 583.00 C 615.97 580.65 620.70 578.49 625.00 577.50 Z" />
<path fill="#fffdff" opacity="1.00" fill-rule="evenodd" d="M 521.00 583.50 L 546.22 598.70 C 552.99 601.93 555.91 602.34 561.61 602.87 C 567.31 603.40 574.80 602.96 580.39 601.87 C 585.98 600.78 592.36 596.08 595.15 596.35 C 597.94 596.62 595.87 600.99 597.12 603.51 C 598.37 606.03 602.96 608.81 602.63 611.50 C 602.30 614.19 596.87 616.15 595.13 619.63 C 593.39 623.11 591.80 628.98 592.22 632.36 C 592.64 635.74 595.06 638.00 597.63 639.89 C 600.20 641.77 606.23 641.39 607.67 643.67 C 609.11 645.95 605.16 649.80 606.29 653.58 C 607.42 657.36 614.94 662.97 614.46 666.36 C 613.98 669.75 607.77 671.84 603.41 673.93 C 599.05 676.02 594.40 677.89 588.32 678.89 C 582.24 679.89 570.71 680.17 566.95 679.92 C 563.19 679.67 562.88 680.55 561.33 677.12 C 559.78 673.69 556.72 658.10 550.00 642.50 L 521.00 583.50 Z" />
<path fill="#fffdff" opacity="1.00" fill-rule="evenodd" d="M 451.00 312.50 C 457.51 312.22 468.33 311.17 477.57 313.30 C 486.81 315.43 497.11 319.41 506.46 325.30 C 515.81 331.19 526.63 340.08 533.67 348.62 C 540.71 357.16 545.53 366.92 548.71 376.55 C 551.89 386.18 552.88 397.06 552.76 406.42 C 552.64 415.78 549.32 429.50 548.00 432.69 C 546.68 435.88 543.28 431.14 543.26 429.42 C 543.24 427.70 547.11 425.52 547.87 422.37 C 548.63 419.22 549.03 414.22 547.80 410.54 C 546.57 406.86 543.03 401.85 540.49 400.30 C 537.95 398.75 534.88 399.51 532.55 401.24 C 530.22 402.97 528.54 409.52 526.50 410.66 C 524.46 411.80 523.62 408.34 520.29 408.10 C 516.96 407.87 510.92 407.30 506.54 409.25 C 502.17 411.20 497.99 414.47 494.04 419.80 C 490.10 425.13 487.31 435.77 482.87 441.21 C 478.43 446.65 470.23 448.98 467.37 452.45 C 464.51 455.92 462.77 456.99 465.70 462.04 C 468.63 467.09 482.27 484.12 489.37 490.45 C 496.47 496.78 506.16 493.70 508.30 500.04 C 510.44 506.38 502.93 519.08 502.24 528.47 C 501.55 537.86 502.41 547.51 504.16 556.40 C 505.91 565.29 506.20 567.11 512.74 581.81 C 519.28 596.51 539.80 635.66 547.32 653.45 C 554.84 671.24 555.42 676.76 557.84 688.55 C 560.26 700.33 561.50 714.34 561.84 724.16 C 562.18 733.98 561.22 740.06 559.89 747.45 C 558.56 754.85 556.86 761.35 553.84 768.53 C 550.82 775.71 547.29 783.01 541.75 790.54 C 536.21 798.07 527.02 807.80 520.62 813.70 C 514.22 819.60 509.93 822.24 503.37 825.95 C 496.81 829.66 489.94 832.96 481.29 835.95 C 472.65 838.94 461.39 842.05 451.50 843.87 C 441.61 845.69 428.97 846.55 421.97 846.89 C 414.97 847.23 413.37 846.86 409.51 845.91 C 405.65 844.96 397.64 844.68 398.80 841.17 C 399.96 837.66 414.67 827.10 416.46 824.83 C 418.25 822.56 416.17 820.86 415.46 820.12 C 414.75 819.38 413.71 819.14 412.19 820.39 C 410.67 821.64 402.03 831.49 397.58 834.74 C 393.13 837.99 389.54 838.89 385.50 839.89 C 381.46 840.89 378.42 841.91 373.32 840.76 C 368.22 839.61 358.68 835.61 354.92 833.00 C 351.17 830.39 355.84 826.84 350.79 825.13 C 345.74 823.42 332.03 825.14 321.37 821.61 C 310.71 818.08 296.22 810.29 286.85 803.93 C 277.48 797.57 271.29 790.53 265.17 783.46 C 259.06 776.39 254.16 768.84 250.16 761.50 C 246.16 754.16 243.16 747.05 241.16 739.45 C 239.16 731.85 238.31 721.37 238.13 715.89 C 237.95 710.41 238.84 709.18 240.09 706.57 C 241.34 703.96 242.90 700.93 245.64 700.22 C 248.38 699.51 252.61 699.88 256.55 702.29 C 260.49 704.69 267.11 713.20 269.28 714.65 C 271.45 716.10 274.20 716.17 273.51 713.65 C 272.82 711.13 261.78 686.55 260.39 682.18 C 259.00 677.81 260.23 676.58 261.09 674.57 C 261.95 672.56 263.62 670.85 265.57 670.12 C 267.52 669.39 268.64 669.07 272.79 670.18 C 276.94 671.29 284.85 675.83 290.45 676.79 C 296.05 677.75 301.70 676.74 306.39 675.92 C 311.08 675.10 314.05 674.06 318.58 671.87 C 323.11 669.68 328.32 667.04 333.54 662.80 C 338.76 658.56 345.00 652.36 349.91 646.43 C 354.82 640.50 358.82 635.20 362.97 627.24 C 367.12 619.28 372.14 607.21 374.79 598.68 C 377.44 590.15 378.40 586.43 378.87 576.05 C 379.34 565.67 380.36 556.11 377.61 536.40 C 374.86 516.69 365.14 476.41 362.39 457.79 C 359.64 439.17 360.69 434.37 361.13 424.68 C 361.57 415.00 363.35 406.94 365.05 399.68 C 366.75 392.42 367.13 389.46 371.34 381.13 C 375.54 372.80 382.30 359.12 390.28 349.67 C 398.26 340.22 411.18 330.21 419.22 324.43 C 427.26 318.65 433.20 316.99 438.50 315.00 C 443.80 313.01 444.49 312.78 451.00 312.50 Z M 407.00 427.50 C 408.53 427.42 416.79 426.53 420.36 427.12 C 423.93 427.71 426.16 429.47 428.43 431.04 C 430.70 432.62 432.38 434.32 433.96 436.57 C 435.54 438.82 437.09 441.74 437.92 444.53 C 438.75 447.32 438.94 452.34 438.95 453.29 C 438.96 454.24 438.20 453.70 438.03 454.58 C 437.86 455.46 438.43 456.91 437.92 458.55 C 437.42 460.19 435.97 462.94 435.00 464.42 C 434.03 465.90 432.49 466.90 432.08 467.45 C 431.67 468.00 432.36 468.09 431.88 468.57 C 431.40 469.05 428.16 471.54 427.59 471.91 C 427.02 472.28 426.99 471.71 426.47 472.05 C 425.96 472.39 425.17 473.62 424.50 473.95 C 423.83 474.28 423.47 473.72 422.45 474.05 C 421.43 474.38 420.49 475.63 418.37 475.95 C 416.25 476.27 410.65 476.06 409.71 475.97 C 408.77 475.88 409.17 475.21 408.45 475.03 C 407.73 474.85 407.05 475.58 405.39 474.89 C 403.73 474.20 400.72 472.79 398.51 470.91 C 396.30 469.03 393.39 465.48 392.14 463.59 C 390.89 461.70 391.34 460.41 391.00 459.58 C 390.66 458.75 390.20 459.12 390.03 458.45 C 389.86 457.78 390.14 456.24 389.97 455.55 C 389.80 454.87 389.14 455.25 389.03 454.34 C 388.92 453.43 388.92 448.57 389.03 447.66 C 389.14 446.75 389.80 447.16 389.97 446.45 C 390.15 445.74 389.56 444.91 390.08 443.42 C 390.60 441.93 391.53 439.55 393.09 437.49 C 394.65 435.44 397.56 432.67 399.46 431.09 C 401.36 429.51 403.24 428.60 404.50 428.00 C 405.76 427.40 405.47 427.58 407.00 427.50 Z M 427.00 657.50 C 427.90 657.10 430.43 656.75 431.42 657.08 C 432.41 657.41 432.83 658.87 432.93 659.46 C 433.03 660.05 432.17 659.75 432.03 660.61 C 431.89 661.47 432.13 664.42 431.97 665.39 C 431.81 666.36 431.19 665.75 431.00 666.71 C 430.81 667.67 430.21 674.23 430.00 675.29 C 429.79 676.35 429.23 675.71 428.97 676.76 C 428.71 677.81 427.30 686.16 427.03 687.24 C 426.76 688.32 426.31 687.70 425.95 688.76 C 425.59 689.82 424.54 695.50 422.90 699.58 C 421.26 703.66 417.49 710.84 416.11 713.21 C 414.73 715.58 414.06 715.13 413.00 716.55 C 411.94 717.96 412.25 719.05 409.72 721.70 C 407.19 724.35 400.98 730.53 396.49 733.88 C 392.00 737.23 384.07 741.15 382.81 741.79 C 381.55 742.43 381.35 741.69 380.47 742.05 C 379.59 742.41 378.37 743.62 377.53 743.95 C 376.69 744.28 376.45 743.72 375.45 744.05 C 374.45 744.38 372.68 745.62 371.53 745.95 C 370.38 746.28 369.24 745.86 368.55 746.03 C 367.86 746.20 368.27 746.82 367.39 746.97 C 366.51 747.12 363.68 746.86 362.61 747.03 C 361.54 747.20 362.09 747.92 360.95 747.97 C 359.81 748.02 341.16 748.02 340.05 747.97 C 338.94 747.92 339.20 747.20 338.45 747.03 C 337.70 746.86 336.23 747.14 335.55 746.97 C 334.87 746.80 335.25 746.25 334.37 746.00 C 333.49 745.75 330.49 745.63 328.50 744.95 C 326.51 744.27 324.68 743.32 322.46 741.93 C 320.24 740.54 315.74 737.08 315.20 736.62 C 314.66 736.16 315.31 736.00 314.95 735.47 C 314.59 734.94 313.36 734.57 313.05 733.42 C 312.74 732.27 312.65 729.80 313.07 728.57 C 313.49 727.34 314.48 726.63 315.54 726.04 C 316.60 725.44 318.57 725.34 319.42 725.00 C 320.27 724.66 319.73 724.24 320.66 724.00 C 321.59 723.76 325.35 723.60 327.47 722.95 C 329.59 722.30 332.05 720.58 333.39 720.08 C 334.73 719.58 334.45 720.41 335.76 719.84 C 337.07 719.27 344.26 715.95 347.37 714.00 C 350.48 712.05 352.58 709.14 354.42 708.16 C 356.26 707.18 357.67 707.40 358.41 708.12 C 359.16 708.84 359.36 711.17 358.89 712.47 C 358.42 713.77 356.12 715.46 355.57 715.91 C 355.02 716.36 354.99 715.72 354.40 716.11 C 353.81 716.50 352.09 718.43 349.32 720.05 C 346.55 721.67 338.99 725.31 337.76 725.84 C 336.53 726.37 336.08 725.84 335.53 726.03 C 334.98 726.22 335.00 726.80 334.47 726.97 C 333.94 727.14 333.57 726.68 332.37 727.08 C 331.17 727.48 327.65 729.30 325.53 729.95 C 323.41 730.60 320.10 730.87 319.64 730.99 C 319.18 731.11 318.83 731.27 319.16 731.61 C 319.49 731.95 322.64 734.74 324.51 735.96 C 326.38 737.18 329.18 738.45 330.39 738.92 C 331.60 739.39 331.53 738.71 332.55 739.05 C 333.57 739.39 335.19 740.62 336.50 740.95 C 337.81 741.28 339.51 740.86 340.42 741.03 C 341.33 741.20 340.87 741.92 341.95 741.97 C 343.03 742.02 357.96 742.02 359.05 741.97 C 360.14 741.92 359.55 741.20 360.61 741.03 C 361.67 740.86 364.52 741.12 365.40 740.97 C 366.28 740.82 365.88 740.20 366.55 740.03 C 367.23 739.86 368.76 740.15 369.45 739.97 C 370.14 739.79 369.78 739.28 370.68 738.97 C 371.58 738.66 375.03 738.52 378.66 736.84 C 382.30 735.16 387.99 732.22 392.49 728.88 C 396.99 725.54 405.01 717.44 405.65 716.80 C 406.29 716.16 405.60 716.10 406.13 715.37 C 406.66 714.64 409.25 712.28 411.03 709.34 C 412.81 706.40 416.30 698.99 416.84 697.76 C 417.38 696.53 416.84 696.08 417.03 695.53 C 417.22 694.98 417.80 695.00 417.97 694.47 C 418.15 693.94 417.68 693.57 418.08 692.37 C 418.48 691.17 420.43 687.25 420.92 685.61 C 421.41 683.97 420.85 683.24 421.03 682.55 C 421.20 681.86 421.80 682.12 421.97 681.45 C 422.14 680.78 421.86 679.22 422.03 678.55 C 422.20 677.88 422.80 678.12 422.97 677.45 C 423.14 676.78 422.86 675.22 423.03 674.55 C 423.20 673.88 423.80 674.25 423.97 673.42 C 424.14 672.59 423.86 670.41 424.03 669.58 C 424.20 668.75 424.80 669.25 424.97 668.42 C 425.14 667.59 424.86 665.41 425.03 664.58 C 425.20 663.75 425.81 664.27 425.97 663.42 C 426.13 662.57 425.83 660.49 426.00 659.50 C 426.17 658.51 426.10 657.90 427.00 657.50 Z" />
</g>
<g id="#f55255ff">
<path fill="#f55255" opacity="1.00" fill-rule="evenodd" d="M 625.14 366.57 C 625.58 366.57 626.26 366.68 626.66 366.75 C 627.06 366.82 627.23 366.89 627.53 366.99 C 627.83 367.09 628.15 367.21 628.47 367.34 C 628.79 367.47 629.12 367.62 629.43 367.75 C 629.74 367.88 630.05 368.00 630.33 368.11 C 630.61 368.22 630.78 368.30 631.13 368.39 C 631.48 368.48 632.03 368.63 632.42 368.67 C 632.81 368.72 632.99 368.75 633.45 368.66 C 633.91 368.58 634.73 368.28 635.20 368.16 C 635.67 368.04 635.93 368.02 636.28 367.95 C 636.63 367.88 636.99 367.81 637.31 367.72 C 637.63 367.63 637.91 367.51 638.22 367.42 C 638.53 367.33 638.85 367.24 639.19 367.16 C 639.53 367.08 639.92 367.02 640.27 366.96 C 640.62 366.90 640.97 366.85 641.26 366.81 C 641.55 366.77 641.75 366.64 642.04 366.73 C 642.33 366.82 642.76 367.08 643.01 367.33 C 643.26 367.57 643.38 367.90 643.53 368.20 C 643.68 368.50 643.79 368.82 643.89 369.13 C 643.99 369.44 644.05 369.76 644.14 370.04 C 644.23 370.32 644.32 370.57 644.42 370.82 C 644.52 371.07 644.63 371.28 644.72 371.53 C 644.81 371.78 644.88 372.03 644.95 372.30 C 645.03 372.57 645.08 372.85 645.17 373.14 C 645.26 373.43 645.37 373.71 645.49 374.04 C 645.61 374.37 645.76 374.69 645.91 375.11 C 646.06 375.53 646.18 375.94 646.38 376.58 C 646.58 377.22 646.90 378.36 647.09 378.96 C 647.28 379.56 647.39 379.78 647.51 380.20 C 647.63 380.62 647.71 380.80 647.83 381.45 C 647.95 382.10 648.14 383.50 648.24 384.12 C 648.34 384.74 648.41 384.81 648.45 385.15 C 648.49 385.49 648.52 385.82 648.49 386.16 C 648.46 386.50 648.39 386.89 648.28 387.21 C 648.17 387.52 648.01 387.82 647.81 388.05 C 647.61 388.28 647.39 388.44 647.06 388.57 C 646.72 388.70 646.15 388.77 645.80 388.82 C 645.44 388.87 645.24 388.86 644.93 388.86 C 644.62 388.86 644.28 388.85 643.96 388.84 C 643.64 388.83 643.32 388.81 643.03 388.79 C 642.74 388.77 642.46 388.74 642.19 388.70 C 641.93 388.66 641.80 388.64 641.44 388.57 C 641.08 388.50 640.40 388.35 640.04 388.28 C 639.68 388.21 639.73 388.22 639.26 388.16 C 638.79 388.10 637.41 387.94 636.77 387.84 C 636.13 387.74 635.82 387.67 635.39 387.58 C 634.96 387.49 634.61 387.37 634.19 387.28 C 633.77 387.19 633.31 387.12 632.86 387.05 C 632.41 386.98 631.90 386.92 631.48 386.84 C 631.06 386.76 630.70 386.67 630.34 386.58 C 629.99 386.49 629.69 386.37 629.35 386.28 C 629.01 386.19 628.64 386.12 628.28 386.05 C 627.92 385.98 627.53 385.92 627.19 385.84 C 626.85 385.76 626.53 385.67 626.22 385.58 C 625.91 385.49 625.63 385.37 625.31 385.28 C 624.99 385.19 624.63 385.12 624.28 385.05 C 623.93 384.98 623.53 384.92 623.19 384.84 C 622.85 384.76 622.53 384.67 622.22 384.58 C 621.91 384.49 621.63 384.37 621.31 384.28 C 620.99 384.19 620.63 384.13 620.28 384.05 C 619.93 383.98 619.53 383.92 619.19 383.83 C 618.85 383.74 618.71 383.72 618.22 383.51 C 617.73 383.30 616.75 382.84 616.24 382.59 C 615.73 382.34 615.48 382.23 615.14 382.03 C 614.80 381.83 614.48 381.63 614.22 381.41 C 613.96 381.20 613.73 381.03 613.60 380.74 C 613.47 380.45 613.41 380.00 613.46 379.67 C 613.51 379.35 613.70 379.12 613.91 378.79 C 614.12 378.46 614.45 378.08 614.74 377.71 C 615.03 377.33 615.37 376.94 615.68 376.54 C 615.99 376.14 616.36 375.63 616.62 375.30 C 616.88 374.97 616.85 374.98 617.24 374.54 C 617.63 374.10 620.48 370.91 620.93 370.40 C 621.38 369.89 621.44 369.79 621.65 369.53 C 621.86 369.27 621.97 369.12 622.17 368.84 C 622.37 368.56 622.63 368.12 622.83 367.84 C 623.03 367.56 623.17 367.34 623.37 367.15 C 623.57 366.96 623.75 366.82 624.04 366.72 C 624.33 366.62 624.70 366.56 625.14 366.57 Z" />
<path fill="#f55255" opacity="1.00" fill-rule="evenodd" d="M 736.50 406.00 C 738.17 405.83 742.66 405.89 743.50 406.00 C 744.34 406.11 744.17 406.83 744.50 407.00 C 744.83 407.17 745.17 406.83 745.50 407.00 C 745.83 407.17 746.17 407.83 746.50 408.00 C 746.83 408.17 747.02 407.64 747.50 408.00 C 747.98 408.36 749.92 410.25 750.50 411.00 C 751.08 411.75 750.75 412.08 751.00 412.50 C 751.25 412.92 751.83 413.17 752.00 413.50 C 752.17 413.83 751.83 414.17 752.00 414.50 C 752.17 414.83 752.83 414.83 753.00 415.50 C 753.17 416.17 752.83 417.83 753.00 418.50 C 753.17 419.17 753.92 418.65 754.00 419.50 C 754.08 420.35 753.72 427.83 754.00 429.50 C 754.28 431.17 755.42 431.08 756.00 431.50 C 756.58 431.92 757.08 431.92 757.50 432.00 C 757.92 432.08 758.17 432.17 758.50 432.00 C 758.83 431.83 759.17 431.17 759.50 431.00 C 759.83 430.83 760.02 431.36 760.50 431.00 C 760.98 430.64 763.02 428.36 763.50 428.00 C 763.98 427.64 764.17 428.17 764.50 428.00 C 764.83 427.83 765.17 427.17 765.50 427.00 C 765.83 426.83 766.00 427.33 766.50 427.00 C 767.00 426.67 767.83 425.33 768.50 425.00 C 769.17 424.67 770.00 425.17 770.50 425.00 C 771.00 424.83 770.83 424.17 771.50 424.00 C 772.17 423.83 773.83 424.17 774.50 424.00 C 775.17 423.83 774.67 423.17 775.50 423.00 C 776.33 422.83 778.67 422.83 779.50 423.00 C 780.33 423.17 780.00 423.83 780.50 424.00 C 781.00 424.17 782.00 423.83 782.50 424.00 C 783.00 424.17 783.17 424.83 783.50 425.00 C 783.83 425.17 784.03 424.63 784.50 425.00 C 784.97 425.37 787.90 428.27 788.50 429.00 C 789.10 429.73 788.75 430.08 789.00 430.50 C 789.25 430.92 789.83 431.00 790.00 431.50 C 790.17 432.00 789.83 433.00 790.00 433.50 C 790.17 434.00 790.88 433.66 791.00 434.50 C 791.12 435.34 791.12 439.66 791.00 440.50 C 790.88 441.34 790.17 441.00 790.00 441.50 C 789.83 442.00 790.17 443.00 790.00 443.50 C 789.83 444.00 789.17 444.17 789.00 444.50 C 788.83 444.83 789.17 445.17 789.00 445.50 C 788.83 445.83 788.17 446.17 788.00 446.50 C 787.83 446.83 788.17 447.17 788.00 447.50 C 787.83 447.83 787.17 448.17 787.00 448.50 C 786.83 448.83 787.39 449.04 787.00 449.50 C 786.61 449.96 781.72 454.88 781.00 455.50 C 780.28 456.12 780.08 455.58 779.50 456.00 C 778.92 456.42 778.00 457.67 777.50 458.00 C 777.00 458.33 777.00 457.67 776.50 458.00 C 776.00 458.33 775.17 459.67 774.50 460.00 C 773.83 460.33 773.00 459.83 772.50 460.00 C 772.00 460.17 771.83 460.83 771.50 461.00 C 771.17 461.17 770.83 460.83 770.50 461.00 C 770.17 461.17 770.00 461.83 769.50 462.00 C 769.00 462.17 768.00 461.83 767.50 462.00 C 767.00 462.17 767.17 462.83 766.50 463.00 C 765.83 463.17 764.17 462.83 763.50 463.00 C 762.83 463.17 763.34 463.86 762.50 464.00 C 761.66 464.14 758.34 463.86 757.50 464.00 C 756.66 464.14 757.35 464.95 756.50 465.00 C 755.65 465.05 742.35 464.95 741.50 465.00 C 740.65 465.05 740.83 465.83 740.50 466.00 C 740.17 466.17 739.96 466.38 739.50 466.00 C 739.04 465.62 735.11 461.72 734.50 461.00 C 733.89 460.28 734.42 460.08 734.00 459.50 C 733.58 458.92 732.33 458.00 732.00 457.50 C 731.67 457.00 732.17 456.83 732.00 456.50 C 731.83 456.17 731.17 455.83 731.00 455.50 C 730.83 455.17 731.17 454.83 731.00 454.50 C 730.83 454.17 730.17 453.83 730.00 453.50 C 729.83 453.17 730.17 452.83 730.00 452.50 C 729.83 452.17 729.17 451.83 729.00 451.50 C 728.83 451.17 729.17 450.83 729.00 450.50 C 728.83 450.17 728.17 450.00 728.00 449.50 C 727.83 449.00 728.17 448.00 728.00 447.50 C 727.83 447.00 727.17 447.00 727.00 446.50 C 726.83 446.00 727.17 445.00 727.00 444.50 C 726.83 444.00 726.17 444.00 726.00 443.50 C 725.83 443.00 726.17 442.00 726.00 441.50 C 725.83 441.00 725.17 441.17 725.00 440.50 C 724.83 439.83 725.17 438.17 725.00 437.50 C 724.83 436.83 724.14 437.34 724.00 436.50 C 723.86 435.66 724.14 432.34 724.00 431.50 C 723.86 430.66 723.14 431.34 723.00 430.50 C 722.86 429.66 722.86 426.34 723.00 425.50 C 723.14 424.66 723.86 425.34 724.00 424.50 C 724.14 423.66 723.86 420.34 724.00 419.50 C 724.14 418.66 724.83 419.00 725.00 418.50 C 725.17 418.00 724.83 417.00 725.00 416.50 C 725.17 416.00 725.83 415.83 726.00 415.50 C 726.17 415.17 725.83 414.83 726.00 414.50 C 726.17 414.17 726.83 413.83 727.00 413.50 C 727.17 413.17 726.63 412.97 727.00 412.50 C 727.37 412.03 730.27 409.10 731.00 408.50 C 731.73 407.90 732.08 408.25 732.50 408.00 C 732.92 407.75 732.83 407.33 733.50 407.00 C 734.17 406.67 734.83 406.17 736.50 406.00 Z" />
<path fill="#f55255" opacity="1.00" fill-rule="evenodd" d="M 284.00 333.50 C 284.42 333.42 284.58 333.42 285.00 333.50 C 285.42 333.58 285.58 333.92 286.50 334.00 C 287.42 334.08 289.67 333.83 290.50 334.00 C 291.33 334.17 291.17 334.83 291.50 335.00 C 291.83 335.17 292.17 334.83 292.50 335.00 C 292.83 335.17 293.17 335.83 293.50 336.00 C 293.83 336.17 294.17 335.83 294.50 336.00 C 294.83 336.17 295.17 336.83 295.50 337.00 C 295.83 337.17 296.03 336.63 296.50 337.00 C 296.97 337.37 299.90 340.27 300.50 341.00 C 301.10 341.73 300.58 341.92 301.00 342.50 C 301.42 343.08 302.67 344.00 303.00 344.50 C 303.33 345.00 302.83 345.17 303.00 345.50 C 303.17 345.83 303.83 346.00 304.00 346.50 C 304.17 347.00 303.83 348.00 304.00 348.50 C 304.17 349.00 304.83 349.00 305.00 349.50 C 305.17 350.00 304.83 351.00 305.00 351.50 C 305.17 352.00 305.83 351.83 306.00 352.50 C 306.17 353.17 305.83 354.83 306.00 355.50 C 306.17 356.17 306.96 355.65 307.00 356.50 C 307.04 357.35 307.04 376.65 307.00 377.50 C 306.96 378.35 306.14 377.66 306.00 378.50 C 305.86 379.34 306.14 382.66 306.00 383.50 C 305.86 384.34 305.17 383.67 305.00 384.50 C 304.83 385.33 305.17 387.67 305.00 388.50 C 304.83 389.33 304.17 389.00 304.00 389.50 C 303.83 390.00 304.17 391.00 304.00 391.50 C 303.83 392.00 303.17 391.83 303.00 392.50 C 302.83 393.17 303.17 394.83 303.00 395.50 C 302.83 396.17 302.17 396.00 302.00 396.50 C 301.83 397.00 302.17 398.00 302.00 398.50 C 301.83 399.00 301.17 399.17 301.00 399.50 C 300.83 399.83 301.17 400.17 301.00 400.50 C 300.83 400.83 300.17 401.00 300.00 401.50 C 299.83 402.00 300.17 403.00 300.00 403.50 C 299.83 404.00 299.17 404.17 299.00 404.50 C 298.83 404.83 299.17 405.17 299.00 405.50 C 298.83 405.83 298.17 406.17 298.00 406.50 C 297.83 406.83 298.17 407.17 298.00 407.50 C 297.83 407.83 297.17 408.00 297.00 408.50 C 296.83 409.00 297.33 409.83 297.00 410.50 C 296.67 411.17 295.33 412.00 295.00 412.50 C 294.67 413.00 295.17 413.17 295.00 413.50 C 294.83 413.83 294.17 414.17 294.00 414.50 C 293.83 414.83 294.33 415.00 294.00 415.50 C 293.67 416.00 292.33 417.00 292.00 417.50 C 291.67 418.00 292.38 418.04 292.00 418.50 C 291.62 418.96 287.72 422.89 287.00 423.50 C 286.28 424.11 286.45 423.96 285.50 424.00 C 284.55 424.04 274.35 424.07 273.50 424.00 C 272.65 423.93 273.33 423.17 272.50 423.00 C 271.67 422.83 269.33 423.17 268.50 423.00 C 267.67 422.83 268.00 422.17 267.50 422.00 C 267.00 421.83 266.00 422.17 265.50 422.00 C 265.00 421.83 265.00 421.17 264.50 421.00 C 264.00 420.83 263.00 421.17 262.50 421.00 C 262.00 420.83 262.00 420.17 261.50 420.00 C 261.00 419.83 260.00 420.17 259.50 420.00 C 259.00 419.83 259.00 419.17 258.50 419.00 C 258.00 418.83 257.00 419.17 256.50 419.00 C 256.00 418.83 255.83 418.17 255.50 418.00 C 255.17 417.83 254.83 418.17 254.50 418.00 C 254.17 417.83 254.00 417.17 253.50 417.00 C 253.00 416.83 252.00 417.17 251.50 417.00 C 251.00 416.83 250.83 416.17 250.50 416.00 C 250.17 415.83 249.83 416.17 249.50 416.00 C 249.17 415.83 248.83 415.17 248.50 415.00 C 248.17 414.83 247.83 415.17 247.50 415.00 C 247.17 414.83 246.83 414.17 246.50 414.00 C 246.17 413.83 245.83 414.17 245.50 414.00 C 245.17 413.83 244.83 413.17 244.50 413.00 C 244.17 412.83 243.83 413.17 243.50 413.00 C 243.17 412.83 242.83 412.17 242.50 412.00 C 242.17 411.83 241.83 412.17 241.50 412.00 C 241.17 411.83 240.83 411.17 240.50 411.00 C 240.17 410.83 239.83 411.17 239.50 411.00 C 239.17 410.83 238.83 410.17 238.50 410.00 C 238.17 409.83 238.00 410.33 237.50 410.00 C 237.00 409.67 236.00 408.33 235.50 408.00 C 235.00 407.67 234.83 408.17 234.50 408.00 C 234.17 407.83 233.83 407.17 233.50 407.00 C 233.17 406.83 233.00 407.33 232.50 407.00 C 232.00 406.67 231.00 405.33 230.50 405.00 C 230.00 404.67 229.98 405.36 229.50 405.00 C 229.02 404.64 226.98 402.36 226.50 402.00 C 226.02 401.64 225.95 402.40 225.50 402.00 C 225.05 401.60 218.13 394.71 217.50 394.00 C 216.87 393.29 217.42 393.08 217.00 392.50 C 216.58 391.92 215.33 391.17 215.00 390.50 C 214.67 389.83 215.17 389.00 215.00 388.50 C 214.83 388.00 214.17 388.17 214.00 387.50 C 213.83 386.83 214.17 385.17 214.00 384.50 C 213.83 383.83 213.12 384.34 213.00 383.50 C 212.88 382.66 212.88 378.34 213.00 377.50 C 213.12 376.66 213.83 377.17 214.00 376.50 C 214.17 375.83 213.83 374.17 214.00 373.50 C 214.17 372.83 214.83 372.83 215.00 372.50 C 215.17 372.17 214.83 371.83 215.00 371.50 C 215.17 371.17 215.83 370.83 216.00 370.50 C 216.17 370.17 215.62 369.96 216.00 369.50 C 216.38 369.04 220.28 365.11 221.00 364.50 C 221.72 363.89 222.08 364.25 222.50 364.00 C 222.92 363.75 223.17 363.17 223.50 363.00 C 223.83 362.83 224.17 363.17 224.50 363.00 C 224.83 362.83 224.66 362.14 225.50 362.00 C 226.34 361.86 229.66 362.14 230.50 362.00 C 231.34 361.86 231.00 361.17 231.50 361.00 C 232.00 360.83 233.00 360.83 233.50 361.00 C 234.00 361.17 233.66 361.88 234.50 362.00 C 235.34 362.12 239.66 361.88 240.50 362.00 C 241.34 362.12 241.00 362.83 241.50 363.00 C 242.00 363.17 243.00 362.83 243.50 363.00 C 244.00 363.17 244.00 363.83 244.50 364.00 C 245.00 364.17 246.00 363.83 246.50 364.00 C 247.00 364.17 247.17 364.83 247.50 365.00 C 247.83 365.17 248.17 364.83 248.50 365.00 C 248.83 365.17 249.17 365.83 249.50 366.00 C 249.83 366.17 250.00 365.67 250.50 366.00 C 251.00 366.33 252.00 367.67 252.50 368.00 C 253.00 368.33 253.17 367.83 253.50 368.00 C 253.83 368.17 254.17 368.83 254.50 369.00 C 254.83 369.17 255.17 368.83 255.50 369.00 C 255.83 369.17 256.17 369.83 256.50 370.00 C 256.83 370.17 257.17 370.17 257.50 370.00 C 257.83 369.83 258.17 369.17 258.50 369.00 C 258.83 368.83 259.17 369.17 259.50 369.00 C 259.83 368.83 260.25 368.42 260.50 368.00 C 260.75 367.58 260.92 367.08 261.00 366.50 C 261.08 365.92 260.83 365.00 261.00 364.50 C 261.17 364.00 261.88 364.34 262.00 363.50 C 262.12 362.66 261.88 358.34 262.00 357.50 C 262.12 356.66 262.83 357.17 263.00 356.50 C 263.17 355.83 262.83 354.17 263.00 353.50 C 263.17 352.83 263.83 353.00 264.00 352.50 C 264.17 352.00 263.83 351.00 264.00 350.50 C 264.17 350.00 264.83 349.83 265.00 349.50 C 265.17 349.17 264.83 348.83 265.00 348.50 C 265.17 348.17 265.83 347.83 266.00 347.50 C 266.17 347.17 265.83 346.83 266.00 346.50 C 266.17 346.17 266.83 345.83 267.00 345.50 C 267.17 345.17 266.67 345.00 267.00 344.50 C 267.33 344.00 268.67 343.00 269.00 342.50 C 269.33 342.00 268.63 341.97 269.00 341.50 C 269.37 341.03 272.27 338.10 273.00 337.50 C 273.73 336.90 274.08 337.25 274.50 337.00 C 274.92 336.75 275.17 336.17 275.50 336.00 C 275.83 335.83 276.17 336.17 276.50 336.00 C 276.83 335.83 277.17 335.17 277.50 335.00 C 277.83 334.83 278.17 335.17 278.50 335.00 C 278.83 334.83 278.83 334.17 279.50 334.00 C 280.17 333.83 281.75 334.08 282.50 334.00 C 283.25 333.92 283.58 333.58 284.00 333.50 Z" />
<path fill="#f55255" opacity="1.00" fill-rule="evenodd" d="M 583.22 94.56 C 585.54 94.61 587.83 94.79 590.11 95.04 C 592.39 95.29 594.65 95.64 596.91 96.08 C 599.16 96.52 601.41 97.04 603.64 97.65 C 605.87 98.26 608.10 98.95 610.31 99.73 C 612.51 100.51 614.72 101.38 616.87 102.35 C 619.02 103.32 621.13 104.40 623.20 105.58 C 625.27 106.76 627.29 108.05 629.26 109.44 C 631.23 110.83 633.16 112.35 635.04 113.91 C 636.92 115.47 637.31 115.78 640.53 118.79 C 643.75 121.80 652.57 130.33 655.13 132.69 C 657.69 135.05 658.06 135.40 659.62 136.37 C 661.18 137.34 662.77 138.12 664.49 138.51 C 666.21 138.90 668.03 138.97 669.96 138.71 C 671.89 138.46 672.75 138.37 676.05 136.98 C 679.35 135.59 686.23 132.03 689.75 130.39 C 693.27 128.74 694.63 128.16 697.15 127.11 C 699.67 126.06 702.24 125.04 704.87 124.11 C 707.50 123.18 710.19 122.27 712.91 121.53 C 715.63 120.79 718.40 120.14 721.21 119.66 C 724.02 119.18 726.88 118.84 729.78 118.65 C 732.67 118.46 735.63 118.41 738.58 118.52 C 741.53 118.63 744.54 118.88 747.47 119.31 C 750.40 119.74 753.31 120.33 756.14 121.10 C 758.97 121.87 761.75 122.81 764.46 123.93 C 767.17 125.05 769.83 126.35 772.39 127.81 C 774.95 129.27 777.47 130.91 779.82 132.71 C 782.17 134.52 784.42 136.49 786.51 138.64 C 788.60 140.78 790.54 143.10 792.34 145.58 C 794.14 148.06 795.80 150.72 797.30 153.50 C 798.80 156.28 800.17 159.26 801.36 162.27 C 802.55 165.28 803.58 168.41 804.44 171.57 C 805.30 174.73 805.99 177.97 806.51 181.26 C 807.03 184.55 807.39 187.92 807.59 191.31 C 807.79 194.70 807.81 198.16 807.69 201.58 C 807.57 205.00 807.30 208.44 806.89 211.82 C 806.48 215.20 805.93 218.56 805.23 221.89 C 804.53 225.22 803.71 228.50 802.71 231.78 C 801.71 235.06 800.58 238.31 799.23 241.57 C 797.88 244.83 796.36 248.09 794.62 251.37 C 792.88 254.65 790.94 257.94 788.80 261.24 C 786.65 264.54 784.32 267.87 781.75 271.19 C 779.18 274.51 776.42 277.86 773.39 281.18 C 770.36 284.50 767.11 287.83 763.59 291.13 C 760.07 294.43 756.29 297.72 752.27 300.99 C 748.25 304.26 743.94 307.55 739.46 310.74 C 734.99 313.93 730.22 317.13 725.42 320.11 C 720.62 323.09 715.65 325.97 710.66 328.61 C 705.67 331.25 700.59 333.71 695.46 335.96 C 690.33 338.21 685.07 340.30 679.89 342.12 C 674.71 343.94 669.39 345.60 664.39 346.86 C 659.39 348.12 654.50 349.10 649.91 349.68 C 645.32 350.26 640.97 350.49 636.86 350.36 C 632.75 350.23 628.95 349.71 625.28 348.89 C 621.61 348.06 618.25 346.85 614.86 345.41 C 611.47 343.97 608.21 342.23 604.93 340.25 C 601.65 338.27 598.42 336.04 595.20 333.56 C 591.98 331.08 588.79 328.34 585.61 325.35 C 582.43 322.36 579.28 319.12 576.10 315.61 C 572.92 312.10 569.75 308.32 566.55 304.27 C 563.35 300.22 560.13 295.90 556.90 291.33 C 553.67 286.76 550.37 281.86 547.18 276.85 C 543.99 271.84 540.73 266.48 537.79 261.28 C 534.85 256.08 532.04 250.78 529.54 245.63 C 527.04 240.47 524.79 235.36 522.81 230.35 C 520.83 225.34 519.12 220.37 517.64 215.55 C 516.16 210.73 514.97 205.95 513.96 201.43 C 512.95 196.91 512.17 192.55 511.58 188.44 C 510.99 184.33 510.61 180.45 510.42 176.79 C 510.23 173.13 510.28 169.72 510.46 166.48 C 510.64 163.24 511.05 160.26 511.52 157.37 C 511.99 154.48 512.61 151.76 513.28 149.14 C 513.95 146.52 514.71 144.02 515.56 141.63 C 516.40 139.24 517.35 136.98 518.35 134.82 C 519.35 132.66 520.45 130.63 521.56 128.67 C 522.67 126.71 523.84 124.85 525.03 123.07 C 526.22 121.29 527.44 119.58 528.69 117.97 C 529.94 116.36 531.20 114.83 532.55 113.38 C 533.90 111.93 535.24 110.57 536.77 109.28 C 538.30 107.99 539.92 106.77 541.71 105.62 C 543.50 104.47 545.44 103.39 547.53 102.39 C 549.62 101.39 551.89 100.45 554.22 99.60 C 556.55 98.75 559.08 97.97 561.53 97.31 C 563.98 96.66 566.49 96.10 568.93 95.67 C 571.37 95.24 573.79 94.94 576.17 94.75 C 578.55 94.56 580.90 94.51 583.22 94.56 Z M 750.40 137.38 C 750.80 137.19 751.20 137.18 751.62 137.14 C 752.04 137.10 752.46 137.12 752.90 137.16 C 753.34 137.20 753.81 137.28 754.27 137.41 C 754.73 137.54 754.84 137.57 755.63 137.94 C 756.42 138.31 760.19 140.16 760.79 140.46 C 761.39 140.76 761.46 140.83 761.76 141.00 C 762.06 141.17 762.33 141.34 762.59 141.50 C 762.85 141.66 762.95 141.73 763.31 141.98 C 763.67 142.23 764.37 142.73 764.73 142.99 C 765.09 143.25 765.21 143.35 765.47 143.56 C 765.73 143.77 765.99 143.96 766.30 144.23 C 766.61 144.50 766.95 144.80 767.35 145.16 C 767.75 145.52 767.91 145.63 768.69 146.41 C 769.47 147.19 774.26 152.05 774.87 152.68 C 775.48 153.31 775.28 153.10 775.84 153.77 C 776.40 154.44 778.44 156.94 778.73 157.29 C 779.02 157.64 779.03 157.69 779.18 157.90 C 779.32 158.11 779.47 158.31 779.60 158.53 C 779.74 158.75 779.86 158.96 779.99 159.20 C 780.12 159.44 780.16 159.49 780.39 159.94 C 780.62 160.39 782.26 163.58 782.87 164.82 C 783.48 166.06 783.81 166.81 784.07 167.38 C 784.33 167.95 784.28 167.85 784.47 168.35 C 784.66 168.84 785.04 169.88 785.22 170.35 C 785.40 170.82 785.47 170.91 785.57 171.17 C 785.67 171.43 785.72 171.52 785.84 171.91 C 785.96 172.30 786.16 173.11 786.28 173.51 C 786.40 173.91 786.49 174.01 786.58 174.29 C 786.67 174.57 786.72 174.69 786.84 175.20 C 786.96 175.71 787.16 176.83 787.28 177.35 C 787.40 177.87 787.49 177.99 787.58 178.34 C 787.67 178.69 787.72 178.81 787.84 179.48 C 787.96 180.15 788.16 181.61 788.28 182.34 C 788.40 183.07 788.50 183.46 788.57 183.87 C 788.64 184.28 788.65 184.47 788.68 184.82 C 788.71 185.17 788.73 185.55 788.75 185.97 C 788.77 186.39 788.78 186.85 788.78 187.32 C 788.78 187.78 788.76 188.30 788.74 188.76 C 788.72 189.22 788.68 189.69 788.64 190.09 C 788.60 190.50 788.54 190.86 788.47 191.19 C 788.40 191.52 788.38 191.72 788.22 192.06 C 788.07 192.40 787.78 192.93 787.54 193.21 C 787.29 193.49 787.02 193.63 786.75 193.72 C 786.48 193.81 786.24 193.80 785.94 193.75 C 785.64 193.70 785.25 193.55 784.94 193.42 C 784.63 193.28 784.37 193.15 784.09 192.94 C 783.81 192.73 783.49 192.45 783.26 192.16 C 783.03 191.87 782.88 191.56 782.71 191.21 C 782.55 190.86 782.43 190.64 782.27 190.06 C 782.11 189.48 781.87 188.26 781.73 187.71 C 781.59 187.16 781.51 187.10 781.42 186.78 C 781.32 186.46 781.24 186.15 781.16 185.81 C 781.08 185.47 781.02 185.07 780.95 184.72 C 780.88 184.37 780.81 184.01 780.72 183.69 C 780.63 183.37 780.51 183.09 780.42 182.78 C 780.33 182.47 780.24 182.15 780.16 181.81 C 780.08 181.47 780.03 181.09 779.95 180.72 C 779.87 180.35 779.86 180.19 779.68 179.61 C 779.50 179.03 779.08 177.90 778.86 177.22 C 778.64 176.54 778.50 175.98 778.37 175.56 C 778.24 175.14 778.20 174.99 778.10 174.72 C 778.00 174.45 777.90 174.19 777.80 173.93 C 777.70 173.67 777.69 173.62 777.48 173.18 C 777.27 172.74 774.84 167.81 774.54 167.21 C 774.24 166.61 774.17 166.54 774.00 166.24 C 773.83 165.94 773.82 165.90 773.51 165.41 C 773.20 164.92 772.11 163.24 771.66 162.59 C 771.21 161.94 771.27 162.02 770.84 161.50 C 770.41 160.98 769.64 160.11 769.10 159.45 C 768.56 158.79 767.94 157.96 767.62 157.55 C 767.30 157.14 767.28 157.12 767.07 156.88 C 766.87 156.64 766.64 156.39 766.39 156.12 C 766.14 155.85 765.87 155.56 765.59 155.28 C 765.31 155.00 765.00 154.69 764.72 154.41 C 764.44 154.13 764.15 153.86 763.88 153.61 C 763.61 153.36 763.36 153.14 763.12 152.93 C 762.88 152.72 762.78 152.63 762.45 152.38 C 762.12 152.13 761.78 151.89 761.15 151.40 C 760.52 150.91 759.24 149.90 758.67 149.46 C 758.10 149.02 758.03 148.99 757.70 148.75 C 757.37 148.51 757.21 148.39 756.68 148.05 C 756.15 147.71 755.04 147.05 754.50 146.71 C 753.96 146.37 753.78 146.25 753.44 146.02 C 753.10 145.79 752.77 145.55 752.45 145.30 C 752.13 145.06 751.83 144.81 751.54 144.55 C 751.25 144.30 750.98 144.03 750.72 143.77 C 750.47 143.51 750.23 143.25 750.01 142.99 C 749.79 142.73 749.60 142.47 749.42 142.21 C 749.24 141.95 749.08 141.69 748.94 141.43 C 748.81 141.18 748.68 141.03 748.61 140.68 C 748.54 140.33 748.43 139.74 748.54 139.34 C 748.64 138.94 748.93 138.61 749.24 138.28 C 749.55 137.95 750.00 137.57 750.40 137.38 Z" />
</g>
<g id="#fab53cff">
<path fill="#fab53c" opacity="1.00" fill-rule="evenodd" d="M 489.03 480.56 C 489.05 480.28 489.60 480.37 489.89 480.36 C 490.18 480.35 490.49 480.43 490.76 480.49 C 491.03 480.55 491.12 480.63 491.51 480.74 C 491.90 480.85 492.71 481.05 493.11 481.16 C 493.51 481.27 493.63 481.33 493.90 481.42 C 494.17 481.51 494.42 481.63 494.72 481.72 C 495.03 481.81 495.38 481.88 495.73 481.95 C 496.08 482.02 496.47 482.08 496.81 482.16 C 497.15 482.24 497.47 482.33 497.78 482.42 C 498.09 482.51 498.37 482.63 498.69 482.72 C 499.01 482.81 499.37 482.88 499.72 482.95 C 500.07 483.02 500.47 483.08 500.81 483.16 C 501.15 483.24 501.47 483.33 501.78 483.42 C 502.09 483.51 502.37 483.63 502.69 483.72 C 503.01 483.81 503.36 483.88 503.72 483.95 C 504.08 484.02 504.28 484.03 504.84 484.16 C 505.40 484.29 506.45 484.59 507.07 484.72 C 507.69 484.85 508.05 484.88 508.58 484.95 C 509.11 485.02 509.85 485.11 510.25 485.16 C 510.65 485.22 510.65 485.21 511.00 485.28 C 511.35 485.35 511.86 485.49 512.32 485.58 C 512.78 485.67 513.09 485.74 513.75 485.84 C 514.41 485.94 515.80 486.10 516.28 486.16 C 516.76 486.22 516.81 486.24 517.07 486.28 C 517.33 486.32 517.57 486.37 517.82 486.42 C 518.07 486.47 518.30 486.53 518.56 486.58 C 518.82 486.63 519.09 486.68 519.39 486.72 C 519.69 486.76 519.77 486.78 520.34 486.84 C 520.91 486.90 523.74 487.16 524.83 487.28 C 525.92 487.40 526.36 487.50 526.90 487.57 C 527.44 487.64 527.65 487.67 528.08 487.71 C 528.51 487.75 528.64 487.78 529.48 487.83 C 530.32 487.88 533.57 488.06 534.25 488.10 C 534.93 488.14 535.06 488.17 535.38 488.22 C 535.70 488.27 535.94 488.24 536.15 488.39 C 536.36 488.54 536.70 488.89 536.63 489.14 C 536.56 489.39 536.07 489.66 535.72 489.90 C 535.37 490.13 535.06 490.32 534.54 490.55 C 534.01 490.78 533.02 491.09 532.57 491.26 C 532.12 491.43 532.08 491.48 531.83 491.58 C 531.58 491.68 531.49 491.72 531.09 491.84 C 530.70 491.96 529.88 492.16 529.46 492.28 C 529.04 492.40 528.92 492.49 528.59 492.58 C 528.26 492.67 528.16 492.73 527.50 492.84 C 526.84 492.95 523.38 493.47 522.65 493.57 C 521.92 493.67 521.88 493.66 521.42 493.69 C 520.95 493.72 520.43 493.75 519.86 493.77 C 519.29 493.79 518.65 493.80 518.01 493.81 C 517.37 493.82 516.64 493.82 516.00 493.81 C 515.36 493.80 514.71 493.79 514.15 493.77 C 513.59 493.75 513.08 493.72 512.62 493.69 C 512.16 493.66 512.14 493.68 511.42 493.57 C 510.70 493.46 508.98 493.17 508.31 493.05 C 507.64 492.93 507.54 492.92 507.20 492.84 C 506.86 492.76 506.57 492.67 506.29 492.58 C 506.01 492.49 505.92 492.41 505.51 492.28 C 505.10 492.15 504.28 491.95 503.83 491.80 C 503.38 491.65 503.22 491.56 502.82 491.37 C 502.42 491.18 502.02 490.96 501.41 490.67 C 500.80 490.38 499.76 489.92 499.14 489.62 C 498.52 489.32 498.19 489.17 497.69 488.89 C 497.19 488.61 496.65 488.29 496.11 487.92 C 495.57 487.55 495.00 487.12 494.43 486.65 C 493.86 486.18 493.25 485.63 492.68 485.10 C 492.11 484.57 491.49 483.96 491.00 483.45 C 490.51 482.94 490.09 482.53 489.76 482.05 C 489.43 481.57 489.01 480.84 489.03 480.56 Z" />
<path fill="#fab53c" opacity="1.00" fill-rule="evenodd" d="M 511.50 414.00 C 513.33 413.83 518.66 413.91 519.50 414.00 C 520.34 414.09 520.17 414.83 520.50 415.00 C 520.83 415.17 521.17 414.83 521.50 415.00 C 521.83 415.17 522.17 415.83 522.50 416.00 C 522.83 416.17 523.06 415.60 523.50 416.00 C 523.94 416.40 532.86 425.30 533.50 426.00 C 534.14 426.70 533.42 426.75 534.00 427.50 C 534.58 428.25 536.64 430.02 537.00 430.50 C 537.36 430.98 536.64 431.02 537.00 431.50 C 537.36 431.98 539.64 434.02 540.00 434.50 C 540.36 434.98 539.59 435.06 540.00 435.50 C 540.41 435.94 551.30 446.86 552.00 447.50 C 552.70 448.14 552.75 447.42 553.50 448.00 C 554.25 448.58 556.02 450.64 556.50 451.00 C 556.98 451.36 557.00 450.67 557.50 451.00 C 558.00 451.33 559.00 452.67 559.50 453.00 C 560.00 453.33 560.00 452.67 560.50 453.00 C 561.00 453.33 562.00 454.67 562.50 455.00 C 563.00 455.33 563.17 454.83 563.50 455.00 C 563.83 455.17 564.17 455.83 564.50 456.00 C 564.83 456.17 565.17 455.83 565.50 456.00 C 565.83 456.17 566.00 456.83 566.50 457.00 C 567.00 457.17 568.00 456.83 568.50 457.00 C 569.00 457.17 569.17 457.83 569.50 458.00 C 569.83 458.17 570.17 457.83 570.50 458.00 C 570.83 458.17 571.00 458.83 571.50 459.00 C 572.00 459.17 573.00 458.83 573.50 459.00 C 574.00 459.17 574.00 459.83 574.50 460.00 C 575.00 460.17 576.00 459.83 576.50 460.00 C 577.00 460.17 577.17 460.83 577.50 461.00 C 577.83 461.17 578.17 460.83 578.50 461.00 C 578.83 461.17 579.17 461.83 579.50 462.00 C 579.83 462.17 580.02 461.64 580.50 462.00 C 580.98 462.36 582.92 464.25 583.50 465.00 C 584.08 465.75 583.92 465.58 584.00 466.50 C 584.08 467.42 584.17 469.67 584.00 470.50 C 583.83 471.33 583.17 471.17 583.00 471.50 C 582.83 471.83 583.33 472.00 583.00 472.50 C 582.67 473.00 581.58 474.08 581.00 474.50 C 580.42 474.92 580.08 474.58 579.50 475.00 C 578.92 475.42 578.00 476.67 577.50 477.00 C 577.00 477.33 576.83 476.83 576.50 477.00 C 576.17 477.17 575.83 477.83 575.50 478.00 C 575.17 478.17 574.83 477.83 574.50 478.00 C 574.17 478.17 574.00 478.83 573.50 479.00 C 573.00 479.17 572.00 478.83 571.50 479.00 C 571.00 479.17 571.00 479.83 570.50 480.00 C 570.00 480.17 569.00 479.83 568.50 480.00 C 568.00 480.17 568.33 480.83 567.50 481.00 C 566.67 481.17 564.33 480.83 563.50 481.00 C 562.67 481.17 563.34 481.88 562.50 482.00 C 561.66 482.12 557.34 481.88 556.50 482.00 C 555.66 482.12 556.35 482.96 555.50 483.00 C 554.65 483.04 538.35 483.04 537.50 483.00 C 536.65 482.96 537.35 482.08 536.50 482.00 C 535.65 481.92 527.35 482.08 526.50 482.00 C 525.65 481.92 526.34 481.11 525.50 481.00 C 524.66 480.89 519.34 481.11 518.50 481.00 C 517.66 480.89 518.34 480.14 517.50 480.00 C 516.66 479.86 513.34 480.14 512.50 480.00 C 511.66 479.86 512.33 479.17 511.50 479.00 C 510.67 478.83 508.33 479.17 507.50 479.00 C 506.67 478.83 507.33 478.17 506.50 478.00 C 505.67 477.83 503.33 478.17 502.50 478.00 C 501.67 477.83 502.17 477.17 501.50 477.00 C 500.83 476.83 499.17 477.17 498.50 477.00 C 497.83 476.83 498.00 476.17 497.50 476.00 C 497.00 475.83 496.00 476.17 495.50 476.00 C 495.00 475.83 495.00 475.17 494.50 475.00 C 494.00 474.83 493.00 475.17 492.50 475.00 C 492.00 474.83 492.00 474.17 491.50 474.00 C 491.00 473.83 490.00 474.17 489.50 474.00 C 489.00 473.83 489.00 473.17 488.50 473.00 C 488.00 472.83 487.00 473.17 486.50 473.00 C 486.00 472.83 485.83 472.17 485.50 472.00 C 485.17 471.83 484.83 472.17 484.50 472.00 C 484.17 471.83 483.83 471.17 483.50 471.00 C 483.17 470.83 482.83 471.17 482.50 471.00 C 482.17 470.83 481.83 470.17 481.50 470.00 C 481.17 469.83 480.83 470.17 480.50 470.00 C 480.17 469.83 479.83 469.17 479.50 469.00 C 479.17 468.83 478.96 469.39 478.50 469.00 C 478.04 468.61 473.12 463.72 472.50 463.00 C 471.88 462.28 472.25 461.92 472.00 461.50 C 471.75 461.08 471.17 461.00 471.00 460.50 C 470.83 460.00 470.83 459.00 471.00 458.50 C 471.17 458.00 471.83 457.83 472.00 457.50 C 472.17 457.17 471.64 456.98 472.00 456.50 C 472.36 456.02 474.25 454.08 475.00 453.50 C 475.75 452.92 476.08 453.25 476.50 453.00 C 476.92 452.75 477.17 452.17 477.50 452.00 C 477.83 451.83 478.17 452.17 478.50 452.00 C 478.83 451.83 479.17 451.17 479.50 451.00 C 479.83 450.83 480.17 451.17 480.50 451.00 C 480.83 450.83 481.17 450.17 481.50 450.00 C 481.83 449.83 482.17 450.17 482.50 450.00 C 482.83 449.83 483.17 449.17 483.50 449.00 C 483.83 448.83 484.00 449.33 484.50 449.00 C 485.00 448.67 486.08 447.58 486.50 447.00 C 486.92 446.42 486.58 446.08 487.00 445.50 C 487.42 444.92 488.67 444.00 489.00 443.50 C 489.33 443.00 488.83 442.83 489.00 442.50 C 489.17 442.17 489.83 441.83 490.00 441.50 C 490.17 441.17 489.83 440.83 490.00 440.50 C 490.17 440.17 490.83 439.83 491.00 439.50 C 491.17 439.17 490.83 438.83 491.00 438.50 C 491.17 438.17 491.83 437.83 492.00 437.50 C 492.17 437.17 491.83 436.83 492.00 436.50 C 492.17 436.17 492.83 435.83 493.00 435.50 C 493.17 435.17 492.83 434.83 493.00 434.50 C 493.17 434.17 493.83 434.00 494.00 433.50 C 494.17 433.00 493.83 432.00 494.00 431.50 C 494.17 431.00 494.83 430.83 495.00 430.50 C 495.17 430.17 494.67 430.00 495.00 429.50 C 495.33 429.00 496.67 428.00 497.00 427.50 C 497.33 427.00 496.83 426.83 497.00 426.50 C 497.17 426.17 497.83 425.83 498.00 425.50 C 498.17 425.17 497.67 425.00 498.00 424.50 C 498.33 424.00 499.67 423.00 500.00 422.50 C 500.33 422.00 499.63 421.97 500.00 421.50 C 500.37 421.03 503.27 418.10 504.00 417.50 C 504.73 416.90 505.08 417.25 505.50 417.00 C 505.92 416.75 506.17 416.17 506.50 416.00 C 506.83 415.83 507.17 416.17 507.50 416.00 C 507.83 415.83 507.83 415.33 508.50 415.00 C 509.17 414.67 509.67 414.17 511.50 414.00 Z" />
<path fill="#fab53c" opacity="1.00" fill-rule="evenodd" d="M 491.13 850.16 C 491.69 852.03 491.86 854.41 492.32 856.58 C 492.78 858.75 493.20 861.05 493.88 863.16 C 494.56 865.27 495.38 867.31 496.40 869.23 C 497.42 871.15 498.57 872.96 500.02 874.71 C 501.47 876.47 503.03 878.09 505.09 879.76 C 507.14 881.43 509.51 883.06 512.35 884.71 C 515.19 886.37 518.48 888.02 522.14 889.69 C 525.80 891.36 530.12 893.07 534.30 894.72 C 538.48 896.37 543.36 898.07 547.23 899.61 C 551.10 901.15 554.80 902.64 557.53 903.99 C 560.26 905.34 562.31 906.57 563.62 907.69 C 564.93 908.81 565.34 909.78 565.40 910.70 C 565.46 911.62 564.61 912.40 563.96 913.21 C 563.31 914.02 562.32 914.78 561.52 915.58 C 560.72 916.38 560.27 916.79 559.16 917.99 C 558.04 919.19 555.97 921.66 554.83 922.80 C 553.69 923.93 553.25 924.22 552.33 924.80 C 551.41 925.38 550.42 925.88 549.33 926.30 C 548.24 926.72 547.04 927.02 545.81 927.31 C 544.58 927.59 543.24 927.76 541.97 928.01 C 540.71 928.26 539.42 928.48 538.22 928.79 C 537.02 929.10 535.86 929.45 534.75 929.85 C 533.64 930.25 532.60 930.72 531.57 931.19 C 530.54 931.66 529.59 932.20 528.59 932.65 C 527.60 933.10 526.62 933.54 525.60 933.90 C 524.59 934.26 523.56 934.56 522.50 934.79 C 521.44 935.02 520.39 935.20 519.27 935.29 C 518.15 935.38 517.02 935.41 515.77 935.32 C 514.51 935.23 513.20 935.06 511.74 934.77 C 510.28 934.48 508.71 934.07 507.03 933.56 C 505.35 933.05 503.53 932.41 501.68 931.70 C 499.83 930.99 497.82 930.14 495.92 929.28 C 494.02 928.42 492.11 927.49 490.30 926.54 C 488.49 925.59 486.74 924.60 485.07 923.57 C 483.40 922.54 481.79 921.48 480.28 920.37 C 478.77 919.26 477.31 918.12 475.99 916.92 C 474.67 915.72 473.43 914.47 472.33 913.15 C 471.23 911.83 470.25 910.46 469.38 909.02 C 468.51 907.58 467.77 906.11 467.12 904.48 C 466.47 902.86 465.96 901.22 465.49 899.27 C 465.02 897.32 464.65 895.19 464.33 892.77 C 464.01 890.35 463.75 887.65 463.56 884.72 C 463.37 881.79 463.20 878.46 463.21 875.18 C 463.21 871.90 463.23 868.21 463.59 865.04 C 463.95 861.87 464.49 858.76 465.37 856.16 C 466.25 853.55 467.43 851.28 468.87 849.41 C 470.31 847.54 472.15 846.04 474.01 844.92 C 475.87 843.80 478.15 843.05 480.03 842.70 C 481.91 842.35 483.79 842.40 485.28 842.84 C 486.77 843.28 488.01 844.13 488.99 845.35 C 489.97 846.57 490.57 848.29 491.13 850.16 Z M 511.20 905.48 C 511.48 905.23 512.17 905.13 512.72 905.07 C 513.27 905.01 513.91 905.05 514.49 905.14 C 515.07 905.23 515.64 905.40 516.17 905.61 C 516.70 905.82 517.21 906.18 517.67 906.40 C 518.13 906.62 518.55 906.78 518.95 906.90 C 519.35 907.02 519.66 906.98 520.05 907.10 C 520.44 907.22 520.86 907.38 521.30 907.60 C 521.74 907.82 522.26 908.19 522.70 908.40 C 523.14 908.61 523.55 908.77 523.92 908.88 C 524.29 908.99 524.62 908.96 524.92 909.03 C 525.22 909.10 525.47 909.19 525.71 909.30 C 525.95 909.41 526.10 909.59 526.37 909.70 C 526.64 909.81 526.97 909.89 527.35 909.95 C 527.73 910.01 528.26 909.99 528.66 910.05 C 529.05 910.11 529.39 910.19 529.72 910.30 C 530.05 910.41 530.14 910.59 530.62 910.70 C 531.10 910.81 531.76 910.89 532.58 910.97 C 533.40 911.05 534.67 911.01 535.54 911.15 C 536.41 911.29 537.18 911.50 537.78 911.79 C 538.38 912.08 538.79 912.52 539.13 912.88 C 539.47 913.24 539.68 913.62 539.80 913.96 C 539.92 914.31 539.91 914.64 539.84 914.95 C 539.77 915.26 539.64 915.55 539.39 915.81 C 539.14 916.07 538.94 916.33 538.35 916.51 C 537.76 916.69 536.89 916.81 535.86 916.88 C 534.83 916.95 533.19 916.94 532.17 916.91 C 531.15 916.88 530.32 916.80 529.75 916.70 C 529.18 916.60 529.10 916.41 528.75 916.30 C 528.40 916.19 528.06 916.11 527.66 916.05 C 527.26 915.99 526.73 916.01 526.35 915.95 C 525.97 915.89 525.64 915.81 525.37 915.70 C 525.10 915.59 524.95 915.41 524.71 915.30 C 524.47 915.19 524.22 915.10 523.92 915.03 C 523.62 914.96 523.29 914.99 522.92 914.88 C 522.55 914.77 522.14 914.61 521.70 914.40 C 521.26 914.19 520.74 913.81 520.30 913.60 C 519.86 913.39 519.45 913.23 519.08 913.12 C 518.71 913.01 518.38 913.04 518.08 912.96 C 517.78 912.88 517.51 912.80 517.25 912.67 C 516.99 912.54 516.87 912.37 516.50 912.17 C 516.13 911.97 515.63 911.71 515.05 911.45 C 514.46 911.19 513.55 910.84 512.99 910.59 C 512.43 910.35 512.01 910.34 511.68 909.98 C 511.35 909.62 511.13 908.97 511.02 908.41 C 510.91 907.85 510.99 907.09 511.02 906.60 C 511.05 906.11 510.92 905.74 511.20 905.48 Z" />
<path fill="#fab53c" opacity="1.00" fill-rule="evenodd" d="M 361.00 844.50 C 361.15 843.56 362.08 843.92 362.50 844.00 C 362.92 844.08 363.00 844.83 363.50 845.00 C 364.00 845.17 365.00 844.83 365.50 845.00 C 366.00 845.17 365.66 845.86 366.50 846.00 C 367.34 846.14 370.66 845.86 371.50 846.00 C 372.34 846.14 371.66 846.91 372.50 847.00 C 373.34 847.09 379.66 847.09 380.50 847.00 C 381.34 846.91 380.66 846.14 381.50 846.00 C 382.34 845.86 385.66 846.14 386.50 846.00 C 387.34 845.86 387.25 844.92 387.50 845.00 C 387.75 845.08 387.96 845.55 388.00 846.50 C 388.04 847.45 388.08 855.65 388.00 856.50 C 387.92 857.35 387.09 856.66 387.00 857.50 C 386.91 858.34 387.09 864.66 387.00 865.50 C 386.91 866.34 386.09 865.66 386.00 866.50 C 385.91 867.34 386.09 873.66 386.00 874.50 C 385.91 875.34 385.05 874.65 385.00 875.50 C 384.95 876.35 384.95 890.65 385.00 891.50 C 385.05 892.35 385.83 891.83 386.00 892.50 C 386.17 893.17 385.83 894.83 386.00 895.50 C 386.17 896.17 386.83 896.17 387.00 896.50 C 387.17 896.83 386.67 897.00 387.00 897.50 C 387.33 898.00 388.67 899.00 389.00 899.50 C 389.33 900.00 388.64 900.02 389.00 900.50 C 389.36 900.98 391.25 902.92 392.00 903.50 C 392.75 904.08 392.92 903.58 393.50 904.00 C 394.08 904.42 395.00 905.67 395.50 906.00 C 396.00 906.33 396.17 905.83 396.50 906.00 C 396.83 906.17 397.17 906.83 397.50 907.00 C 397.83 907.17 398.17 906.83 398.50 907.00 C 398.83 907.17 399.17 907.83 399.50 908.00 C 399.83 908.17 400.17 907.83 400.50 908.00 C 400.83 908.17 401.17 908.83 401.50 909.00 C 401.83 909.17 402.17 908.83 402.50 909.00 C 402.83 909.17 403.00 909.83 403.50 910.00 C 404.00 910.17 405.00 909.83 405.50 910.00 C 406.00 910.17 406.00 910.83 406.50 911.00 C 407.00 911.17 408.00 910.83 408.50 911.00 C 409.00 911.17 408.83 911.83 409.50 912.00 C 410.17 912.17 411.83 911.83 412.50 912.00 C 413.17 912.17 413.00 912.83 413.50 913.00 C 414.00 913.17 415.00 912.83 415.50 913.00 C 416.00 913.17 415.67 913.83 416.50 914.00 C 417.33 914.17 419.67 913.83 420.50 914.00 C 421.33 914.17 420.83 914.83 421.50 915.00 C 422.17 915.17 423.83 914.83 424.50 915.00 C 425.17 915.17 424.83 915.83 425.50 916.00 C 426.17 916.17 427.83 915.83 428.50 916.00 C 429.17 916.17 428.83 916.83 429.50 917.00 C 430.17 917.17 431.83 916.83 432.50 917.00 C 433.17 917.17 432.83 917.83 433.50 918.00 C 434.17 918.17 435.83 917.83 436.50 918.00 C 437.17 918.17 436.83 918.83 437.50 919.00 C 438.17 919.17 439.83 918.83 440.50 919.00 C 441.17 919.17 440.83 919.83 441.50 920.00 C 442.17 920.17 443.83 919.83 444.50 920.00 C 445.17 920.17 445.00 920.83 445.50 921.00 C 446.00 921.17 447.00 920.83 447.50 921.00 C 448.00 921.17 448.00 921.83 448.50 922.00 C 449.00 922.17 450.00 921.83 450.50 922.00 C 451.00 922.17 451.00 922.83 451.50 923.00 C 452.00 923.17 452.67 922.50 453.50 923.00 C 454.33 923.50 455.92 925.25 456.50 926.00 C 457.08 926.75 456.92 927.08 457.00 927.50 C 457.08 927.92 457.17 928.17 457.00 928.50 C 456.83 928.83 456.42 929.25 456.00 929.50 C 455.58 929.75 454.92 929.75 454.50 930.00 C 454.08 930.25 454.34 930.86 453.50 931.00 C 452.66 931.14 449.34 930.86 448.50 931.00 C 447.66 931.14 448.00 931.83 447.50 932.00 C 447.00 932.17 446.33 931.50 445.50 932.00 C 444.67 932.50 443.08 934.25 442.50 935.00 C 441.92 935.75 442.25 936.08 442.00 936.50 C 441.75 936.92 441.17 936.83 441.00 937.50 C 440.83 938.17 441.17 939.83 441.00 940.50 C 440.83 941.17 440.17 940.67 440.00 941.50 C 439.83 942.33 440.17 944.67 440.00 945.50 C 439.83 946.33 439.17 946.17 439.00 946.50 C 438.83 946.83 439.36 947.02 439.00 947.50 C 438.64 947.98 436.75 949.92 436.00 950.50 C 435.25 951.08 435.25 950.92 434.50 951.00 C 433.75 951.08 432.17 951.17 431.50 951.00 C 430.83 950.83 431.00 950.17 430.50 950.00 C 430.00 949.83 429.00 950.17 428.50 950.00 C 428.00 949.83 428.00 949.17 427.50 949.00 C 427.00 948.83 426.00 949.17 425.50 949.00 C 425.00 948.83 424.83 948.17 424.50 948.00 C 424.17 947.83 423.83 948.17 423.50 948.00 C 423.17 947.83 423.34 947.08 422.50 947.00 C 421.66 946.92 414.34 946.92 413.50 947.00 C 412.66 947.08 413.00 947.83 412.50 948.00 C 412.00 948.17 411.00 947.83 410.50 948.00 C 410.00 948.17 409.83 948.83 409.50 949.00 C 409.17 949.17 408.83 948.83 408.50 949.00 C 408.17 949.17 407.83 949.83 407.50 950.00 C 407.17 950.17 406.83 949.83 406.50 950.00 C 406.17 950.17 405.83 950.83 405.50 951.00 C 405.17 951.17 404.83 950.83 404.50 951.00 C 404.17 951.17 403.83 951.83 403.50 952.00 C 403.17 952.17 402.83 951.83 402.50 952.00 C 402.17 952.17 401.83 952.83 401.50 953.00 C 401.17 953.17 400.83 952.83 400.50 953.00 C 400.17 953.17 399.83 953.83 399.50 954.00 C 399.17 954.17 398.83 953.83 398.50 954.00 C 398.17 954.17 398.00 954.83 397.50 955.00 C 397.00 955.17 396.00 954.83 395.50 955.00 C 395.00 955.17 395.35 955.93 394.50 956.00 C 393.65 956.07 384.35 956.07 383.50 956.00 C 382.65 955.93 382.83 955.17 382.50 955.00 C 382.17 954.83 381.83 955.17 381.50 955.00 C 381.17 954.83 381.00 954.17 380.50 954.00 C 380.00 953.83 379.00 954.17 378.50 954.00 C 378.00 953.83 377.83 953.17 377.50 953.00 C 377.17 952.83 376.83 953.17 376.50 953.00 C 376.17 952.83 375.83 952.17 375.50 952.00 C 375.17 951.83 375.00 952.33 374.50 952.00 C 374.00 951.67 373.00 950.33 372.50 950.00 C 372.00 949.67 372.00 950.33 371.50 950.00 C 371.00 949.67 370.00 948.33 369.50 948.00 C 369.00 947.67 368.95 948.40 368.50 948.00 C 368.05 947.60 360.14 939.70 359.50 939.00 C 358.86 938.30 359.42 938.08 359.00 937.50 C 358.58 936.92 357.33 936.00 357.00 935.50 C 356.67 935.00 357.17 934.83 357.00 934.50 C 356.83 934.17 356.17 933.83 356.00 933.50 C 355.83 933.17 356.17 932.83 356.00 932.50 C 355.83 932.17 355.17 931.83 355.00 931.50 C 354.83 931.17 355.17 930.83 355.00 930.50 C 354.83 930.17 354.17 929.83 354.00 929.50 C 353.83 929.17 354.17 928.83 354.00 928.50 C 353.83 928.17 353.17 928.00 353.00 927.50 C 352.83 927.00 353.17 926.00 353.00 925.50 C 352.83 925.00 352.17 925.17 352.00 924.50 C 351.83 923.83 352.17 922.17 352.00 921.50 C 351.83 920.83 351.06 921.35 351.00 920.50 C 350.94 919.65 350.94 908.35 351.00 907.50 C 351.06 906.65 351.83 907.17 352.00 906.50 C 352.17 905.83 351.83 904.17 352.00 903.50 C 352.17 902.83 352.83 903.00 353.00 902.50 C 353.17 902.00 352.83 901.00 353.00 900.50 C 353.17 900.00 353.83 899.83 354.00 899.50 C 354.17 899.17 353.83 898.83 354.00 898.50 C 354.17 898.17 354.83 898.00 355.00 897.50 C 355.17 897.00 354.83 896.00 355.00 895.50 C 355.17 895.00 355.83 895.00 356.00 894.50 C 356.17 894.00 355.83 893.00 356.00 892.50 C 356.17 892.00 356.83 892.17 357.00 891.50 C 357.17 890.83 356.83 889.17 357.00 888.50 C 357.17 887.83 357.86 888.34 358.00 887.50 C 358.14 886.66 357.86 883.34 358.00 882.50 C 358.14 881.66 358.92 882.34 359.00 881.50 C 359.08 880.66 358.92 873.34 359.00 872.50 C 359.08 871.66 359.95 872.35 360.00 871.50 C 360.05 870.65 359.95 855.35 360.00 854.50 C 360.05 853.65 360.92 854.34 361.00 853.50 C 361.08 852.66 360.85 845.44 361.00 844.50 Z" />
</g>
<g id="#1c1817ff">
<path fill="#1c1817" opacity="1.00" fill-rule="evenodd" stroke="#1c1817" stroke-width="0.75" stroke-linejoin="round" stroke-linecap="round" paint-order="stroke fill" d="M 346.00 747.50 L 347.50 747.00 C 348.45 746.94 353.91 746.92 354.50 747.00 C 355.09 747.08 355.09 747.92 354.50 748.00 C 353.91 748.08 348.45 748.06 347.50 748.00 L 346.00 747.50 Z" />
<path fill="#1c1817" opacity="1.00" fill-rule="evenodd" stroke="#1c1817" stroke-width="0.75" stroke-linejoin="round" stroke-linecap="round" paint-order="stroke fill" d="M 626.00 392.50 L 627.00 392.50 L 627.00 400.50 L 626.00 400.50 Z" />
<path fill="#1c1817" opacity="1.00" fill-rule="evenodd" stroke="#1c1817" stroke-width="0.75" stroke-linejoin="round" stroke-linecap="round" paint-order="stroke fill" d="M 507.00 533.50 L 508.00 533.50 L 508.00 541.50 L 507.00 541.50 Z" />
<path fill="#1c1817" opacity="1.00" fill-rule="evenodd" stroke="#1c1817" stroke-width="0.75" stroke-linejoin="round" stroke-linecap="round" paint-order="stroke fill" d="M 345.00 910.50 L 346.00 910.50 L 346.00 918.50 L 345.00 918.50 Z" />
<path fill="#1c1817" opacity="1.00" fill-rule="evenodd" stroke="#1c1817" stroke-width="0.75" stroke-linejoin="round" stroke-linecap="round" paint-order="stroke fill" d="M 541.00 483.50 L 542.50 483.00 C 543.45 482.96 551.90 482.94 552.50 483.00 C 553.10 483.06 553.10 483.94 552.50 484.00 C 551.90 484.06 543.45 484.04 542.50 484.00 L 541.00 483.50 Z" />
<path fill="#1c1817" opacity="1.00" fill-rule="evenodd" stroke="#1c1817" stroke-width="0.75" stroke-linejoin="round" stroke-linecap="round" paint-order="stroke fill" d="M 504.00 177.50 L 505.00 177.50 L 505.00 188.50 L 504.00 188.50 Z" />
<path fill="#1c1817" opacity="1.00" fill-rule="evenodd" stroke="#1c1817" stroke-width="0.75" stroke-linejoin="round" stroke-linecap="round" paint-order="stroke fill" d="M 812.00 185.50 L 813.00 185.50 L 813.00 198.50 L 812.00 198.50 Z" />
<path fill="#1c1817" opacity="1.00" fill-rule="evenodd" stroke="#1c1817" stroke-width="0.75" stroke-linejoin="round" stroke-linecap="round" paint-order="stroke fill" d="M 627.00 685.50 L 628.00 685.50 L 628.00 700.50 L 627.00 700.50 Z" />
</g>
</svg>
